<svg xmlns="http://www.w3.org/2000/svg" xmlns:xlink="http://www.w3.org/1999/xlink" fill="none" version="1.1" width="1106.199951171875" height="1168.5999755859375" viewBox="0 0 1106.199951171875 1168.5999755859375"><defs><clipPath id="master_svg0_191_17082"><rect x="0" y="0" width="1106.199951171875" height="1168.5999755859375" rx="0"/></clipPath></defs><g clip-path="url(#master_svg0_191_17082)"><g><g><g><g><g><g><path d="M492.5000002753906,1161.4000242421876L492.5000002753906,1156.2000732421875C492.5000002753906,1155.8000492421875,492.70001227539063,1155.6000972421875,492.8999942753906,1155.4000242421876L497.1999812753906,1153.0000002421875L499.1999812753906,1151.8000492421875L499.1999812753906,1148.7000732421875C499.1999812753906,1148.0001220421875,498.7999882753906,1147.4000244421875,498.1999812753906,1147.0001220421875L489.49996927539064,1142.0001220721874C488.89996327539063,1141.6000976561875,488.1999812753906,1141.6000976561875,487.4999694753906,1142.0001220721874L478.7999572753906,1147.0001220421875C478.19995117539065,1147.4001464421874,477.7999572753906,1148.0001220421875,477.7999572753906,1148.7000732421875L477.7999572753906,1158.7000732421875C477.7999572753906,1159.4000242421876,478.19995117539065,1160.0001222421874,478.7999572753906,1160.4000242421876L487.4999694753906,1165.4000242421876C488.09997527539065,1165.8000492421875,488.7999572753906,1165.8000492421875,489.49996927539064,1165.4000242421876L492.39996327539063,1163.7000732421875L492.5000002753906,1161.4000242421876ZM489.5000002753906,1151.9000242421876C488.8999942753906,1152.3000492421875,488.5000002753906,1152.9000242421876,488.5000002753906,1153.5999752421876L488.5000002753906,1161.9000242421876C488.5000002753906,1162.5999752421876,487.7000121753906,1163.2000732421875,487.10000607539064,1162.7000732421875L480.39999387539063,1158.9000242421876C480.10000607539064,1158.7000732421875,479.9999999753906,1158.4000242421876,479.9999999753906,1158.0999752421876L479.9999999753906,1149.1999511421875C479.9999999753906,1148.7999267421876,480.2000121753906,1148.5999755421874,480.39999387539063,1148.3999023421875L488.1000062753906,1143.8999023421875C488.3999942753906,1143.6999511421875,488.80001827539064,1143.6999511421875,489.1000062753906,1143.8999023421875L494.80001827539064,1147.1999511421875C495.40002427539065,1147.5999755421874,495.40002427539065,1148.5000000421876,494.80001827539064,1148.8999023421875L489.5000002753906,1151.9000242421876Z" fill="#B4B4B4" fill-opacity="1" style="mix-blend-mode:passthrough"/></g></g></g><g><g><g><path d="M500.3999939140625,1150.9999999998124L499.1000061140625,1151.8000488278126L499.1000061140625,1159.3000488578125C499.1000061140625,1159.7000732578124,498.8999939140625,1159.9000244578126,498.7000122140625,1160.1000976578125L498.6000061140625,1160.2000732578124L498.3999939140625,1160.3000488578125L497.1000061140625,1161.0000002578124L496.3000183140625,1161.4000242578124L492.4000244140625,1163.5999752578125L492.4000244140625,1165.0000002578124L492.4000244140625,1165.0999752578125C492.4000244140625,1165.7999272578124,493.2000122040625,1166.2999272578124,493.8000183140625,1166.0000002578124L494.6000061140625,1165.5999752578125L501.3000183140625,1161.6999512578125C501.6000061140625,1161.5000002578124,501.7000122140625,1161.1999512578125,501.7000122140625,1160.8999023578126L501.7000122140625,1151.9998779578125C501.8999939140625,1151.0999755878124,501.1000061140625,1150.6999511678125,500.3999939140625,1150.9999999998124Z" fill="#B4B4B4" fill-opacity="1" style="mix-blend-mode:passthrough"/></g></g></g></g><g><g><g><g><g><path d="M525.9000244070312,1152.4000244140625L524.1000366170313,1152.4000244140625C523.8000488270312,1152.4000244140625,523.7000122070312,1152.5999755840626,523.7000122070312,1152.8000488240625L523.7000122070312,1159.6000976140624C523.7000122070312,1159.9001465140625,523.9000244170312,1160.0001221140626,524.1000366170313,1160.0001221140626L525.9000244070312,1160.0001221140626C526.2000122070312,1160.0001221140626,526.3000488070312,1159.8001709140624,526.3000488070312,1159.6000976140624L526.3000488070312,1152.8000488240625C526.4000244070312,1152.5999755840626,526.2000122070312,1152.4000244140625,525.9000244070312,1152.4000244140625Z" fill="#B4B4B4" fill-opacity="1" style="mix-blend-mode:passthrough"/></g></g></g><g><g><g><path d="M525.4000244210938,1150.699951128125L524.7000122210937,1150.699951128125C524.2000122110937,1150.699951128125,523.6000366210938,1150.299926728125,523.6000366210938,1149.599975628125L523.6000366210938,1148.900024428125C523.6000366210938,1148.400024418125,524.0000610310938,1147.800048828125,524.7000122210937,1147.800048828125L525.4000244210938,1147.800048828125C525.9000244210938,1147.800048828125,526.5000000210938,1148.200073238125,526.5000000210938,1148.900024428125L526.5000000210938,1149.599975628125C526.4000244210938,1150.199951128125,526.0000000210938,1150.699951128125,525.4000244210938,1150.699951128125Z" fill="#B4B4B4" fill-opacity="1" style="mix-blend-mode:passthrough"/></g></g></g></g><g><g><g><g><path d="M546.4999999929687,1152.4000244140625L544.7000122029688,1152.4000244140625C544.4000244129687,1152.4000244140625,544.2999877929688,1152.5999755840626,544.2999877929688,1152.8000488240625L544.2999877929688,1159.6000976140624C544.2999877929688,1159.9001465140625,544.5000000029687,1160.0001221140626,544.7000122029688,1160.0001221140626L546.4999999929687,1160.0001221140626C546.7999877929688,1160.0001221140626,546.9000243929687,1159.8001709140624,546.9000243929687,1159.6000976140624L546.9000243929687,1152.8000488240625C546.9999999929687,1152.5999755840626,546.7999877929688,1152.4000244140625,546.4999999929687,1152.4000244140625Z" fill="#B4B4B4" fill-opacity="1" style="mix-blend-mode:passthrough"/></g></g></g><g><g><g><path d="M546.0000000070313,1150.699951128125L545.2999878070312,1150.699951128125C544.7999877970312,1150.699951128125,544.2000122070312,1150.299926728125,544.2000122070312,1149.599975628125L544.2000122070312,1148.900024428125C544.2000122070312,1148.400024418125,544.6000366170313,1147.800048828125,545.2999878070312,1147.800048828125L546.0000000070313,1147.800048828125C546.5000000070313,1147.800048828125,547.0999756070313,1148.200073238125,547.0999756070313,1148.900024428125L547.0999756070313,1149.599975628125C547.0000000070313,1150.199951128125,546.5000000070313,1150.699951128125,546.0000000070313,1150.699951128125Z" fill="#B4B4B4" fill-opacity="1" style="mix-blend-mode:passthrough"/></g></g></g></g><g><g><g><path d="M536.9000243929687,1147.9000244140625L529.7000122029688,1147.9000244140625C529.4000244129687,1147.9000244140625,529.2999877929688,1148.0999755840626,529.2999877929688,1148.3000488240625L529.2999877929688,1150.1000976140624C529.2999877929688,1150.4001465140625,529.5000000029687,1150.5001221140626,529.7000122029688,1150.5001221140626L536.7999877929688,1150.5001221140626C537.8999633929687,1150.5001221140626,538.7999877929688,1151.4001465140625,538.7999877929688,1152.5001221140626L538.7999877929688,1153.9001465140625L538.7999877929688,1155.3001709140624C538.7999877929688,1156.4001465140625,537.8999633929687,1157.3001709140624,536.7999877929688,1157.3001709140624L532.4999999929687,1157.3001709140624C532.2000121929688,1157.3001709140624,532.0999755929688,1157.1002197140624,532.0999755929688,1156.9001465140625L532.0999755929688,1154.5001221140626C532.0999755929688,1154.2000732140625,531.8999633929687,1154.1000976140624,531.6999511929688,1154.1000976140624L529.8999633829687,1154.1000976140624C529.5999755829688,1154.1000976140624,529.4999389629687,1154.3000488140624,529.4999389629687,1154.5001221140626L529.4999389629687,1154.9001465140625L529.4999389629687,1159.6000974140625C529.4999389629687,1159.9001464140624,529.6999511729688,1160.0001224140624,529.8999633829687,1160.0001224140624L536.9999389929687,1160.0001224140624C539.4999387929688,1160.0001224140624,541.5999147929688,1157.9001464140624,541.5999147929688,1155.4001465140625L541.5999147929688,1153.9001465140625L541.5999147929688,1152.4001465140625C541.4000247929688,1150.0000000140626,539.4000247929688,1147.9000244140625,536.9000243929687,1147.9000244140625Z" fill="#B4B4B4" fill-opacity="1" style="mix-blend-mode:passthrough"/></g></g></g><g><g><g><g><path d="M516.2000122035156,1147.9000244140625L513.2000122035156,1147.9000244140625C510.7000122035156,1147.9000244140625,508.6000061035156,1150.0000000140626,508.6000061035156,1152.5000000140626L508.6000061035156,1154.0000000140626L508.6000061035156,1155.5000000140626C508.6000061035156,1158.0000004140625,510.7000122035156,1160.0999754140626,513.2000122035156,1160.0999754140626L514.2999878035156,1160.0999754140626C514.5999756035156,1160.0999754140626,514.7000122035156,1159.9000244140625,514.7000122035156,1159.6999514140625L514.7000122035156,1157.8999023140625C514.7000122035156,1157.5998535140625,514.5000000035157,1157.4998779140626,514.2999878035156,1157.4998779140626L513.3999634035156,1157.4998779140626C512.2999878035156,1157.4998779140626,511.39996340351564,1156.5998535140625,511.39996340351564,1155.4998779140626L511.39996340351564,1154.0998535140625L511.39996340351564,1152.6998291140626C511.39996340351564,1151.5998535140625,512.2999878035156,1150.6998291140626,513.3999634035156,1150.6998291140626L516.1999512035156,1150.6998291140626C517.2999268035156,1150.6998291140626,518.1999512035156,1151.5998535140625,518.1999512035156,1152.6998291140626L518.1999512035156,1153.5998535140625C518.1999512035156,1153.8999023140625,518.3999634035156,1153.9998779140626,518.5999756035156,1153.9998779140626L520.3999631035156,1153.9998779140626C520.6999511035157,1153.9998779140626,520.7999881035156,1153.7999267140624,520.7999881035156,1153.5998535140625L520.7999881035156,1152.5998535140625C520.9000241035156,1150.0000000140626,518.7999881035156,1147.9000244140625,516.2000122035156,1147.9000244140625Z" fill="#B4B4B4" fill-opacity="1" style="mix-blend-mode:passthrough"/></g></g></g><g><g><g><path d="M520.7000122242188,1158L516.9000244242187,1154.19995117C516.8000488242187,1154.099975586,516.7000122242188,1154,516.5000000242187,1154L513.9000244142187,1154C513.5000000002187,1154,513.3000488242187,1154.5,513.5000000002187,1154.80004883L518.7000122242188,1160C518.9000244242187,1160.1999512,519.2000122242188,1160.1999512,519.4000244242187,1160L520.7000122242188,1158.6999512C520.9000244242187,1158.5999756,520.9000244242187,1158.1999512,520.7000122242188,1158Z" fill="#B4B4B4" fill-opacity="1" style="mix-blend-mode:passthrough"/></g></g></g></g></g><g><g><g><path d="M559.2000122070312,1160.199951L563.7999878070312,1153.3999023L565.2999878070312,1155.5998535L562.3999634070312,1160.199829L559.2000122070312,1160.199951ZM568.0000000070313,1160.199951L564.4000244070312,1154.6999512L559.4000244170312,1147.599975586L562.6000366070313,1147.599975586L566.0000610070313,1152.6999512L571.2000732070312,1160.199951L568.0000000070313,1160.199951ZM566.7000122070312,1153.6999512L565.2000122070312,1151.5999756L567.7999878070312,1147.5L571.0999752070312,1147.5L566.7000122070312,1153.6999512Z" fill="#B4B4B4" fill-opacity="1" style="mix-blend-mode:passthrough"/></g></g></g><g><g><g><path d="M578.0999755789062,1152.4000244140625L578.0999755789062,1154.8000488140624L571.3999633789062,1154.8000488140624L571.3999633789062,1152.4000244140625L578.0999755789062,1152.4000244140625Z" fill="#B4B4B4" fill-opacity="1" style="mix-blend-mode:passthrough"/></g></g></g><g><g><g><g><path d="M581,1160.099976L581,1148L583.2000122,1148L585.4000244,1154.1999512C585.6000366,1154.5999756,585.7000122,1155,585.8000488,1155.5C585.9000244,1155.9000244,586.1000366,1156.3000488,586.2000732,1156.8000488L586.3000488,1156.8000488C586.500061,1156.4000244,586.6000366,1156,586.7000732,1155.5C586.8000488,1155.0999756,587.000061,1154.6999512,587.1000977,1154.1999512L589.2000732,1148L591.400085,1148L591.400085,1160.099976L589.6000977,1160.099976L589.6000977,1154.0999756C589.6000977,1153.6999512,589.6000977,1153.2999268,589.6000977,1152.9000244C589.6000977,1152.5,589.7000732,1152,589.7000732,1151.5999756C589.7000732,1151.1999512,589.8000488,1150.6999512,589.8000488,1150.2999268L589.7000732,1150.2999268L588.7000732,1153.0999756L586.6000977,1158.900024L585.4000854,1158.900024L583.3001099,1153.0999756L582.3001099,1150.2999268L582.2001343,1150.2999268C582.2001343,1150.6999512,582.3001099,1151.0999756,582.3001099,1151.5999756C582.3001099,1152,582.4000854,1152.5,582.4000854,1152.9000244C582.4000854,1153.3000488,582.4000854,1153.7000732,582.4000854,1154.0999756L582.4000854,1160.099976L581,1160.099976Z" fill="#B4B4B4" fill-opacity="1" style="mix-blend-mode:passthrough"/></g></g><g><g><path d="M591.7000117929688,1160.300048828125L589.4000243929687,1160.300048828125L589.4000243929687,1154.000000028125C589.4000243929687,1153.599975628125,589.4000243929687,1153.199951128125,589.4000243929687,1152.699951128125C589.4000243929687,1152.399902328125,589.4000243929687,1152.199951128125,589.4999999929687,1151.899902328125L589.0999755929688,1153.199951128125L586.9999999929687,1159.099975828125L585.4999999929687,1159.099975828125L582.9000243929687,1152.099975628125C582.9000243929687,1152.400024428125,582.9000243929687,1152.500000028125,582.9999999929687,1152.799926728125C582.9999999929687,1153.199951128125,582.9999999929687,1153.699951128125,582.9999999929687,1154.099975628125L582.9999999929687,1160.400024828125L580.7999877929688,1160.400024828125L580.7999877929688,1147.800048828125L583.3999633929687,1147.800048828125L585.5999755929688,1154.100097628125C585.7999877929688,1154.500122028125,585.8999633929687,1154.900146528125,585.9999999929687,1155.400146528125C586.0999755929688,1155.600097628125,586.0999755929688,1155.800170928125,586.2000121929688,1156.000122028125C586.2999877929688,1155.800170928125,586.2999877929688,1155.600097628125,586.4000243929687,1155.400146528125C586.4999999929687,1155.000122028125,586.7000121929688,1154.600097628125,586.8000487929687,1154.100097628125L589.0000609929688,1147.800048828125L591.7000727929687,1147.800048828125L591.7000117929688,1160.300048828125ZM589.9000243929687,1159.800048828125L591.2000117929688,1159.800048828125L591.2000117929688,1148.200073238125L589.4000243929687,1148.200073238125L587.3000487929687,1154.200073228125C587.2000731929687,1154.600097628125,587.0000609929688,1155.000122028125,586.9000243929687,1155.400024428125C586.8000487929687,1155.800048828125,586.6000365929688,1156.200073228125,586.4999999929687,1156.700073228125L586.4000243929687,1156.900024428125L585.9999999929687,1156.900024428125L585.9000243929687,1156.700073228125C585.8000487929687,1156.300048828125,585.6000365929688,1155.900024428125,585.4999999929687,1155.400024428125C585.4000243929687,1155.000000028125,585.2000121929688,1154.599975628125,585.0999755929688,1154.200073228125L582.9999999929687,1148.200073238125L581.2000122029688,1148.200073238125L581.2000122029688,1159.800048828125L582.4999999929687,1159.800048828125L582.4999999929687,1154.100097628125C582.4999999929687,1153.700073228125,582.4999999929687,1153.400146528125,582.4999999929687,1152.900146528125C582.4999999929687,1152.500122028125,582.4000243929687,1152.000122028125,582.4000243929687,1151.600097628125C582.4000243929687,1151.200073228125,582.3000487929687,1150.800048828125,582.3000487929687,1150.400146528125L582.3000487929687,1150.100097628125L582.8000487929687,1150.100097628125L583.8000487929687,1153.000122028125L585.9000243929687,1158.600097828125L586.7000121929688,1158.600097828125L588.7999877929688,1153.000122028125L589.8999633929687,1150.100097628125L590.3999633929687,1150.100097628125L590.3999633929687,1150.400146528125C590.3999633929687,1150.800170928125,590.2999877929688,1151.200195328125,590.2999877929688,1151.600097628125C590.2999877929688,1152.000122028125,590.2000121929688,1152.500122028125,590.2000121929688,1152.900146528125C590.2000121929688,1153.300170928125,590.2000121929688,1153.700195328125,590.2000121929688,1154.100097628125L590.2000121929688,1159.800048828125L589.9000243929687,1159.800048828125Z" fill="#B4B4B4" fill-opacity="1" style="mix-blend-mode:passthrough"/></g></g></g><g><g><g><path d="M596.5999755789062,1160.3000488140624C596.0999755789062,1160.3000488140624,595.5999755789062,1160.2000732140625,595.2999877789063,1159.9000244140625C594.8999633789062,1159.5999756140625,594.5999755889062,1159.4000244140625,594.2999877889063,1159.0000000140626C593.9999999989062,1158.5999756140625,593.8999633789062,1158.0999756140625,593.8999633789062,1157.6999512140626C593.8999633789062,1156.6999512140626,594.2999877889063,1156.0000000140626,595.1999511789063,1155.5000000140626C596.0999755789062,1155.0000000140626,597.3999633789062,1154.5999756140625,599.2999267789063,1154.4000244140625C599.2999267789063,1154.0000000140626,599.1999511789063,1153.7000732140625,599.0999145789062,1153.4000244140625C598.9999389789062,1153.0999756140625,598.7999267789063,1152.9000244140625,598.5999145789062,1152.7000732140625C598.2999267789063,1152.5001221140626,597.9999389789062,1152.4000244140625,597.4999389789062,1152.4000244140625C596.9999389789062,1152.4000244140625,596.5999145789062,1152.5000000140626,596.1999511789063,1152.7000732140625C595.7999267789063,1152.9000244140625,595.2999267789063,1153.1000976140624,594.8999633789062,1153.3000488140624L594.1999511689063,1152.0000000140626C594.5999755889062,1151.8000488240625,594.7999267589063,1151.5999755840626,595.2999267789063,1151.5000000040625C595.6999511789063,1151.3000488240625,596.0999145789062,1151.0999755840626,596.5999145789062,1151.0999755840626C597.0999145789062,1151.0999755840626,597.4999389789062,1150.9000244140625,597.8999023789063,1150.9000244140625C598.5999145789062,1150.9000244140625,599.1998901789062,1151.0999755840626,599.7999267789063,1151.3000488240625C600.1999511789063,1151.6000976540624,600.5999145789062,1152.0000000140626,600.8999023789063,1152.6000976140624C601.1998901789062,1153.1000976140624,601.2999267789063,1153.9001465140625,601.2999267789063,1154.7000732140625L601.2999267789063,1160.2000732140625L599.7999267789063,1160.2000732140625L599.5999145789062,1159.1000976140624L599.4999389789062,1159.1000976140624C599.0999145789062,1159.5001221140626,598.6999511789063,1159.7000732140625,598.1999511789063,1160.0001221140626C597.7000121789063,1160.1999512140626,597.0999755789062,1160.3000488140624,596.5999755789062,1160.3000488140624ZM597.0999755789062,1158.8000488140624C597.4999999789062,1158.8000488140624,597.8999633789062,1158.7000732140625,598.1999511789063,1158.5000000140626C598.4999389789062,1158.3000488140624,598.8999633789062,1158.0999756140625,599.2999267789063,1157.6999512140626L599.2999267789063,1155.5000000140626C598.3999023789063,1155.5999756140625,597.6999511789063,1155.8000488140624,597.1999511789063,1155.9000244140625C596.6999511789063,1156.0999756140625,596.2999267789063,1156.3000488140624,595.9999389789062,1156.5999756140625C595.6999511789063,1156.9000244140625,595.5999145789062,1157.0999756140625,595.5999145789062,1157.5000000140626C595.5999145789062,1157.9000244140625,595.7999267789063,1158.3000488140624,595.9999389789062,1158.5000000140626C596.4000243789062,1158.6999512140626,596.7999877789063,1158.8000488140624,597.0999755789062,1158.8000488140624Z" fill="#B4B4B4" fill-opacity="1" style="mix-blend-mode:passthrough"/></g></g><g><g><path d="M596.5999755859375,1160.5999756125C596.0999755859375,1160.5999756125,595.4999999859375,1160.5000000125,595.0999755859375,1160.1999512125C594.6999511859375,1159.8999023125,594.2999877959375,1159.5999756125,593.9999999959375,1159.1999512125C593.7000122059375,1158.7999267125,593.5999755859375,1158.1999512125,593.5999755859375,1157.6999512125C593.5999755859375,1156.5999756125,593.9999999959375,1155.7999267125,594.9999999859375,1155.1999512125C595.9000243859375,1154.6999512125,597.2000121859375,1154.2999267125,598.9999999859375,1154.0000000125C598.9999999859375,1153.6999512125,598.9000243859375,1153.5999756125,598.7999877859374,1153.4000244125C598.7000121859375,1153.0999756125,598.5999755859375,1153.0000000125,598.3999633859376,1152.8000488125C598.1999511859375,1152.6000976125,597.8999633859376,1152.6000976125,597.4999389859375,1152.6000976125C597.0999145859375,1152.6000976125,596.5999145859375,1152.7000732125,596.1999511859375,1152.9001465125C595.7999267859375,1153.1000976125,595.3999633859376,1153.3001709125,594.8999633859376,1153.5001221125L594.5999755859375,1153.7000732125L593.5999755859375,1152.0001221125L593.7999877959375,1151.9001465125C594.2000122059375,1151.7001953125,594.4999999959375,1151.5001220725,594.8999633859376,1151.3001709025C595.2999877859374,1151.1002197225,595.6999511859375,1150.9001464825,596.1999511859375,1150.9001464825C596.6999511859375,1150.9001464825,597.1999511859375,1150.7001953125,597.5999755859375,1150.7001953125C598.3999633859376,1150.7001953125,598.9999999859375,1150.9001464825,599.5999755859375,1151.1002197225C600.0999755859375,1151.5002441425,600.4999999859375,1151.9002685125,600.7999877859374,1152.5002441125C601.0999755859375,1153.1002197125,601.2000121859375,1153.8002930125,601.2000121859375,1154.6002197125L601.2000121859375,1160.3001709125L599.1000365859375,1160.3001709125L599.0000609859375,1159.4001465125C598.6000365859375,1159.7001953125,598.3000487859375,1159.9001465125,597.9000854859376,1160.1000976125C597.7999877859374,1160.4000244125,597.0999755859375,1160.5999756125,596.5999755859375,1160.5999756125ZM597.5999755859375,1152.0999756125C598.0999755859375,1152.0999756125,598.4999999859375,1152.1999512125,598.7999877859374,1152.5000000125C599.0999755859375,1152.6999512125,599.2999877859374,1153.0000000125,599.3999633859376,1153.3000488125C599.4999389859375,1153.7000732125,599.5999755859375,1153.9000244125,599.5999755859375,1154.4000244125L599.5999755859375,1154.7000732125L599.2999877859374,1154.7000732125C597.3999633859376,1154.9000244125,596.0999755859375,1155.2000732125,595.2999877859374,1155.8000488125C594.4999999959375,1156.2000732125,594.0999755859375,1157.0000000125,594.0999755859375,1157.9000244125C594.0999755859375,1158.3000488125,594.1999511759375,1158.8000488125,594.3999633759375,1159.2000732125C594.5999755859375,1159.6000976125,594.7999877859374,1159.8000488125,595.1999511859375,1160.0001221125C595.8999633859376,1160.4001465125,596.9999389859375,1160.4001465125,597.8999633859376,1160.0001221125C598.2999877859374,1159.7000732125,598.7999877859374,1159.5001221125,599.1999511859375,1159.1000976125L599.2999267859375,1159.0001221125L599.6999511859375,1159.0001221125L599.8999633859376,1160.1000976125L600.9999389859375,1160.1000976125L600.9999389859375,1154.9001465125C600.9999389859375,1154.1000976125,600.8999633859376,1153.5001221125,600.5999145859375,1152.9001465125C600.3999023859375,1152.4001465125,600.0999145859375,1152.0001221125,599.5999145859375,1151.7001953125C599.1998901859375,1151.4001464825,598.5999145859375,1151.3001709025,597.8999023859375,1151.3001709025C597.4998778859375,1151.3001709025,596.9998778859375,1151.4001464825,596.5999145859375,1151.5001220725C596.1998901859375,1151.6000976525,595.7999267859375,1151.8001709125,595.3999023859375,1151.9001465125C595.0999145859375,1152.1000976125,594.8999023859375,1152.2001953125,594.5999145459375,1152.3001709125L594.9999389859375,1153.1002197125C595.3999633859376,1152.9002685125,595.6999511859375,1152.7001953125,596.0999145859375,1152.6002197125C596.5999755859375,1152.1999512125,597.0999755859375,1152.0999756125,597.5999755859375,1152.0999756125ZM597.0999755859375,1159.0999756125C596.6999511859375,1159.0999756125,596.2999877859374,1159.0000000125,595.8999633859376,1158.6999512125C595.4999389859375,1158.3999023125,595.3999633859376,1158.0999756125,595.3999633859376,1157.5000000125C595.3999633859376,1157.0999756125,595.5999755859375,1156.8000488125,595.7999877859374,1156.4000244125C596.0999755859375,1156.0999756125,596.3999633859376,1155.9000244125,597.0999755859375,1155.7000732125C597.5999755859375,1155.5001221125,598.3999633859376,1155.3000488125,599.1999511859375,1155.3000488125L599.4999389859375,1155.3000488125L599.4999389859375,1157.9000244125L599.3999633859376,1158.0000000125C598.9999389859375,1158.4000244125,598.5999755859375,1158.5999756125,598.1999511859375,1158.8000488125C597.9999999859375,1159.0000000125,597.5999755859375,1159.0999756125,597.0999755859375,1159.0999756125ZM599.0999755859375,1155.8000488125C598.3999633859376,1155.9000244125,597.7999877859374,1156.1000976125,597.2999877859374,1156.2000732125C596.8999633859376,1156.4000244125,596.4999999859375,1156.6000976125,596.2999877859374,1156.8000488125C596.0999755859375,1157.0000000125,595.9999999859375,1157.2000732125,595.9999999859375,1157.5000000125C595.9999999859375,1157.9000244125,596.0999755859375,1158.0999756125,596.2999877859374,1158.3000488125C596.7000121859375,1158.7000732125,597.5999755859375,1158.7000732125,598.2000121859375,1158.3000488125C598.4999999859375,1158.1000976125,598.7999877859374,1157.9000244125,599.1000365859375,1157.6000976125L599.0999755859375,1155.8000488125Z" fill="#B4B4B4" fill-opacity="1" style="mix-blend-mode:passthrough"/></g></g></g><g><g><g><path d="M602.7999877929688,1160.0999756L605.7000121929688,1155.4000244L603.0000000029687,1151L605.0999755929688,1151L606.1999511929688,1152.8000488C606.3999633929687,1153.1000977,606.4999389929687,1153.3000488,606.5999755929688,1153.5C606.7999877929688,1153.6999512,606.8999633929687,1154,606.9999999929687,1154.3000488L607.0999755929688,1154.3000488C607.1999511929688,1154,607.3999633929687,1153.8000488,607.4999999929687,1153.5C607.5999755929688,1153.1999512,607.7999877929688,1153,607.9000243929687,1152.8000488L608.9000243929687,1151L610.9000243929687,1151L608.2000121929688,1155.5999756L611.1000365929688,1160.1999512L608.8000487929687,1160.1999512L607.6000365929688,1158.1999512C607.4000243929687,1157.8999023,607.3000487929687,1157.6999512,607.2000121929688,1157.3999023C606.9999999929687,1157.0998535,606.7999877929688,1156.8999023,606.7000121929688,1156.5998535L606.6000365929688,1156.5998535C606.5000609929688,1156.8999023,606.3000487929687,1157.0998535,606.2000121929688,1157.3999023C605.9999999929687,1157.6999512,605.9000243929687,1157.8999023,605.7999877929688,1158.1999512L604.7000121929688,1160.1999512L602.7999877929688,1160.0999756Z" fill="#B4B4B4" fill-opacity="1" style="mix-blend-mode:passthrough"/></g></g><g><g><path d="M611.2999877859374,1160.3000488421876L608.5999755859375,1160.3000488421876L607.2999877859374,1158.2000732421875C607.0999755859375,1157.9000244421875,606.9999999859375,1157.7000732421875,606.8999633859376,1157.4000244421875C606.7999877859374,1157.2000732421875,606.6999511859375,1157.0000000421876,606.5999755859375,1157.0000000421876L606.2999877859374,1157.4000244421875C606.0999755859375,1157.7000732421875,605.9999999859375,1157.9000244421875,605.8999633859376,1158.2000732421875L604.6999511859375,1160.3000488421876L602.0999755859375,1160.3000488421876L605.0999755859375,1155.3000488421876L602.1999511719375,1150.7000732421875L604.8999633859376,1150.7000732421875L606.4999389859375,1153.4000244421875C606.5999145859375,1153.5999755421874,606.6999511859375,1153.7000732421875,606.7999267859375,1153.8000488421876C606.8999023859375,1153.7000732421875,606.8999023859375,1153.5000000421876,606.9999389859375,1153.4000244421875C607.0999145859375,1153.0999755421874,607.2999267859375,1152.9000244421875,607.3999633859376,1152.7000732421875L608.3999633859376,1150.7000732421875L610.9999389859375,1150.7000732421875L608.0999145859375,1155.5001220421875L611.2999877859374,1160.3000488421876ZM608.9000243859375,1159.8000488421876L610.3000487859375,1159.8000488421876L607.5000609859375,1155.5000000421876L610.1000365859375,1151.1999511721874L608.8000487859375,1151.1999511721874L607.9000243859375,1152.8999023421875C607.8000487859375,1153.1999511421875,607.6000365859375,1153.3999023421875,607.4999999859375,1153.5998535421875C607.4000243859375,1153.8999023421875,607.2000121859375,1154.0998535421875,607.0999755859375,1154.2998046421876L606.9999999859375,1154.4997558421876L606.5999755859375,1154.4997558421876L606.4999999859375,1154.3997802421875C606.2999877859374,1154.0997314421875,606.2000121859375,1153.8997802421875,606.0999755859375,1153.5997314421875L605.6999511859375,1152.8997802421875L604.6999511859375,1151.1998291021876L603.3999633859376,1151.1998291021876L605.9999389859375,1155.2998046421876L603.1999511859375,1159.7998046421876L604.4999389859375,1159.7998046421876L605.4999389859375,1157.9997558421876C605.6999511859375,1157.6997070421876,605.7999267859375,1157.4997558421876,605.8999633859376,1157.1997070421876L606.2999877859374,1156.2996826421875L606.7000121859375,1156.2996826421875L606.7999877859374,1156.3996582421876C606.9999999859375,1156.6997070421876,607.2000121859375,1156.8996582421876,607.2999877859374,1157.1997070421876C607.4999999859375,1157.4997558421876,607.5999755859375,1157.6997070421876,607.7000121859375,1157.9997558421876L608.9000243859375,1159.8000488421876Z" fill="#B4B4B4" fill-opacity="1" style="mix-blend-mode:passthrough"/></g></g></g></g><g><g><g><path d="M626.7999878,1160.1999515859375L624.0999756,1160.1999515859375L624.0999756,1148.7999267859375L625,1148.7999267859375L621.5999756,1155.3999023859376L628.2999878,1155.3999023859376L628.2999878,1157.8999025859375L618.5,1157.8999025859375L618.5,1156.1999511859376L623.0999756,1147.5999755859375L626.8999634,1147.5999755859375L626.8999634,1160.1999515859375L626.7999878,1160.1999515859375Z" fill="#B4B4B4" fill-opacity="1" style="mix-blend-mode:passthrough"/></g></g></g></g></g></g></svg>