<svg xmlns="http://www.w3.org/2000/svg" xmlns:xlink="http://www.w3.org/1999/xlink" fill="none" version="1.1" width="879.5" height="907.7999877929688" viewBox="0 0 879.5 907.7999877929688"><defs><clipPath id="master_svg0_2681_043650"><rect x="0" y="0" width="879.5" height="907.7999877929688" rx="0"/></clipPath></defs><g clip-path="url(#master_svg0_2681_043650)"><g><g><g><path d="M368.499951171875,898.0999755859375L368.499951171875,892.2999755859375C368.499951171875,891.8999755859375,368.700051171875,891.5999755859375,368.999951171875,891.3999755859375L373.799951171875,888.6999755859375L375.999951171875,887.3999755859375L375.999951171875,883.8999655859375C375.999951171875,883.0999755859375,375.600051171875,882.3999655859375,374.899951171875,881.9999355859375L365.199951171875,876.3999635859375C364.499951171875,875.9999385859375,363.699951171875,875.9999385859375,362.999951171875,876.3999635859375L353.299961171875,881.9999355859375C352.599945171875,882.3999655859375,352.199951171875,883.0999155859375,352.199951171875,883.8999655859375L352.199951171875,895.0999755859375C352.199951171875,895.8999755859375,352.599945171875,896.5999755859375,353.299961171875,896.9999755859375L362.999951171875,902.5999755859375C363.699951171875,902.9999755859375,364.499951171875,902.9999755859375,365.199951171875,902.5999755859375L368.499951171875,900.6999755859375L368.499951171875,898.0999755859375ZM365.200051171875,887.4999755859375C364.499951171875,887.8999755859375,364.100051171875,888.5999755859375,364.100051171875,889.3999755859375L364.100051171875,898.6999755859375C364.100051171875,899.4999755859375,363.200051171875,900.1000755859375,362.499951171875,899.6000755859375L355.000001171875,895.3000755859375C354.700011171875,895.1000755859375,354.500001171875,894.7000755859375,354.500001171875,894.3999755859375L354.500001171875,884.4000255859376C354.500001171875,883.9999955859375,354.700011171875,883.7000155859375,355.000001171875,883.4999955859375L363.600051171875,878.4999955859375C363.899951171875,878.2999855859375,364.399951171875,878.2999855859375,364.700051171875,878.4999955859375L371.100051171875,882.2000155859375C371.800051171875,882.6000355859375,371.800051171875,883.7000155859375,371.100051171875,884.1000355859375L365.200051171875,887.4999755859375Z" fill="#B4B4B4" fill-opacity="1" style="mix-blend-mode:passthrough"/></g><g><path d="M377.3999938964844,886.5000004414062L375.8999938964844,887.4000274414062L375.8999938964844,895.8000474414063C375.8999938964844,896.2000774414063,375.69998389648435,896.5000774414062,375.3999938964844,896.7000774414063L375.2999838964844,896.8000774414063L375.09997389648436,896.8999774414062L373.69998389648435,897.6999774414063L372.7999838964844,898.1999774414063L368.3999938964844,900.6999774414063L368.3999938964844,902.2999774414062L368.3999938964844,902.3999774414062C368.3999938964844,903.1999774414063,369.29998789648437,903.6999774414063,370.0000038964844,903.3999774414062L370.8999938964844,902.8999774414062L378.3999938964844,898.4999774414063C378.6999938964844,898.2998774414062,378.8999938964844,897.8999774414062,378.8999938964844,897.5998774414063L378.8999938964844,887.5999174414062C379.09999389648436,886.5999754414063,378.2000138964844,886.0999754414063,377.3999938964844,886.5000004414062Z" fill="#B4B4B4" fill-opacity="1" style="mix-blend-mode:passthrough"/></g></g><g><g><g><path d="M405.8999938964844,888L403.8999938964844,888C403.6000058964844,888,403.3999938964844,888.200012,403.3999938964844,888.5L403.3999938964844,896.09998C403.3999938964844,896.39996,403.6000058964844,896.59998,403.8999938964844,896.59998L405.8999938964844,896.59998C406.19998389648435,896.59998,406.3999938964844,896.39996,406.3999938964844,896.09998L406.3999938964844,888.5C406.5000038964844,888.200012,406.2000138964844,888,405.8999938964844,888Z" fill="#B4B4B4" fill-opacity="1" style="mix-blend-mode:passthrough"/></g><g><path d="M405.29998779296875,886.0999733789063L404.49999779296877,886.0999733789063C403.89999379296876,886.0999733789063,403.29998779296875,885.5999733789063,403.29998779296875,884.8999633789062L403.29998779296875,884.0999733789063C403.29998779296875,883.5000003789063,403.79998779296875,882.8999633789062,404.49999779296877,882.8999633789062L405.29998779296875,882.8999633789062C405.89999779296875,882.8999633789062,406.49999779296877,883.3999633789062,406.49999779296877,884.0999733789063L406.49999779296877,884.8999633789062C406.49999779296877,885.5999733789063,405.99999779296877,886.0999733789063,405.29998779296875,886.0999733789063Z" fill="#B4B4B4" fill-opacity="1" style="mix-blend-mode:passthrough"/></g></g><g><g><path d="M429,888L427,888C426.700012,888,426.5,888.200012,426.5,888.5L426.5,896.09998C426.5,896.39996,426.700012,896.59998,427,896.59998L429,896.59998C429.29999,896.59998,429.5,896.39996,429.5,896.09998L429.5,888.5C429.5,888.200012,429.29999,888,429,888Z" fill="#B4B4B4" fill-opacity="1" style="mix-blend-mode:passthrough"/></g><g><path d="M428.3999938964844,886.0999733789063L427.6000038964844,886.0999733789063C426.9999998964844,886.0999733789063,426.3999938964844,885.5999733789063,426.3999938964844,884.8999633789062L426.3999938964844,884.0999733789063C426.3999938964844,883.5000003789063,426.8999938964844,882.8999633789062,427.6000038964844,882.8999633789062L428.3999938964844,882.8999633789062C429.0000038964844,882.8999633789062,429.6000038964844,883.3999633789062,429.6000038964844,884.0999733789063L429.6000038964844,884.8999633789062C429.5000038964844,885.5999733789063,429.0000038964844,886.0999733789063,428.3999938964844,886.0999733789063Z" fill="#B4B4B4" fill-opacity="1" style="mix-blend-mode:passthrough"/></g></g><g><path d="M418.20001220703125,883L410.20001220703125,883C409.90002420703127,883,409.70001220703125,883.200012,409.70001220703125,883.5L409.70001220703125,885.5C409.70001220703125,885.79999,409.90002420703127,886,410.20001220703125,886L418.10000220703125,886C419.30002220703125,886,420.3000122070313,887,420.3000122070313,888.20001L420.3000122070313,889.79999L420.3000122070313,891.39996C420.3000122070313,892.59998,419.30002220703125,893.6,418.10000220703125,893.6L413.30002220703125,893.6C413.00003220703127,893.6,412.80002220703125,893.4,412.80002220703125,893.1L412.80002220703125,890.39996C412.80002220703125,890.09998,412.60000220703125,889.89996,412.30002220703125,889.89996L410.30001820703126,889.89996C410.0000302070313,889.89996,409.80001820703126,890.09998,409.80001820703126,890.39996L409.80001820703126,890.79999L409.80001820703126,896.1C409.80001820703126,896.4,410.0000302070313,896.6,410.30001820703126,896.6L418.20001220703125,896.6C421.00001220703126,896.6,423.3000122070313,894.3,423.3000122070313,891.5L423.3000122070313,889.79999L423.3000122070313,888.09998C423.3000122070313,885.29999,421.00001220703126,883,418.20001220703125,883Z" fill="#B4B4B4" fill-opacity="1" style="mix-blend-mode:passthrough"/></g><g><g><path d="M395.1000061035156,883L391.7000161035156,883C388.90002610351564,883,386.6000061035156,885.29999,386.6000061035156,888.09998L386.6000061035156,889.79999L386.6000061035156,891.5C386.6000061035156,894.3,388.8999961035156,896.6,391.7000161035156,896.6L392.90002610351564,896.6C393.2000161035156,896.6,393.40002610351564,896.4,393.40002610351564,896.1L393.40002610351564,894.1C393.40002610351564,893.8,393.2000161035156,893.6,392.90002610351564,893.6L391.90002610351564,893.6C390.7000161035156,893.6,389.7000161035156,892.59998,389.7000161035156,891.39996L389.7000161035156,889.79999L389.7000161035156,888.20001C389.7000161035156,887,390.7000161035156,886,391.90002610351564,886L395.0000261035156,886C396.2000461035156,886,397.20000610351565,887,397.20000610351565,888.20001L397.20000610351565,889.20001C397.20000610351565,889.5,397.40000610351564,889.70001,397.70000610351565,889.70001L399.70000610351565,889.70001C400.0000061035156,889.70001,400.20000610351565,889.5,400.20000610351565,889.20001L400.20000610351565,888.10004C400.3000061035156,885.29999,398.0000061035156,883,395.1000061035156,883Z" fill="#B4B4B4" fill-opacity="1" style="mix-blend-mode:passthrough"/></g><g><path d="M400.1000059277344,894.2999877929688L395.80001592773436,889.9999997929688C395.7000159277344,889.9000247929688,395.6000059277344,889.7999877929688,395.40002592773436,889.7999877929688L392.5000309277344,889.7999877929688C392.0000305277344,889.7999877929688,391.80001792773436,890.3999637929687,392.1000369277344,890.7000117929688L397.90002592773436,896.4999977929688C398.1000359277344,896.7000077929688,398.5000259277344,896.7000077929688,398.7000159277344,896.4999977929688L400.1000059277344,895.0999777929687C400.2999859277344,894.9000277929688,400.2999859277344,894.4999977929688,400.1000059277344,894.2999877929688Z" fill="#B4B4B4" fill-opacity="1" style="mix-blend-mode:passthrough"/></g></g></g><g><g><path d="M443.20001220703125,896.6999755859375L448.30002220703125,889.1000355859375L450.00003220703127,891.6000355859375L446.80002220703125,896.8000755859375L443.20001220703125,896.6999755859375ZM453.00000220703123,896.6999755859375L449.00000220703123,890.4999955859375L443.3999942070312,882.5999755859375L447.00000220703123,882.5999755859375L450.79999220703127,888.2999855859375L456.6000122070312,896.6999755859375L453.00000220703123,896.6999755859375ZM451.60000220703125,889.4999955859375L449.89999220703123,887.2000155859375L452.79999220703127,882.6000366211375L456.50001220703126,882.6000366211375L451.60000220703125,889.4999955859375Z" fill="#B4B4B4" fill-opacity="1" style="mix-blend-mode:passthrough"/></g><g><path d="M464.29998779296875,888L464.29998779296875,890.70001L456.79998779296875,890.70001L456.79998779296875,888L464.29998779296875,888Z" fill="#B4B4B4" fill-opacity="1" style="mix-blend-mode:passthrough"/></g><g><path d="M468.50000168945314,892.200008828125L468.50000168945314,889.499998828125L472.2999916894531,889.499998828125C473.0999716894531,889.499998828125,473.7999916894531,889.299988828125,474.1999816894531,888.999998828125C474.6999816894531,888.599978828125,474.89999168945315,888.099978828125,474.89999168945315,887.499998828125C474.89999168945315,886.900028828125,474.6999816894531,886.299988828125,474.1999816894531,885.999998828125C473.6999816894531,885.599978828125,473.0999716894531,885.499998828125,472.2999916894531,885.499998828125L470.1999816894531,885.499998828125L470.1999816894531,896.900048828125L467.1999816894531,896.900048828125L467.1999816894531,882.800048828125L472.7999916894531,882.800048828125C474.39999168945315,882.800048828125,475.6999816894531,883.200072828125,476.5999716894531,884.100038828125C477.49998168945314,884.900028828125,477.99998168945314,886.100038828125,477.99998168945314,887.600038828125C477.99998168945314,889.100038828125,477.5999816894531,890.300048828125,476.6999816894531,891.100038828125C475.7999916894531,891.900028828125,474.5999716894531,892.400028828125,472.9999716894531,892.400028828125L468.50000168945314,892.200008828125Z" fill="#B4B4B4" fill-opacity="1" style="mix-blend-mode:passthrough"/></g><g><path d="M480.6000061035156,894.2999755859375L480.6000061035156,882.5999755859375L483.4999961035156,882.5999755859375L483.4999961035156,893.3999755859375C483.4999961035156,893.5999755859375,483.4999961035156,893.7999755859375,483.7000161035156,893.8999755859375C483.80001610351565,893.9999755859375,483.9999961035156,894.0999755859375,484.2000161035156,894.0999755859375L484.7000161035156,894.0999755859375L484.7000161035156,896.8999755859375L483.30001610351565,896.8999755859375C482.40002610351564,896.8999755859375,481.80001610351565,896.6999755859375,481.30001810351564,896.2999755859375C480.8999941035156,895.6999755859375,480.6000061035156,895.0999755859375,480.6000061035156,894.2999755859375Z" fill="#B4B4B4" fill-opacity="1" style="mix-blend-mode:passthrough"/></g><g><path d="M496.50000168945314,886.0999756L496.50000168945314,896.8L493.6000016894531,896.8L493.6000016894531,895.39996L493.50000168945314,895.39996C493.2000116894531,895.89996,492.7999916894531,896.3,492.2999916894531,896.6C491.7999916894531,896.9,491.1999816894531,897,490.5999716894531,897C489.4999716894531,897,488.6999816894531,896.7,488.0999756894531,896C487.4999696894531,895.29999,487.1999816894531,894.29999,487.1999816894531,893.09998L487.1999816894531,886.0999756L490.0999716894531,886.0999756L490.0999716894531,892.5C490.0999716894531,893.09998,490.1999816894531,893.5,490.5999716894531,893.90002C490.8999616894531,894.20001,491.2999916894531,894.40002,491.7999916894531,894.40002C492.1999816894531,894.40002,492.50000168945314,894.30005,492.7999916894531,894.10004C493.0999716894531,893.90002,493.2999916894531,893.70001,493.50000168945314,893.40002C493.7000116894531,893.10004,493.7000116894531,892.70001,493.7000116894531,892.30005L493.7000116894531,886L496.50000168945314,886.0999756Z" fill="#B4B4B4" fill-opacity="1" style="mix-blend-mode:passthrough"/></g><g><path d="M503.6000044140625,896.9999877929688C502.5000044140625,896.9999877929688,501.5000044140625,896.7999877929688,500.7000144140625,896.2999877929688C499.9000244140625,895.7999877929688,499.3000184140625,895.2999877929688,498.9000244140625,894.4999977929688L501.0000344140625,892.9999977929688C501.3000144140625,893.4999977929688,501.7000444140625,893.9000277929688,502.1000344140625,894.2000077929688C502.5000344140625,894.4999977929688,503.0000344140625,894.6000377929688,503.5000344140625,894.6000377929688C504.0000344140625,894.6000377929688,504.3000144140625,894.5000577929687,504.6000344140625,894.4000277929688C504.8000444140625,894.2000077929688,505.0000344140625,893.9999977929688,505.0000344140625,893.8000477929687C505.0000344140625,893.6000977929688,504.9000244140625,893.3000477929687,504.6000344140625,893.1000377929688C504.3000444140625,892.9000277929688,503.9000244140625,892.8000477929687,503.3000444140625,892.6000377929688C502.0000644140625,892.3000477929687,501.0000644140625,891.9000277929688,500.3000444140625,891.3000477929687C499.6000364140625,890.8000477929687,499.3000484140625,890.0000577929687,499.3000484140625,889.1000377929688C499.3000484140625,888.1000377929688,499.7000424140625,887.3000477929687,500.5000644140625,886.7000117929688C501.3000444140625,886.1000367929687,502.3000444140625,885.7999877929688,503.6000644140625,885.7999877929688C504.6000644140625,885.7999877929688,505.4000544140625,885.9999997929688,506.2000744140625,886.3999637929687C507.0000944140625,886.7999267929688,507.5000644140625,887.3999677929687,507.8000744140625,888.0999777929687L505.7000744140625,889.5999777929687C505.5000644140625,889.1999477929687,505.2000744140625,888.7999877929688,504.8000744140625,888.5999777929687C504.5000944140625,888.3999677929687,504.1000644140625,888.2999877929688,503.7000744140625,888.2999877929688C503.3000744140625,888.2999877929688,503.0000644140625,888.3999677929687,502.7000744140625,888.4999977929688C502.5000644140625,888.7000077929688,502.4000844140625,888.9000277929688,502.4000844140625,889.2000077929688C502.4000844140625,889.4000277929688,502.5000944140625,889.7000077929688,502.9000844140625,889.9000277929688C503.2000744140625,890.1000377929688,503.7000744140625,890.3000477929687,504.5000944140625,890.4000277929688C505.7001044140625,890.7000077929688,506.6000944140625,891.1000377929688,507.2001044140625,891.6000377929688C507.8001144140625,892.1000377929688,508.2001044140625,892.8000477929687,508.2001044140625,893.7000077929688C508.2001044140625,894.4000277929688,508.0000944140625,894.9000277929688,507.6000944140625,895.4999977929688C507.2001044140625,895.9999877929688,506.7001044140625,896.3999877929688,506.0000944140625,896.6999877929687C505.2000144140625,896.8999877929688,504.3999944140625,896.9999877929688,503.6000044140625,896.9999877929688Z" fill="#B4B4B4" fill-opacity="1" style="mix-blend-mode:passthrough"/></g><g><path d="M525.5000022070312,896.7000122070312L522.5000022070312,896.7000122070312L522.5000022070312,884.0000022070312L523.5000022070312,884.0000022070312L519.7000122070312,891.4000222070313L527.2000122070312,891.4000222070313L527.2000122070312,894.2000122070312L516.2000122070312,894.2000122070312L516.2000122070312,892.2999922070312L521.2999922070312,882.7000122070312L525.5000022070312,882.7000122070312L525.5000022070312,896.7000122070312Z" fill="#B4B4B4" fill-opacity="1" style="mix-blend-mode:passthrough"/></g></g></g></g></svg>