<?xml version="1.0" encoding="utf-8"?>
<!-- Generator: Adobe Illustrator 28.0.0, SVG Export Plug-In . SVG Version: 6.00 Build 0)  -->
<svg version="1.1" id="图层_1" xmlns="http://www.w3.org/2000/svg" xmlns:xlink="http://www.w3.org/1999/xlink" x="0px" y="0px"
	 viewBox="0 0 54 33" style="enable-background:new 0 0 54 33;" xml:space="preserve">
<style type="text/css">
	.st0{fill:#EA4E38;}
	.st1{fill:#C041C2;}
	.st2{fill:#FFFFFF;}
</style>
<path class="st0" d="M4.6,0h40.7C47.9,0,50,2.1,50,4.6v20.7c0,2.6-2.1,4.6-4.6,4.6H4.6C2.1,30,0,27.9,0,25.4V4.6C0,2.1,2.1,0,4.6,0z
	"/>
<path class="st1" d="M0,19h50v6.4c0,2.6-2.1,4.6-4.6,4.6H4.6C2.1,30,0,27.9,0,25.4V19z"/>
<path class="st2" d="M16.1,5c0.6,0,1.2,0.1,1.7,0.4c0.5,0.3,0.9,0.6,1.2,1.1c0.3,0.4,0.4,0.9,0.4,1.5c0,0.6-0.1,1.1-0.4,1.5
	c-0.3,0.4-0.7,0.8-1.2,1c-0.5,0.2-1.1,0.4-1.7,0.4h-1.8v3.6h-1.2V5H16.1z M15.9,9.8c0.7,0,1.3-0.2,1.7-0.5c0.4-0.4,0.6-0.8,0.6-1.4
	s-0.2-1-0.6-1.4C17.2,6.2,16.6,6,15.9,6h-1.6v3.9H15.9z M20.8,5H22v8.5h4.7v1h-5.8V5z M31.8,5l3.8,9.5h-1.3l-1.1-2.7h-3.9l-1,2.7
	h-1.2L30.8,5H31.8z M32.9,10.7l-1.6-4.2l-1.5,4.2H32.9z"/>
<g>
	<path class="st2" d="M18.7,22.9v-1l2-1.2h0.8v6.8h-1v-5.7L18.7,22.9z"/>
	<path class="st2" d="M26.8,20.8l2.7,6.8h-1.1l-0.7-1.8h-2.8l-0.7,1.8h-1l2.6-6.8H26.8z M27.4,24.9L26.3,22l-1,2.8H27.4z"/>
</g>
</svg>
