<?xml version="1.0" encoding="utf-8"?>
<!-- Generator: Adobe Illustrator 28.0.0, SVG Export Plug-In . SVG Version: 6.00 Build 0)  -->
<svg version="1.1" id="图层_1" xmlns="http://www.w3.org/2000/svg" xmlns:xlink="http://www.w3.org/1999/xlink" x="0px" y="0px"
	 viewBox="0 0 289 95" style="enable-background:new 0 0 289 95;" xml:space="preserve">
<style type="text/css">
	.st0{fill:url(#SVGID_1_);}
	.st1{fill:#FFFFFF;}
	.st2{fill:url(#SVGID_00000147203374837710995570000013885887503513971337_);}
	.st3{fill:#C041C2;}
	.st4{fill:#CECECE;}
	.st5{fill:#6B6B6B;}
	.st6{fill:#FFE27A;}
	.st7{fill:#323A3D;}
	.st8{fill:none;stroke:#CECECE;stroke-width:0.8163;}
</style>
<g>
	
		<linearGradient id="SVGID_1_" gradientUnits="userSpaceOnUse" x1="32.9152" y1="91.8908" x2="32.9152" y2="79.0457" gradientTransform="matrix(1 0 0 -1 0 95.8898)">
		<stop  offset="0" style="stop-color:#F8F8F8"/>
		<stop  offset="1" style="stop-color:#F1F1F1"/>
	</linearGradient>
	<path class="st0" d="M32.9,4l7.1,9.6H25.8L32.9,4z"/>
	<path class="st1" d="M9,9.1h271.8c2.3,0,4.1,1.8,4.1,4.1v73.3c0,2.3-1.8,4.1-4.1,4.1H9c-2.3,0-4.1-1.8-4.1-4.1V13.2
		C4.9,10.9,6.7,9.1,9,9.1z"/>
	
		<linearGradient id="SVGID_00000182510674739560889670000015905901942544502705_" gradientUnits="userSpaceOnUse" x1="144.8794" y1="86.9929" x2="144.8794" y2="62.5031" gradientTransform="matrix(1 0 0 -1 0 95.8898)">
		<stop  offset="0" style="stop-color:#F8F8F8"/>
		<stop  offset="1" style="stop-color:#F1F1F1"/>
	</linearGradient>
	<path style="fill:url(#SVGID_00000182510674739560889670000015905901942544502705_);" d="M4.9,13c0-2.3,1.8-4.1,4.1-4.1h271.8
		c2.3,0,4.1,1.8,4.1,4.1v20.4H4.9V13z"/>
	<path class="st3" d="M26.9,57.1H71c2.3,0,4.1,1.8,4.1,4.1v8.2c0,2.3-1.8,4.1-4.1,4.1H26.9c-2.3,0-4.1-1.8-4.1-4.1v-8.2
		C22.8,58.9,24.7,57.1,26.9,57.1z"/>
	<path class="st1" d="M42.2,62.2c0.5,0,0.9,0.1,1.3,0.3c0.4,0.2,0.7,0.5,0.9,0.8c0.2,0.3,0.3,0.7,0.3,1.1c0,0.4-0.1,0.8-0.3,1.2
		c-0.2,0.3-0.5,0.6-0.9,0.8c-0.4,0.2-0.8,0.3-1.3,0.3h-1.3v2.7H40v-7.2H42.2z M42.1,65.8c0.5,0,1-0.1,1.3-0.4c0.3-0.3,0.4-0.6,0.4-1
		c0-0.4-0.1-0.8-0.4-1c-0.3-0.3-0.7-0.4-1.3-0.4h-1.2v2.9H42.1z M45.8,62.2h0.9v6.4h3.5v0.8h-4.4V62.2z M54.1,62.2l2.9,7.2h-1
		l-0.8-2.1h-3l-0.8,2.1h-0.9l2.8-7.2H54.1z M54.9,66.5l-1.2-3.2l-1.2,3.2H54.9z"/>
	<path class="st4" d="M90.6,57.1h44.1c2.3,0,4.1,1.8,4.1,4.1v8.2c0,2.3-1.8,4.1-4.1,4.1H90.6c-2.3,0-4.1-1.8-4.1-4.1v-8.2
		C86.5,58.9,88.3,57.1,90.6,57.1z"/>
	<path class="st5" d="M108.5,63.3c0.2-0.5,0.4-0.8,0.8-1.1c0.4-0.3,0.9-0.4,1.4-0.4c0.4,0,0.7,0.1,1,0.2c0.3,0.1,0.5,0.3,0.7,0.6
		c0.2,0.3,0.2,0.5,0.2,0.9c0,0.3-0.1,0.6-0.2,0.8c-0.2,0.2-0.4,0.5-0.7,0.7c-0.2,0.2-0.4,0.4-0.5,0.5c-0.1,0.1-0.2,0.3-0.3,0.5
		c-0.1,0.2-0.1,0.4-0.1,0.7c0,0.2,0,0.4,0.1,0.6h-0.7c-0.1-0.3-0.1-0.6-0.1-0.8c0-0.3,0-0.5,0.1-0.7c0.1-0.2,0.2-0.4,0.3-0.5
		c0.1-0.1,0.3-0.3,0.5-0.5c0.3-0.2,0.4-0.4,0.6-0.6c0.1-0.2,0.2-0.4,0.2-0.6c0-0.3-0.1-0.5-0.3-0.7c-0.2-0.2-0.5-0.3-0.8-0.3
		c-0.7,0-1.2,0.4-1.5,1.1L108.5,63.3z M110.6,69.4c-0.1,0-0.3-0.1-0.4-0.2c-0.1-0.1-0.2-0.2-0.2-0.4c0-0.2,0.1-0.3,0.2-0.4
		c0.1-0.1,0.2-0.2,0.4-0.2c0.2,0,0.3,0.1,0.4,0.2c0.1,0.1,0.2,0.2,0.2,0.4c0,0.2-0.1,0.3-0.2,0.4C110.9,69.4,110.8,69.4,110.6,69.4z
		"/>
	<path class="st4" d="M154.3,57.1h44.1c2.3,0,4.1,1.8,4.1,4.1v8.2c0,2.3-1.8,4.1-4.1,4.1h-44.1c-2.3,0-4.1-1.8-4.1-4.1v-8.2
		C150.2,58.9,152,57.1,154.3,57.1z"/>
	<path class="st5" d="M174.5,65.9v-0.7h3.6v0.7H174.5z"/>
	<path class="st6" d="M217.9,57.1H262c2.3,0,4.1,1.8,4.1,4.1v8.2c0,2.3-1.8,4.1-4.1,4.1h-44.1c-2.3,0-4.1-1.8-4.1-4.1v-8.2
		C213.9,58.9,215.7,57.1,217.9,57.1z"/>
	<path class="st5" d="M233.2,62.2c0.5,0,0.9,0.1,1.3,0.3c0.4,0.2,0.7,0.5,0.9,0.8c0.2,0.3,0.3,0.7,0.3,1.1c0,0.4-0.1,0.8-0.3,1.2
		c-0.2,0.3-0.5,0.6-0.9,0.8c-0.4,0.2-0.8,0.3-1.3,0.3h-1.3v2.7H231v-7.2H233.2z M233.1,65.8c0.5,0,1-0.1,1.3-0.4
		c0.3-0.3,0.4-0.6,0.4-1c0-0.4-0.1-0.8-0.4-1c-0.3-0.3-0.7-0.4-1.3-0.4h-1.2v2.9H233.1z M236.9,62.2h0.9v6.4h3.5v0.8h-4.4V62.2z
		 M245.1,62.2l2.9,7.2h-1l-0.8-2.1h-3l-0.8,2.1h-0.9l2.8-7.2H245.1z M245.9,66.5l-1.2-3.2l-1.2,3.2H245.9z"/>
	<path class="st7" d="M117.1,16.7l3.1,7.8h-1.6l-0.7-1.8h-3l-0.7,1.8h-1.5l3-7.8H117.1z M117.4,21.3l-1-2.7l-1,2.7H117.4z
		 M127.6,16.7h1.2v7.8h-1.5v-5l-2,2.9h-0.8l-2-3v5h-1.5v-7.8h1.2l2.7,4L127.6,16.7z M135.7,22.2c0,0.5-0.1,1-0.4,1.3
		c-0.3,0.4-0.6,0.6-1.1,0.8c-0.4,0.2-0.9,0.3-1.4,0.3c-0.7,0-1.4-0.2-2-0.5c-0.6-0.3-1-0.8-1.2-1.4l1.3-0.7c0.2,0.4,0.4,0.7,0.7,0.9
		c0.3,0.2,0.7,0.3,1.2,0.3c0.4,0,0.7-0.1,0.9-0.2c0.2-0.1,0.3-0.4,0.3-0.6c0-0.2-0.1-0.4-0.2-0.6c-0.1-0.1-0.3-0.3-0.5-0.4
		c-0.2-0.1-0.5-0.2-0.9-0.3c-0.5-0.1-0.9-0.3-1.2-0.4c-0.3-0.1-0.6-0.4-0.8-0.7c-0.2-0.3-0.3-0.7-0.3-1.1c0-0.5,0.1-0.9,0.4-1.3
		c0.3-0.4,0.6-0.6,1.1-0.8c0.4-0.2,0.9-0.3,1.4-0.3c0.7,0,1.3,0.2,1.8,0.5c0.5,0.3,0.8,0.7,0.9,1.3l-1.3,0.7
		c-0.1-0.3-0.3-0.6-0.6-0.8c-0.3-0.2-0.6-0.3-1-0.3c-0.3,0-0.6,0.1-0.8,0.2c-0.2,0.2-0.3,0.4-0.3,0.6c0,0.2,0.1,0.4,0.2,0.5
		c0.1,0.1,0.3,0.2,0.5,0.3c0.2,0.1,0.5,0.2,0.8,0.3c0.5,0.1,0.9,0.3,1.3,0.5c0.3,0.1,0.6,0.4,0.8,0.7
		C135.6,21.3,135.7,21.7,135.7,22.2z M144.8,22.2c0,0.5-0.1,1-0.4,1.3c-0.3,0.4-0.6,0.6-1.1,0.8c-0.4,0.2-0.9,0.3-1.4,0.3
		c-0.7,0-1.4-0.2-2-0.5c-0.6-0.3-1-0.8-1.2-1.4l1.3-0.7c0.2,0.4,0.4,0.7,0.7,0.9c0.3,0.2,0.7,0.3,1.2,0.3c0.4,0,0.7-0.1,0.9-0.2
		c0.2-0.1,0.3-0.4,0.3-0.6c0-0.2-0.1-0.4-0.2-0.6c-0.1-0.1-0.3-0.3-0.5-0.4c-0.2-0.1-0.5-0.2-0.9-0.3c-0.5-0.1-0.9-0.3-1.2-0.4
		c-0.3-0.1-0.6-0.4-0.8-0.7c-0.2-0.3-0.3-0.7-0.3-1.1c0-0.5,0.1-0.9,0.4-1.3c0.3-0.4,0.6-0.6,1.1-0.8c0.4-0.2,0.9-0.3,1.4-0.3
		c0.7,0,1.3,0.2,1.8,0.5c0.5,0.3,0.8,0.7,0.9,1.3l-1.3,0.7c-0.1-0.3-0.3-0.6-0.6-0.8c-0.3-0.2-0.6-0.3-1-0.3c-0.3,0-0.6,0.1-0.8,0.2
		c-0.2,0.2-0.3,0.4-0.3,0.6c0,0.2,0.1,0.4,0.2,0.5c0.1,0.1,0.3,0.2,0.5,0.3c0.2,0.1,0.5,0.2,0.8,0.3c0.5,0.1,0.9,0.3,1.3,0.5
		c0.3,0.1,0.6,0.4,0.8,0.7C144.7,21.3,144.8,21.7,144.8,22.2z M147.2,24.4h-1.5v-8.1h1.5V24.4z M148.3,21.7c0-0.6,0.1-1.1,0.4-1.5
		c0.3-0.4,0.6-0.8,1-1c0.4-0.2,0.9-0.4,1.4-0.4c0.5,0,1,0.1,1.4,0.4c0.4,0.2,0.8,0.6,1,1c0.3,0.4,0.4,0.9,0.4,1.5
		c0,0.6-0.1,1.1-0.4,1.5c-0.3,0.4-0.6,0.8-1,1c-0.4,0.2-0.9,0.4-1.4,0.4c-0.5,0-1-0.1-1.4-0.4c-0.4-0.2-0.8-0.6-1-1
		C148.4,22.8,148.3,22.3,148.3,21.7z M149.8,21.7c0,0.5,0.1,0.9,0.4,1.2c0.2,0.3,0.6,0.4,0.9,0.4c0.4,0,0.7-0.1,0.9-0.4
		c0.2-0.3,0.4-0.7,0.4-1.2c0-0.5-0.1-0.9-0.4-1.2c-0.2-0.3-0.5-0.4-0.9-0.4c-0.4,0-0.7,0.1-0.9,0.4
		C149.9,20.8,149.8,21.2,149.8,21.7z M158.7,24.1c-0.4,0.3-0.9,0.4-1.5,0.4c-0.6,0-1.1-0.2-1.4-0.5c-0.4-0.3-0.5-0.9-0.5-1.7v-2.2
		h-1v-1.2h1v-1.7h1.5v1.7h1.7v1.2h-1.7v2c0,0.4,0.1,0.6,0.2,0.8c0.1,0.2,0.3,0.3,0.6,0.3c0.2,0,0.5-0.1,0.7-0.2L158.7,24.1z
		 M163.4,22.8c0,0.5-0.2,1-0.6,1.3c-0.4,0.3-1,0.5-1.6,0.5c-0.6,0-1.1-0.1-1.5-0.4c-0.4-0.2-0.7-0.6-0.8-1l1.1-0.6
		c0.1,0.3,0.3,0.5,0.5,0.6c0.2,0.1,0.5,0.2,0.8,0.2c0.2,0,0.4,0,0.5-0.1c0.1-0.1,0.2-0.2,0.2-0.4c0-0.2-0.1-0.3-0.3-0.4
		c-0.2-0.1-0.5-0.2-0.8-0.3c-0.4-0.1-0.7-0.2-0.9-0.3c-0.2-0.1-0.4-0.3-0.6-0.5c-0.2-0.2-0.3-0.5-0.3-0.8c0-0.4,0.1-0.7,0.3-1
		c0.2-0.3,0.5-0.5,0.8-0.6c0.3-0.1,0.7-0.2,1.1-0.2c0.6,0,1,0.1,1.4,0.4c0.4,0.2,0.6,0.5,0.7,0.9l-1.1,0.6c-0.2-0.5-0.6-0.7-1.1-0.7
		c-0.2,0-0.4,0-0.5,0.1c-0.1,0.1-0.2,0.2-0.2,0.3c0,0.2,0.1,0.3,0.3,0.4c0.2,0.1,0.4,0.2,0.8,0.3c0.4,0.1,0.7,0.2,0.9,0.3
		c0.2,0.1,0.5,0.3,0.6,0.5C163.4,22.2,163.4,22.4,163.4,22.8z"/>
	<line class="st8" x1="5.7" y1="33" x2="284.9" y2="33"/>
</g>
<g>
	<path class="st5" d="M44,49.6v-0.9l2.1-1.2h0.7v7.2h-0.9v-6.1L44,49.6z"/>
	<path class="st5" d="M52.1,47.4l2.9,7.2h-1l-0.8-2.1h-3l-0.8,2.1h-0.9l2.8-7.2H52.1z M53,51.8l-1.2-3.2l-1.2,3.2H53z"/>
</g>
<g>
	<g>
		<path class="st5" d="M105.5,49.6v-0.9l2.1-1.2h0.7v7.2h-0.9v-6.1L105.5,49.6z"/>
		<path class="st5" d="M116.2,52.6c0,0.6-0.2,1.1-0.7,1.5s-1.1,0.5-1.9,0.5H111v-7.2h2.3c0.5,0,0.9,0.1,1.3,0.2
			c0.4,0.2,0.7,0.4,0.9,0.7c0.2,0.3,0.3,0.6,0.3,1c0,0.7-0.3,1.2-0.9,1.5C115.7,51.1,116.2,51.7,116.2,52.6z M111.9,48.2v2.4h1.2
			c0.5,0,1-0.1,1.3-0.3c0.3-0.2,0.4-0.5,0.4-0.9c0-0.4-0.2-0.6-0.5-0.9c-0.3-0.2-0.7-0.3-1.3-0.3H111.9z M113.4,53.9
			c0.6,0,1.1-0.1,1.4-0.3s0.5-0.5,0.5-0.9c0-0.4-0.2-0.7-0.5-1c-0.3-0.2-0.8-0.3-1.4-0.3h-1.5v2.6H113.4z"/>
	</g>
</g>
<g>
	<path class="st5" d="M171.6,49.6v-0.9l2.1-1.2h0.7v7.2h-0.9v-6.1L171.6,49.6z"/>
	<path class="st5" d="M181.6,52.9l0.7,0.4c-0.2,0.5-0.5,0.8-0.9,1.1c-0.4,0.3-0.9,0.4-1.5,0.4c-0.6,0-1.2-0.2-1.7-0.5
		c-0.5-0.3-0.9-0.8-1.2-1.3c-0.3-0.6-0.4-1.2-0.4-1.9c0-0.7,0.1-1.4,0.4-1.9c0.3-0.6,0.7-1,1.2-1.3c0.5-0.3,1-0.5,1.7-0.5
		c0.6,0,1,0.1,1.5,0.4c0.4,0.3,0.7,0.6,0.9,1.1l-0.7,0.4c-0.4-0.7-0.9-1.1-1.7-1.1c-0.5,0-0.9,0.1-1.2,0.4c-0.4,0.2-0.6,0.6-0.8,1
		c-0.2,0.4-0.3,0.9-0.3,1.5c0,0.6,0.1,1.1,0.3,1.5c0.2,0.4,0.5,0.8,0.8,1c0.4,0.2,0.8,0.4,1.2,0.4C180.7,53.9,181.3,53.6,181.6,52.9
		z"/>
</g>
<g>
	<path class="st5" d="M233.6,49.6v-0.9l2.1-1.2h0.7v7.2h-0.9v-6.1L233.6,49.6z"/>
	<path class="st5" d="M241,47.5c0.7,0,1.3,0.1,1.9,0.4c0.6,0.3,1,0.7,1.3,1.2c0.3,0.5,0.5,1.2,0.5,1.9c0,0.8-0.2,1.4-0.5,1.9
		c-0.3,0.5-0.8,1-1.3,1.2c-0.6,0.3-1.2,0.4-1.9,0.4h-2v-7.2H241z M240.9,53.9c0.9,0,1.6-0.2,2.1-0.7s0.8-1.2,0.8-2.1
		c0-0.9-0.3-1.6-0.8-2.1c-0.5-0.5-1.2-0.7-2.1-0.7h-1v5.6H240.9z"/>
</g>
</svg>
