<svg width="22" height="22" viewBox="0 0 22 22" fill="none" xmlns="http://www.w3.org/2000/svg">
<path d="M18.2709 12.4305C18.2804 12.2668 18.3521 12.1129 18.4714 12.0003C18.5906 11.8877 18.7484 11.825 18.9124 11.825C19.0764 11.825 19.2342 11.8877 19.3535 12.0003C19.4727 12.1129 19.5444 12.2668 19.5539 12.4305V17.1554C19.5536 17.7935 19.3 18.4054 18.8488 18.8566C18.3976 19.3078 17.7857 19.5614 17.1475 19.5617H4.84277C4.20484 19.5611 3.59322 19.3074 3.14223 18.8562C2.69125 18.405 2.43778 17.7933 2.4375 17.1554V4.85058C2.43778 4.21312 2.69099 3.60182 3.14154 3.15087C3.59209 2.69992 4.20317 2.44616 4.84063 2.44531H10.1631C10.3335 2.44531 10.4969 2.51301 10.6174 2.63351C10.7379 2.75401 10.8056 2.91745 10.8056 3.08786C10.8056 3.25827 10.7379 3.42171 10.6174 3.54221C10.4969 3.66271 10.3335 3.73041 10.1631 3.73041H4.84063C4.54334 3.73097 4.25843 3.84947 4.04841 4.05988C3.8384 4.2703 3.72045 4.55544 3.72045 4.85272V17.1564C3.72045 17.7765 4.22378 18.2787 4.84384 18.2798H17.1475C17.7676 18.2798 18.2699 17.7765 18.2709 17.1564V12.4305ZM9.12427 11.9111L8.78801 13.7906L10.6332 13.4286L17.9122 6.1496L16.399 4.6364L9.12427 11.9111ZM8.07478 11.1454L15.6429 3.57727C15.7423 3.47789 15.8602 3.39906 15.99 3.34528C16.1199 3.29149 16.259 3.26381 16.3995 3.26381C16.54 3.26381 16.6792 3.29149 16.809 3.34528C16.9388 3.39906 17.0568 3.47789 17.1561 3.57727L18.9713 5.39246C19.0707 5.49181 19.1495 5.60976 19.2033 5.73958C19.2571 5.8694 19.2848 6.00854 19.2848 6.14906C19.2848 6.28958 19.2571 6.42872 19.2033 6.55854C19.1495 6.68836 19.0707 6.80631 18.9713 6.90566L11.4021 14.4738C11.3121 14.5641 11.1973 14.6256 11.0723 14.6505L8.11333 15.2299C8.01105 15.2497 7.90548 15.2443 7.80573 15.2142C7.70598 15.1842 7.61504 15.1303 7.54074 15.0573C7.46644 14.9842 7.41101 14.8942 7.37924 14.795C7.34746 14.6958 7.34029 14.5903 7.35834 14.4877L7.89594 11.487C7.91887 11.3576 7.98092 11.2384 8.07371 11.1454H8.07478Z" fill="white"/>
</svg>
