<svg width="88" height="99" viewBox="0 0 88 99" fill="none" xmlns="http://www.w3.org/2000/svg">
<path d="M43.5 20.4141V97.8711L0.5 87.1211V11.1299L43.5 20.4141Z" stroke="#C4C4C4"/>
<path d="M0.5 11.0117L40.5 0.511719L87.5 9.01172" stroke="#C4C4C4"/>
<path d="M43.5 20.3994V97.8467L87.5 85.1348V9.15527L43.5 20.3994Z" stroke="#C4C4C4"/>
<path d="M33.5 45.9453V61.9346L27.5 61.0771V45.0879L33.5 45.9453Z" stroke="#C4C4C4"/>
<ellipse cx="55.4626" cy="57.9388" rx="9" ry="13.5" transform="rotate(6.46166 55.4626 57.9388)" fill="#F8F8F8" stroke="#92CAFF"/>
<path d="M63 45.0118H62.9653C58.8054 45.0276 53.628 50.7401 53.0318 58.0099C52.52 64.2503 54.8164 70.7558 58.1099 71.4566C58.2427 71.4696 58.3727 71.4875 58.5 71.5117C58.3685 71.5024 58.2384 71.4839 58.1099 71.4566C56.3002 71.2784 53.9712 71.9877 51 69.5117C47.8107 66.854 47 62.9443 47 59.0117C46.9999 51.4947 51.5 45.0118 56 45.0118H62.9653C62.9769 45.0117 62.9884 45.0117 63 45.0118Z" fill="#4479FB"/>
<ellipse cx="61.9626" cy="58.9388" rx="9" ry="13.5" transform="rotate(6.46166 61.9626 58.9388)" fill="#F8F8F8" stroke="#92CAFF"/>
<path d="M63.3598 53.3451C64.2295 53.4727 64.9793 54.1674 65.4611 55.2837C65.9409 56.395 66.1307 57.8799 65.8974 59.4713C65.6641 61.0628 65.0559 62.4316 64.2774 63.3585C63.4954 64.2893 62.5778 64.7387 61.7081 64.6114C60.8383 64.4838 60.0876 63.79 59.6056 62.6736C59.1259 61.5622 58.9362 60.0765 59.1695 58.485C59.4029 56.8937 60.0109 55.5256 60.7894 54.5988C61.5715 53.6676 62.4899 53.2175 63.3598 53.3451Z" stroke="#92CAFF" stroke-width="0.6"/>
<path d="M61.9926 54.9726C62.5521 55.0547 63.0553 55.5217 63.383 56.3214C63.7077 57.114 63.8337 58.1823 63.665 59.3326C63.4963 60.4827 63.0692 61.4692 62.5307 62.1352C61.9873 62.8073 61.3712 63.1101 60.8117 63.0281C60.2522 62.9461 59.749 62.4791 59.4213 61.6794C59.0966 60.8869 58.9706 59.8193 59.1392 58.6691C59.3078 57.5188 59.735 56.5316 60.2736 55.8656C60.8171 55.1936 61.4331 54.8906 61.9926 54.9726Z" stroke="#92CAFF" stroke-width="0.6"/>
<path d="M42.587 54.5117L36.5 52.9156V49.5117L42.587 51.2137H46.5V54.5117H42.587Z" stroke="#C4C4C4"/>
</svg>
