<svg width="19" height="19" viewBox="0 0 19 19" fill="none" xmlns="http://www.w3.org/2000/svg">
<path d="M14.5911 15.775C14.5911 16.0783 14.4706 16.3693 14.2561 16.5838C14.0416 16.7982 13.7507 16.9187 13.4473 16.9187H5.21607C4.91298 16.9179 4.62254 16.7972 4.40823 16.5828C4.19391 16.3685 4.07314 16.0781 4.07232 15.775V3.64687H14.5911V15.775ZM6.3567 1.59687C6.35628 1.56598 6.36205 1.53531 6.37368 1.50669C6.38531 1.47806 6.40256 1.45206 6.42441 1.43021C6.44625 1.40836 6.47226 1.39111 6.50088 1.37948C6.52951 1.36785 6.56018 1.36208 6.59107 1.3625H12.0848C12.1157 1.36208 12.1464 1.36785 12.175 1.37948C12.2036 1.39111 12.2296 1.40836 12.2515 1.43021C12.2733 1.45206 12.2906 1.47806 12.3022 1.50669C12.3138 1.53531 12.3196 1.56598 12.3192 1.59687V2.27187H6.3567V1.59687ZM18.0192 2.27187H13.6817V1.59687C13.6817 1.17336 13.5135 0.767186 13.214 0.467714C12.9145 0.168242 12.5083 0 12.0848 0H6.59107C6.16806 0.00164598 5.76284 0.170416 5.46373 0.469532C5.16461 0.768648 4.99584 1.17386 4.9942 1.59687V2.27187H0.644195C0.469463 2.28365 0.30573 2.36136 0.186131 2.48929C0.0665319 2.61722 0 2.78581 0 2.96094C0 3.13607 0.0665319 3.30465 0.186131 3.43258C0.30573 3.56051 0.469463 3.63823 0.644195 3.65H2.69732V15.775C2.69732 16.1058 2.76247 16.4333 2.88905 16.7389C3.01563 17.0445 3.20116 17.3221 3.43505 17.556C3.66893 17.7899 3.9466 17.9754 4.25219 18.102C4.55778 18.2286 4.8853 18.2937 5.21607 18.2937H13.4473C13.7781 18.2937 14.1056 18.2286 14.4112 18.102C14.7168 17.9754 14.9945 17.7899 15.2283 17.556C15.4622 17.3221 15.6478 17.0445 15.7743 16.7389C15.9009 16.4333 15.9661 16.1058 15.9661 15.775V3.64687H18.0192C18.2015 3.64687 18.3764 3.57444 18.5053 3.44551C18.6343 3.31658 18.7067 3.14171 18.7067 2.95937C18.7084 2.86862 18.6918 2.77846 18.6578 2.69429C18.6239 2.61011 18.5733 2.53364 18.5091 2.46946C18.4449 2.40528 18.3685 2.3547 18.2843 2.32075C18.2001 2.2868 18.1099 2.27018 18.0192 2.27187ZM9.3317 14.8531C9.42224 14.8531 9.5119 14.8352 9.59551 14.8005C9.67913 14.7657 9.75506 14.7148 9.81894 14.6507C9.88282 14.5865 9.9334 14.5103 9.96776 14.4266C10.0021 14.3428 10.0196 14.253 10.0192 14.1625V6.84062C10.0192 6.65829 9.94676 6.48342 9.81783 6.35449C9.6889 6.22556 9.51403 6.15312 9.3317 6.15312C9.14936 6.15312 8.97449 6.22556 8.84556 6.35449C8.71663 6.48342 8.6442 6.65829 8.6442 6.84062V14.1625C8.64378 14.253 8.66126 14.3428 8.69563 14.4266C8.72999 14.5103 8.78057 14.5865 8.84445 14.6507C8.90833 14.7148 8.98426 14.7657 9.06788 14.8005C9.15149 14.8352 9.24115 14.8531 9.3317 14.8531ZM6.12232 14.8531C6.30549 14.8531 6.48115 14.7804 6.61067 14.6508C6.74018 14.5213 6.81295 14.3457 6.81295 14.1625V6.84062C6.81931 6.74623 6.8062 6.65154 6.77446 6.56242C6.74271 6.4733 6.69299 6.39166 6.62838 6.32255C6.56377 6.25344 6.48565 6.19834 6.39887 6.16068C6.31209 6.12301 6.21849 6.10357 6.12388 6.10357C6.02928 6.10357 5.93568 6.12301 5.8489 6.16068C5.76212 6.19834 5.684 6.25344 5.61939 6.32255C5.55478 6.39166 5.50506 6.4733 5.47331 6.56242C5.44156 6.65154 5.42846 6.74623 5.43482 6.84062V14.1625C5.43953 14.3436 5.51337 14.5161 5.64122 14.6445C5.76906 14.773 5.9412 14.8476 6.12232 14.8531ZM12.5411 14.8531C12.7237 14.8523 12.8986 14.7792 13.0274 14.6497C13.1562 14.5203 13.2286 14.3451 13.2286 14.1625V6.84062C13.2349 6.74623 13.2218 6.65154 13.1901 6.56242C13.1583 6.4733 13.1086 6.39166 13.044 6.32255C12.9794 6.25344 12.9013 6.19834 12.8145 6.16068C12.7277 6.12301 12.6341 6.10357 12.5395 6.10357C12.4449 6.10357 12.3513 6.12301 12.2645 6.16068C12.1777 6.19834 12.0996 6.25344 12.035 6.32255C11.9704 6.39166 11.9207 6.4733 11.8889 6.56242C11.8572 6.65154 11.8441 6.74623 11.8504 6.84062V14.1625C11.8504 14.3457 11.9232 14.5213 12.0527 14.6508C12.1822 14.7804 12.3579 14.8531 12.5411 14.8531Z" fill="white"/>
</svg>
