<svg width="16" height="16" viewBox="0 0 16 16" fill="none" xmlns="http://www.w3.org/2000/svg">
<path d="M15.1047 10.6684H13.3684V15.1044C13.3684 15.3419 13.2741 15.5696 13.1063 15.7375C12.9384 15.9055 12.7108 15.9999 12.4733 16H3.52689C3.40922 16.0002 3.29266 15.9772 3.1839 15.9323C3.07514 15.8874 2.97632 15.8214 2.89311 15.7382C2.80991 15.655 2.74395 15.5562 2.69903 15.4474C2.6541 15.3387 2.6311 15.2221 2.63133 15.1044V10.6684H0.895555C0.777949 10.6684 0.661495 10.6453 0.552841 10.6003C0.444187 10.5553 0.345462 10.4893 0.262302 10.4061C0.179142 10.323 0.113176 10.2243 0.0681701 10.1156C0.0231642 10.0069 -2.56488e-09 9.89049 0 9.77289V4.04733C-1.24893e-08 3.80986 0.0943223 3.5821 0.262223 3.41416C0.430125 3.24622 0.657856 3.15184 0.895333 3.15178H2.63156V0.895555C2.63156 0.658116 2.72585 0.430396 2.8937 0.262459C3.06155 0.0945227 3.28923 0.000117833 3.52667 0H12.4729C12.5905 -2.56488e-09 12.7069 0.0231642 12.8156 0.0681701C12.9243 0.113176 13.023 0.179142 13.1061 0.262302C13.1893 0.345462 13.2553 0.444187 13.3003 0.552841C13.3453 0.661495 13.3684 0.777949 13.3684 0.895555V3.15044H15.1044C15.2221 3.15021 15.3387 3.17321 15.4474 3.21814C15.5562 3.26306 15.655 3.32902 15.7382 3.41222C15.8214 3.49543 15.8874 3.59425 15.9323 3.70301C15.9772 3.81177 16.0002 3.92833 16 4.046V9.77155C16 10.009 15.9057 10.2368 15.7378 10.4047C15.5699 10.5727 15.3421 10.6671 15.1047 10.6671V10.6684ZM3.70933 14.57C3.70933 14.768 3.86978 14.9284 4.06778 14.9284H11.9418C12.1396 14.9284 12.3002 14.768 12.3002 14.57V8.84444C12.3002 8.64667 12.1398 8.486 11.9418 8.486H4.06778C3.87 8.486 3.70933 8.64644 3.70933 8.84444V14.57ZM12.2947 1.43133C12.2947 1.23356 12.1342 1.07289 11.9362 1.07289H4.06244C3.86444 1.07289 3.704 1.23333 3.704 1.43133V3.15044H12.2893L12.2947 1.43133ZM14.9249 4.58178C14.9249 4.38378 14.7642 4.22333 14.5664 4.22333H1.43333C1.23556 4.22333 1.07489 4.38378 1.07489 4.58178V9.24267C1.07489 9.44044 1.23556 9.60111 1.43333 9.60111H2.63267V8.31289C2.63273 8.07543 2.72707 7.84771 2.89495 7.67978C3.06284 7.51185 3.29054 7.41745 3.528 7.41733H12.4744C12.7119 7.41739 12.9397 7.51177 13.1076 7.67971C13.2755 7.84766 13.3698 8.07541 13.3698 8.31289V9.60111H14.5689C14.7667 9.60111 14.9273 9.44067 14.9273 9.24267L14.9247 4.58178H14.9249Z" fill="white"/>
</svg>
