<svg width="20" height="20" viewBox="0 0 20 20" fill="none" xmlns="http://www.w3.org/2000/svg">
<path d="M9.58175 14.8006L9.58878 14.8072C9.59366 14.8119 9.59854 14.8166 9.60343 14.8211L9.60479 14.8223L9.61475 14.8309L9.62647 14.8408L9.62882 14.8428L9.64034 14.8518L9.6503 14.8594L9.65362 14.8619L9.66593 14.8705L9.67491 14.8768L9.67921 14.8797L9.69171 14.8875L9.70069 14.8932L9.70557 14.8961L9.71768 14.9027L9.72745 14.9082L9.73253 14.9109L9.74386 14.9166L9.75499 14.9221L9.75987 14.9244L9.77042 14.9289L9.7835 14.9346L9.788 14.9365L9.79757 14.94L9.81261 14.9457L9.81632 14.9471L9.82511 14.9498L9.8419 14.9553L9.84503 14.9563L9.85323 14.9584L9.87159 14.9633H9.87413L9.88214 14.965L9.90167 14.9691H9.90382L9.91261 14.9707L9.93214 14.9738H9.93409L9.94464 14.975L9.96221 14.9771H9.96378L9.97862 14.9781L9.99268 14.9791H10.0552L10.0702 14.9779L10.0839 14.977H10.0857L10.1038 14.9748L10.1138 14.9736H10.1157L10.1353 14.9703L10.1435 14.9689H10.1456L10.1651 14.9646L10.1728 14.9629H10.1753L10.1948 14.9578L10.2026 14.9557H10.2056L10.223 14.95L10.2316 14.9473L10.2351 14.9459L10.2505 14.94L10.2601 14.9363L10.2642 14.9346L10.2773 14.9289L10.2882 14.9242L10.2927 14.9221L10.3036 14.9166L10.3157 14.9105L10.3202 14.908L10.3294 14.9027L10.3425 14.8953L10.3468 14.8926L10.355 14.8875L10.3689 14.8787L10.3726 14.8762L10.3802 14.8707L10.3944 14.8607L10.3972 14.8586L10.4056 14.8521L10.4194 14.8414L10.4212 14.8398L10.4321 14.8305L10.4437 14.8205C10.4512 14.8136 10.4586 14.8066 10.4657 14.7994L14.1562 11.0885C14.273 10.9709 14.3385 10.8118 14.338 10.646C14.3375 10.4803 14.2713 10.3215 14.1537 10.2046C14.0362 10.0877 13.877 10.0223 13.7113 10.0228C13.5455 10.0232 13.3867 10.0895 13.2698 10.207L10.6444 12.8445L10.6276 2.4791C10.6273 2.31358 10.5613 2.15496 10.4441 2.03804C10.3269 1.92113 10.1682 1.85547 10.0026 1.85547H10.0017C9.83608 1.85573 9.67736 1.92169 9.56036 2.03887C9.44336 2.15605 9.37764 2.31488 9.37764 2.48047L9.39464 12.8535L6.72139 10.2018C6.66312 10.144 6.59403 10.0982 6.51808 10.0671C6.44212 10.036 6.36078 10.0202 6.2787 10.0205C6.19663 10.0208 6.11542 10.0373 6.03972 10.0691C5.96402 10.1008 5.89531 10.1471 5.83751 10.2054C5.77971 10.2636 5.73395 10.3327 5.70285 10.4087C5.67175 10.4846 5.65592 10.566 5.65626 10.6481C5.65659 10.7301 5.67309 10.8113 5.70481 10.887C5.73653 10.9627 5.78285 11.0315 5.84112 11.0893L9.58175 14.8006Z" fill="white"/>
<path d="M18.123 11.8164C17.9573 11.8164 17.7983 11.8823 17.6811 11.9995C17.5639 12.1167 17.498 12.2756 17.498 12.4414V16.8164H2.50781V12.4414C2.50781 12.2756 2.44196 12.1167 2.32475 11.9995C2.20754 11.8823 2.04857 11.8164 1.88281 11.8164C1.71705 11.8164 1.55808 11.8823 1.44087 11.9995C1.32366 12.1167 1.25781 12.2756 1.25781 12.4414V17.4414C1.25781 17.6072 1.32366 17.7661 1.44087 17.8833C1.55808 18.0006 1.71705 18.0664 1.88281 18.0664H18.123C18.2888 18.0664 18.4478 18.0006 18.565 17.8833C18.6822 17.7661 18.748 17.6072 18.748 17.4414V12.4414C18.748 12.2756 18.6822 12.1167 18.565 11.9995C18.4478 11.8823 18.2888 11.8164 18.123 11.8164Z" fill="white"/>
</svg>
