<svg width="18" height="13" viewBox="0 0 18 13" fill="none" xmlns="http://www.w3.org/2000/svg">
<path d="M16.875 5.07812H14.7656V2.85938C14.7656 2.51375 14.4862 2.23438 14.1406 2.23438H7.98812L5.6975 0.0431249C5.66834 0.0157766 5.62997 0.00038434 5.59 0H0.625C0.279375 0 0 0.279375 0 0.625V12.1875C0 12.5331 0.279375 12.8125 0.625 12.8125H14.2581C14.5119 12.8125 14.7419 12.6581 14.8381 12.4219L17.455 5.9375C17.4936 5.84258 17.5082 5.73964 17.4975 5.63774C17.4869 5.53584 17.4514 5.43813 17.3941 5.35321C17.3368 5.26829 17.2594 5.19878 17.1689 5.15081C17.0784 5.10283 16.9774 5.07787 16.875 5.07812ZM1.40625 1.40625H5.0875L7.42375 3.64062H13.3594V5.07812H3.39812C3.14437 5.07812 2.91375 5.2325 2.81812 5.46875L1.40625 8.96875V1.40625ZM13.8144 11.4062H1.85625L3.87375 6.40625H15.8344L13.8156 11.4062H13.8144Z" fill="white"/>
</svg>
