<svg width="17" height="16" viewBox="0 0 17 16" fill="none" xmlns="http://www.w3.org/2000/svg">
<path d="M7.55176 0.15625C11.5791 0.156501 14.8572 3.44619 14.9395 7.51758H15.8184L15.6855 7.75098L14.501 9.83594L14.3652 10.0752L14.2295 9.83594L13.0449 7.75098L12.9121 7.51758H13.7803C13.6983 4.08874 10.935 1.33033 7.55176 1.33008C4.11705 1.33008 1.31859 4.17275 1.31836 7.67383C1.31836 11.1751 4.1169 14.0186 7.55176 14.0186C7.87651 14.0188 8.13159 14.2826 8.13184 14.6064C8.13184 14.9312 7.87298 15.1951 7.55176 15.1953C3.46986 15.1953 0.156482 11.8242 0.15625 7.67773C0.15625 3.53114 3.47266 0.15625 7.55176 0.15625Z" fill="white" stroke="white" stroke-width="0.3125"/>
</svg>
