<svg width="1046" height="601" viewBox="0 0 1046 601" fill="none" xmlns="http://www.w3.org/2000/svg">
<rect width="1046" height="601" fill="black"/>
<path d="M437.514 332.751V324.217V310.461C437.514 308.969 438.306 307.593 439.61 306.847L457.871 296.286L466.232 291.459V277.913C466.232 274.929 464.649 272.154 462.063 270.662L424.797 249.119C422.212 247.627 419.021 247.627 416.435 249.119L379.169 270.662C376.584 272.154 375 274.929 375 277.913V321C375 323.984 376.584 326.759 379.169 328.251L416.435 349.794C419.021 351.286 422.212 351.286 424.797 349.794L437.514 342.45V332.751ZM424.774 292.252C422.188 293.744 420.605 296.519 420.605 299.503V335.292C420.605 338.509 417.111 340.514 414.339 338.906L385.435 322.212C384.13 321.466 383.338 320.09 383.338 318.598V280.361C383.338 278.869 384.13 277.494 385.435 276.748L418.508 257.629C419.813 256.883 421.396 256.883 422.678 257.629L447.413 271.921C450.208 273.53 450.208 277.564 447.413 279.172L424.774 292.252Z" fill="#FAFAFA"/>
<path d="M471.925 288.169L466.242 291.457V303.231V304.373V318.642V323.492C466.242 324.96 465.45 326.313 464.146 327.012L463.703 327.269L463.097 327.618L457.857 330.649L454.48 332.608L437.523 342.4V346.55V348.532V348.602V348.858C437.593 351.959 440.877 353.941 443.649 352.542L443.789 352.472L447.143 350.537L476.094 333.727C477.375 332.981 478.167 331.605 478.167 330.113V291.806C478.19 288.589 474.697 286.56 471.925 288.169Z" fill="#FAFAFA"/>
<path d="M581.399 279.338H573.643C572.479 279.338 571.547 280.27 571.547 281.436V310.79C571.547 311.956 572.479 312.888 573.643 312.888H581.399C582.564 312.888 583.495 311.956 583.495 310.79V281.436C583.472 280.27 582.54 279.338 581.399 279.338Z" fill="#FAFAFA"/>
<path d="M581.399 272.086H573.643C572.479 272.086 571.547 271.153 571.547 269.987V262.223C571.547 261.058 572.479 260.125 573.643 260.125H581.399C582.564 260.125 583.495 261.058 583.495 262.223V269.987C583.472 271.153 582.54 272.086 581.399 272.086Z" fill="#FAFAFA"/>
<path d="M669.907 279.338H662.151C660.986 279.338 660.055 280.27 660.055 281.436V310.79C660.055 311.956 660.986 312.888 662.151 312.888H669.907C671.072 312.888 672.003 311.956 672.003 310.79V281.436C672.003 280.27 671.072 279.338 669.907 279.338Z" fill="#FAFAFA"/>
<path d="M669.907 272.086H662.151C660.986 272.086 660.055 271.153 660.055 269.987V262.223C660.055 261.058 660.986 260.125 662.151 260.125H669.907C671.072 260.125 672.003 261.058 672.003 262.223V269.987C672.003 271.153 671.072 272.086 669.907 272.086Z" fill="#FAFAFA"/>
<path d="M628.34 260.145H625.149H620.305H610.988H606.795H597.479C596.314 260.145 595.383 261.077 595.383 262.243V269.984C595.383 271.149 596.314 272.082 597.479 272.082H606.795V272.129H620.281H621.725H625.103H627.758C632.369 272.129 636.119 275.882 636.119 280.499V286.514V286.561V292.576C636.119 297.192 632.369 300.946 627.758 300.946H621.725H616.205H615.67H609.404C608.24 300.946 607.308 300.013 607.308 298.848V292.576V290.757V290.221V288.636C607.308 287.47 606.376 286.537 605.212 286.537H597.456C596.291 286.537 595.359 287.47 595.359 288.636V290.221V310.762C595.359 311.927 596.291 312.86 597.456 312.86H598.341H607.308H613.643C614.132 312.907 614.621 312.907 615.134 312.907H628.293C639.194 312.907 648.045 304.047 648.045 293.135V286.584V286.537V279.986C648.091 269.004 639.24 260.145 628.34 260.145Z" fill="#FAFAFA"/>
<path d="M539.809 260.145H526.626C515.726 260.145 506.875 269.004 506.875 279.916V282.364V286.514V292.553V293.089C506.875 304 515.726 312.86 526.626 312.86H531.121C532.286 312.86 533.218 311.927 533.218 310.762V302.998C533.218 301.832 532.286 300.899 531.121 300.899H527.162C522.55 300.899 518.8 297.146 518.8 292.529V286.491V282.341V280.429C518.8 275.812 522.55 272.059 527.162 272.059H539.25C543.862 272.059 547.612 275.812 547.612 280.429V284.392C547.612 285.558 548.543 286.491 549.708 286.491H557.464C558.629 286.491 559.56 285.558 559.56 284.392V280.056C559.56 280.009 559.56 279.962 559.56 279.892C559.583 268.981 550.733 260.145 539.809 260.145Z" fill="#FAFAFA"/>
<path d="M558.948 303.819L542.271 287.126C541.875 286.729 541.339 286.52 540.804 286.52H529.81C527.947 286.52 527.015 288.781 528.343 290.087L550.516 312.283C551.331 313.099 552.659 313.099 553.474 312.283L558.971 306.78C559.763 305.941 559.763 304.635 558.948 303.819Z" fill="#FAFAFA"/>
<path d="M506.891 325.5H516.673V327.458H509.103V330.326H515.532V332.145H509.103V336.458H506.891V325.5Z" fill="#FAFAFA"/>
<path d="M518.055 332.333C518.055 331.75 518.171 331.191 518.404 330.654C518.637 330.141 518.986 329.675 519.429 329.302C519.871 328.906 520.407 328.603 521.036 328.393C521.665 328.16 522.387 328.066 523.156 328.066C523.924 328.066 524.646 328.183 525.275 328.393C525.904 328.626 526.44 328.929 526.882 329.302C527.325 329.698 527.674 330.141 527.907 330.654C528.14 331.167 528.256 331.727 528.256 332.333C528.256 332.939 528.14 333.476 527.907 334.012C527.674 334.525 527.325 334.991 526.882 335.364C526.44 335.76 525.904 336.064 525.275 336.273C524.646 336.507 523.924 336.6 523.156 336.6C522.387 336.6 521.665 336.483 521.036 336.273C520.407 336.04 519.871 335.737 519.429 335.364C518.986 334.968 518.637 334.525 518.404 334.012C518.171 333.476 518.055 332.916 518.055 332.333ZM520.244 332.333C520.244 332.66 520.314 332.986 520.454 333.266C520.593 333.569 520.78 333.825 521.036 334.058C521.292 334.292 521.595 334.455 521.968 334.595C522.34 334.735 522.76 334.805 523.225 334.805C523.691 334.805 524.11 334.735 524.483 334.595C524.856 334.455 525.159 334.292 525.415 334.058C525.671 333.825 525.857 333.569 525.997 333.266C526.137 332.963 526.207 332.66 526.207 332.333C526.207 332.007 526.137 331.68 525.997 331.377C525.857 331.074 525.671 330.818 525.415 330.584C525.159 330.351 524.856 330.188 524.483 330.048C524.11 329.908 523.691 329.838 523.225 329.838C522.76 329.838 522.34 329.908 521.968 330.048C521.595 330.188 521.292 330.351 521.036 330.584C520.78 330.818 520.593 331.074 520.454 331.377C520.291 331.68 520.244 331.983 520.244 332.333Z" fill="#FAFAFA"/>
<path d="M530.422 328.173H532.495V329.362C532.961 329.012 533.426 328.732 533.939 328.476C534.451 328.219 534.964 328.033 535.453 327.916L536.058 329.805C535.267 329.874 534.568 330.061 533.962 330.341C533.357 330.621 532.867 331.017 532.495 331.507V336.426H530.422V328.173Z" fill="#FAFAFA"/>
<path d="M537.664 328.177H539.737V328.876C540.249 328.55 540.762 328.34 541.251 328.224C541.74 328.107 542.229 328.037 542.695 328.037C543.347 328.037 543.953 328.13 544.512 328.364C545.071 328.573 545.537 328.9 545.933 329.319C546.235 329.086 546.538 328.9 546.818 328.737C547.12 328.573 547.4 328.433 547.703 328.34C548.005 328.247 548.285 328.177 548.588 328.13C548.891 328.084 549.193 328.06 549.519 328.06C550.195 328.06 550.8 328.154 551.359 328.34C551.918 328.527 552.384 328.806 552.78 329.156C553.176 329.529 553.479 329.972 553.689 330.509C553.898 331.045 554.015 331.674 554.015 332.397V336.454H551.942V332.723C551.942 332.28 551.872 331.861 551.755 331.511C551.616 331.161 551.453 330.858 551.22 330.602C550.987 330.345 550.707 330.159 550.404 330.042C550.078 329.902 549.729 329.856 549.356 329.856C549.147 329.856 548.937 329.879 548.704 329.926C548.495 329.972 548.262 330.019 548.075 330.112C547.866 330.205 547.679 330.299 547.493 330.439C547.307 330.578 547.144 330.718 547.027 330.882V336.454H544.954V332.723C544.954 332.28 544.884 331.861 544.768 331.511C544.651 331.161 544.465 330.858 544.232 330.602C543.999 330.345 543.72 330.159 543.394 330.042C543.068 329.902 542.718 329.856 542.322 329.856C542.089 329.856 541.857 329.879 541.6 329.926C541.367 329.972 541.134 330.042 540.902 330.135C540.692 330.229 540.482 330.322 540.273 330.462C540.086 330.578 539.9 330.742 539.76 330.882V336.454H537.687V328.177H537.664Z" fill="#FAFAFA"/>
<path d="M564.993 333.752L560.219 325.521H562.734L566.111 331.747L569.442 325.521H571.958L567.253 333.752V336.48H565.04V333.752H564.993Z" fill="#FAFAFA"/>
<path d="M572.828 332.333C572.828 331.75 572.945 331.191 573.177 330.654C573.41 330.141 573.76 329.675 574.202 329.302C574.645 328.906 575.181 328.603 575.809 328.393C576.438 328.16 577.16 328.066 577.929 328.066C578.698 328.066 579.42 328.183 580.048 328.393C580.677 328.626 581.213 328.929 581.656 329.302C582.098 329.698 582.447 330.141 582.68 330.654C582.913 331.167 583.03 331.727 583.03 332.333C583.03 332.939 582.913 333.476 582.68 334.012C582.447 334.525 582.098 334.991 581.656 335.364C581.213 335.76 580.677 336.064 580.048 336.273C579.42 336.507 578.698 336.6 577.929 336.6C577.16 336.6 576.438 336.483 575.809 336.273C575.181 336.04 574.645 335.737 574.202 335.364C573.76 334.968 573.41 334.525 573.177 334.012C572.945 333.476 572.828 332.916 572.828 332.333ZM574.994 332.333C574.994 332.66 575.064 332.986 575.204 333.266C575.344 333.569 575.53 333.825 575.786 334.058C576.042 334.292 576.345 334.455 576.718 334.595C577.09 334.735 577.51 334.805 577.976 334.805C578.441 334.805 578.861 334.735 579.233 334.595C579.606 334.455 579.909 334.292 580.165 334.058C580.421 333.825 580.607 333.569 580.747 333.266C580.887 332.963 580.957 332.66 580.957 332.333C580.957 332.007 580.887 331.68 580.747 331.377C580.607 331.074 580.421 330.818 580.165 330.584C579.909 330.351 579.606 330.188 579.233 330.048C578.861 329.908 578.441 329.838 577.976 329.838C577.51 329.838 577.09 329.908 576.718 330.048C576.345 330.188 576.042 330.351 575.786 330.584C575.53 330.818 575.344 331.074 575.204 331.377C575.064 331.68 574.994 331.983 574.994 332.333Z" fill="#FAFAFA"/>
<path d="M585.195 328.182H587.268V332.215C587.268 332.588 587.315 332.938 587.385 333.264C587.478 333.591 587.617 333.847 587.804 334.08C588.013 334.314 588.27 334.477 588.619 334.593C588.968 334.71 589.388 334.78 589.877 334.78C590.11 334.78 590.366 334.757 590.599 334.71C590.855 334.663 591.088 334.593 591.298 334.5C591.53 334.407 591.74 334.29 591.926 334.174C592.113 334.057 592.276 333.917 592.416 333.754V328.182H594.488V336.459H592.416V335.759C591.903 336.062 591.391 336.272 590.878 336.412C590.366 336.552 589.877 336.598 589.411 336.598C588.666 336.598 588.013 336.505 587.478 336.319C586.942 336.132 586.499 335.876 586.15 335.526C585.801 335.176 585.568 334.756 585.405 334.244C585.242 333.731 585.172 333.171 585.172 332.518V328.182H585.195Z" fill="#FAFAFA"/>
<path d="M597.141 328.173H599.214V329.362C599.679 329.012 600.145 328.732 600.658 328.476C601.17 328.219 601.682 328.033 602.172 327.916L602.777 329.805C601.985 329.874 601.287 330.061 600.681 330.341C600.075 330.621 599.586 331.017 599.214 331.507V336.426H597.141L597.141 328.173Z" fill="#FAFAFA"/>
<path d="M609.352 325.5H614.918C615.757 325.5 616.479 325.593 617.108 325.756C617.713 325.943 618.226 326.176 618.645 326.526C619.041 326.852 619.344 327.272 619.553 327.738C619.74 328.205 619.856 328.764 619.856 329.347C619.856 329.743 619.809 330.14 619.716 330.513C619.623 330.886 619.46 331.212 619.274 331.515C619.064 331.818 618.808 332.098 618.505 332.331C618.202 332.564 617.83 332.774 617.41 332.938L619.786 336.435H617.061L615.011 333.334H614.942H611.588V336.458H609.375V325.5H609.352ZM614.965 331.422C615.384 331.422 615.757 331.375 616.06 331.282C616.386 331.189 616.642 331.049 616.851 330.863C617.061 330.676 617.224 330.466 617.317 330.21C617.41 329.953 617.48 329.673 617.48 329.37C617.48 328.764 617.271 328.275 616.851 327.948C616.432 327.622 615.803 327.459 614.965 327.459H611.564V331.445H614.965V331.422Z" fill="#FAFAFA"/>
<path d="M621.82 332.28C621.82 331.721 621.937 331.185 622.17 330.672C622.403 330.159 622.729 329.716 623.148 329.319C623.567 328.923 624.103 328.62 624.732 328.387C625.361 328.154 626.059 328.037 626.851 328.037C627.643 328.037 628.342 328.154 628.971 328.387C629.6 328.62 630.135 328.946 630.578 329.366C631.02 329.786 631.347 330.252 631.603 330.812C631.836 331.371 631.952 331.954 631.952 332.607C631.952 332.677 631.952 332.77 631.952 332.863C631.952 332.957 631.952 333.027 631.929 333.12H624.126C624.219 333.376 624.359 333.586 624.545 333.796C624.755 334.006 624.988 334.169 625.291 334.332C625.594 334.472 625.943 334.589 626.316 334.682C626.712 334.775 627.131 334.798 627.62 334.798C628.086 334.798 628.575 334.752 629.041 334.659C629.506 334.565 629.972 334.425 630.392 334.286L631.09 335.871C630.811 335.988 630.555 336.104 630.275 336.197C629.996 336.291 629.716 336.361 629.413 336.431C629.111 336.501 628.808 336.547 628.458 336.57C628.132 336.594 627.783 336.617 627.41 336.617C626.479 336.617 625.663 336.501 624.965 336.291C624.266 336.058 623.684 335.754 623.218 335.381C622.752 334.985 622.403 334.542 622.146 334.006C621.937 333.446 621.82 332.887 621.82 332.28ZM629.763 331.488C629.693 331.255 629.576 331.045 629.413 330.858C629.25 330.648 629.064 330.485 628.831 330.345C628.598 330.205 628.319 330.089 628.016 329.996C627.713 329.902 627.364 329.879 626.991 329.879C626.595 329.879 626.246 329.926 625.92 330.019C625.594 330.112 625.314 330.229 625.081 330.369C624.848 330.508 624.639 330.695 624.476 330.882C624.313 331.068 624.196 331.278 624.126 331.511H629.763V331.488Z" fill="#FAFAFA"/>
<path d="M633.789 333.849C633.789 333.452 633.882 333.079 634.045 332.753C634.208 332.426 634.488 332.147 634.814 331.913C635.163 331.68 635.582 331.494 636.095 331.377C636.607 331.261 637.213 331.191 637.888 331.191C638.401 331.191 638.936 331.237 639.495 331.307C640.054 331.377 640.637 331.494 641.242 331.657C641.219 331.4 641.149 331.144 641.009 330.934C640.87 330.724 640.683 330.514 640.45 330.351C640.218 330.188 639.915 330.071 639.589 329.978C639.239 329.885 638.867 329.838 638.447 329.838C638.214 329.838 637.958 329.862 637.679 329.885C637.399 329.908 637.12 329.955 636.817 330.002C636.514 330.048 636.235 330.118 635.932 330.211C635.629 330.305 635.373 330.398 635.117 330.514L634.488 328.812C634.791 328.696 635.14 328.603 635.489 328.509C635.839 328.416 636.211 328.346 636.584 328.276C636.957 328.206 637.329 328.16 637.702 328.113C638.075 328.066 638.447 328.066 638.797 328.066C640.334 328.066 641.499 328.463 642.244 329.255C642.989 330.048 643.362 331.261 643.362 332.893V336.483H641.289V335.714C641.079 335.83 640.846 335.97 640.59 336.063C640.334 336.18 640.054 336.273 639.752 336.367C639.449 336.46 639.123 336.506 638.797 336.576C638.447 336.623 638.098 336.646 637.702 336.646C637.05 336.646 636.491 336.576 636.002 336.437C635.513 336.297 635.117 336.11 634.791 335.854C634.465 335.597 634.208 335.317 634.045 334.991C633.859 334.618 633.789 334.245 633.789 333.849ZM635.955 333.779C635.955 333.918 636.002 334.035 636.072 334.175C636.142 334.292 636.258 334.408 636.398 334.501C636.561 334.595 636.747 334.665 636.98 334.735C637.213 334.781 637.516 334.828 637.842 334.828C638.214 334.828 638.564 334.804 638.89 334.735C639.239 334.665 639.542 334.595 639.845 334.478C640.148 334.361 640.404 334.245 640.637 334.105C640.87 333.965 641.079 333.825 641.242 333.662V333.289C640.916 333.196 640.613 333.126 640.311 333.056C640.008 332.986 639.705 332.939 639.426 332.916C639.146 332.869 638.867 332.846 638.634 332.846C638.377 332.823 638.168 332.823 637.982 332.823C637.586 332.823 637.283 332.846 637.027 332.893C636.77 332.939 636.561 333.009 636.398 333.102C636.235 333.196 636.118 333.289 636.072 333.406C636.002 333.545 635.955 333.662 635.955 333.779Z" fill="#FAFAFA"/>
<path d="M646.133 324.84H648.206V336.451H646.133V324.84Z" fill="#FAFAFA"/>
<path d="M651.937 327.053C651.727 327.053 651.541 327.03 651.378 326.96C651.215 326.913 651.075 326.82 650.959 326.727C650.842 326.633 650.749 326.517 650.679 326.377C650.609 326.237 650.586 326.097 650.586 325.957C650.586 325.794 650.609 325.654 650.679 325.537C650.749 325.398 650.842 325.281 650.959 325.188C651.075 325.094 651.215 325.001 651.378 324.955C651.541 324.885 651.727 324.861 651.937 324.861C652.146 324.861 652.333 324.885 652.496 324.955C652.659 325.001 652.799 325.094 652.915 325.188C653.032 325.281 653.125 325.398 653.195 325.537C653.264 325.677 653.288 325.817 653.288 325.957C653.288 326.097 653.264 326.237 653.195 326.377C653.125 326.517 653.032 326.633 652.915 326.727C652.799 326.82 652.659 326.913 652.496 326.96C652.356 327.03 652.146 327.053 651.937 327.053ZM650.912 328.172H652.985V336.449H650.912V328.172Z" fill="#FAFAFA"/>
<path d="M656.855 329.742H654.852V328.18H656.855V325.615H658.928V328.18H660.931V329.742H658.928V336.457H656.855V329.742Z" fill="#FAFAFA"/>
<path d="M663.76 337.484C663.97 337.624 664.202 337.741 664.459 337.857C664.715 337.974 664.971 338.044 665.251 338.114C665.53 338.184 665.81 338.23 666.089 338.277C666.369 338.3 666.648 338.324 666.928 338.324C667.883 338.324 668.605 338.114 669.117 337.718C669.629 337.298 669.886 336.692 669.886 335.876V335.596C669.699 335.712 669.49 335.829 669.28 335.946C669.047 336.062 668.814 336.132 668.558 336.225C668.302 336.295 668.022 336.365 667.743 336.389C667.463 336.435 667.16 336.459 666.881 336.459C666.252 336.459 665.693 336.365 665.181 336.179C664.692 335.992 664.272 335.712 663.923 335.363C663.574 335.013 663.317 334.57 663.131 334.034C662.945 333.521 662.852 332.915 662.852 332.238V328.182H664.924V331.679C664.924 332.681 665.111 333.404 665.484 333.894C665.856 334.36 666.462 334.593 667.277 334.593C667.859 334.593 668.372 334.5 668.814 334.29C669.257 334.08 669.606 333.824 669.886 333.497V328.182H671.959V335.503C671.959 336.295 671.842 336.971 671.632 337.554C671.4 338.137 671.073 338.627 670.654 339C670.235 339.373 669.699 339.676 669.094 339.863C668.465 340.049 667.766 340.142 666.974 340.142C666.206 340.142 665.483 340.049 664.808 339.886C664.133 339.723 663.527 339.489 662.968 339.21L663.76 337.484Z" fill="#FAFAFA"/>
</svg>
