<svg width="18" height="18" viewBox="0 0 18 18" fill="none" xmlns="http://www.w3.org/2000/svg">
<g clip-path="url(#clip0_5789_16564)">
<path d="M0.000860206 4.00029C0.000860206 2.93934 0.423653 1.92186 1.17623 1.17166C1.9288 0.421458 2.94952 0 4.01382 0H14.0458C15.0998 0.0153812 16.1054 0.44356 16.8453 1.19201C17.5852 1.94045 18 2.94906 18 3.99986C18 5.05066 17.5852 6.05926 16.8453 6.80771C16.1054 7.55615 15.0998 7.98433 14.0458 7.99971H4.01296C2.9488 7.99971 1.92822 7.57837 1.17567 6.82836C0.423121 6.07835 0.000228017 5.06108 0 4.00029H0.000860206ZM1.50561 4.00029C1.50561 4.69029 1.75067 5.28 2.24079 5.76771C2.4705 6.00398 2.74633 6.19082 3.05127 6.31671C3.35622 6.44261 3.6838 6.50489 4.01382 6.49971H14.0458C14.3758 6.50489 14.7034 6.44261 15.0083 6.31671C15.3133 6.19082 15.5891 6.00398 15.8188 5.76771C16.0558 5.53873 16.2433 5.26377 16.3695 4.95979C16.4958 4.65581 16.5583 4.32926 16.5531 4.00029C16.5584 3.67116 16.496 3.34445 16.3697 3.04032C16.2434 2.73618 16.0559 2.46108 15.8188 2.232C15.5891 1.99574 15.3133 1.8089 15.0083 1.683C14.7034 1.55711 14.3758 1.49482 14.0458 1.5H4.01296C3.68294 1.49482 3.35536 1.55711 3.05041 1.683C2.74547 1.8089 2.46964 1.99574 2.23993 2.232C2.00266 2.46101 1.81501 2.73608 1.68856 3.04022C1.56211 3.34435 1.49955 3.6711 1.50475 4.00029H1.50561ZM6.27095 3.25029C6.47049 3.25029 6.66186 3.3293 6.80296 3.46996C6.94405 3.61061 7.02332 3.80137 7.02332 4.00029C7.02332 4.1992 6.94405 4.38996 6.80296 4.53062C6.66186 4.67127 6.47049 4.75029 6.27095 4.75029H4.76619C4.56665 4.75029 4.37528 4.67127 4.23418 4.53062C4.09309 4.38996 4.01382 4.1992 4.01382 4.00029C4.01382 3.80137 4.09309 3.61061 4.23418 3.46996C4.37528 3.3293 4.56665 3.25029 4.76619 3.25029H6.27095ZM0.000860206 13.9997C0.00108822 12.9389 0.423981 11.9217 1.17653 11.1716C1.92908 10.4216 2.94966 10.0003 4.01382 10.0003H14.0458C15.0998 10.0157 16.1054 10.4438 16.8453 11.1923C17.5852 11.9407 18 12.9493 18 14.0001C18 15.0509 17.5852 16.0595 16.8453 16.808C16.1054 17.5564 15.0998 17.9846 14.0458 18H4.01296C2.94866 18 1.92794 17.5785 1.17537 16.8283C0.422793 16.0781 0 15.0607 0 13.9997H0.000860206ZM1.50561 13.9997C1.50561 14.6906 1.75067 15.2794 2.24079 15.768C2.4705 16.0043 2.74633 16.1911 3.05127 16.317C3.35622 16.4429 3.6838 16.5052 4.01382 16.5H14.0458C14.3758 16.5052 14.7034 16.4429 15.0083 16.317C15.3133 16.1911 15.5891 16.0043 15.8188 15.768C16.0559 15.5389 16.2434 15.2638 16.3697 14.9597C16.496 14.6555 16.5584 14.3288 16.5531 13.9997C16.5583 13.6707 16.4958 13.3442 16.3695 13.0402C16.2433 12.7362 16.0558 12.4613 15.8188 12.2323C15.5891 11.996 15.3133 11.8092 15.0083 11.6833C14.7034 11.5574 14.3758 11.4951 14.0458 11.5003H4.01296C3.68294 11.4951 3.35536 11.5574 3.05041 11.6833C2.74547 11.8092 2.46964 11.996 2.23993 12.2323C2.00277 12.4612 1.81517 12.7361 1.68873 13.0401C1.56229 13.3441 1.49967 13.6707 1.50475 13.9997H1.50561ZM6.27095 13.2497C6.47049 13.2497 6.66186 13.3287 6.80296 13.4694C6.94405 13.61 7.02332 13.8008 7.02332 13.9997C7.02332 14.1986 6.94405 14.3894 6.80296 14.53C6.66186 14.6707 6.47049 14.7497 6.27095 14.7497H4.76619C4.56665 14.7497 4.37528 14.6707 4.23418 14.53C4.09309 14.3894 4.01382 14.1986 4.01382 13.9997C4.01382 13.8008 4.09309 13.61 4.23418 13.4694C4.37528 13.3287 4.56665 13.2497 4.76619 13.2497H6.27095Z" fill="#333333"/>
</g>
<defs>
<clipPath id="clip0_5789_16564">
<rect width="18" height="18" fill="white"/>
</clipPath>
</defs>
</svg>
