<svg width="24" height="24" viewBox="0 0 24 24" fill="none" xmlns="http://www.w3.org/2000/svg">
<g clip-path="url(#clip0_7899_7777)">
<path d="M6.95996 12.5898H17.0469C17.1117 12.5899 17.1687 12.6329 17.1865 12.6953L19.0566 19.2402C19.0832 19.3331 19.0135 19.4257 18.917 19.4258H5.08984C4.99345 19.4255 4.92369 19.333 4.9502 19.2402L6.82031 12.6953C6.83811 12.633 6.89522 12.5901 6.95996 12.5898Z" stroke="#FF4D4D" stroke-width="0.8"/>
<path d="M13.7605 15.8513C13.6787 15.8513 13.5968 15.8241 13.5355 15.7627C13.3923 15.64 13.3855 15.4218 13.5082 15.2786C14.3741 14.3173 14.7287 13.5195 14.5514 12.9809C14.4559 12.7014 14.2378 12.5309 13.9855 12.34C13.6855 12.1082 13.3446 11.8491 13.1878 11.3718C12.9287 10.5673 13.3105 9.61954 14.3537 8.47408C14.4832 8.3309 14.6946 8.32408 14.8378 8.45362C14.9741 8.58317 14.9878 8.79453 14.8582 8.93771C14.0196 9.86498 13.665 10.6354 13.8355 11.1673C13.9241 11.4468 14.1423 11.6173 14.4014 11.8082C14.7014 12.04 15.0423 12.2991 15.1991 12.7763C15.4718 13.5877 15.0832 14.5559 14.0196 15.7423C13.9514 15.8173 13.8559 15.8513 13.7605 15.8513Z" fill="#FF4D4D"/>
<path d="M11.573 15.8513C11.4912 15.8513 11.4094 15.8241 11.348 15.7627C11.2048 15.64 11.198 15.4218 11.3207 15.2786C12.1866 14.3173 12.5412 13.5195 12.3639 12.9809C12.2684 12.7014 12.0503 12.5309 11.798 12.34C11.498 12.1082 11.1571 11.8491 11.0003 11.3718C10.7412 10.5741 11.123 9.61954 12.1662 8.47408C12.2957 8.3309 12.5071 8.32408 12.6503 8.45362C12.7866 8.58317 12.8003 8.79453 12.6707 8.93771C11.8321 9.86498 11.4775 10.6354 11.648 11.1673C11.7366 11.4468 11.9548 11.6173 12.2139 11.8082C12.5139 12.04 12.8548 12.2991 13.0116 12.7763C13.2844 13.5877 12.8957 14.5559 11.8321 15.7423C11.7571 15.8173 11.6616 15.8513 11.573 15.8513Z" fill="#FF4D4D"/>
<path d="M9.37768 15.8513C9.29586 15.8513 9.21404 15.8241 9.15268 15.7627C9.00949 15.64 9.00268 15.4218 9.1254 15.2786C9.99131 14.3173 10.3459 13.5195 10.1686 12.9809C10.0731 12.7014 9.85495 12.5309 9.60268 12.34C9.30268 12.1082 8.96177 11.8491 8.80495 11.3718C8.54586 10.5673 8.92767 9.61954 9.97086 8.47408C10.1004 8.3309 10.3118 8.32408 10.4549 8.45362C10.5913 8.58317 10.6049 8.79453 10.4754 8.93771C9.63677 9.86498 9.28222 10.6354 9.45268 11.1673C9.54131 11.4468 9.75949 11.6173 10.0186 11.8082C10.3186 12.04 10.6595 12.2991 10.8163 12.7763C11.0822 13.5877 10.7004 14.5559 9.63677 15.7423C9.56177 15.8173 9.47313 15.8513 9.37768 15.8513Z" fill="#FF4D4D"/>
</g>
<rect x="2.45455" y="2.45455" width="19.0909" height="19.0909" rx="0.454545" stroke="#FF4D4D" stroke-width="0.909091"/>
<path d="M21.0908 4.72852C21.5929 4.72852 22 5.13562 22 5.6377V21.0918C22 21.5939 21.5929 22.001 21.0908 22.001H2.90918L2.81641 21.9961C2.35788 21.9497 2 21.5626 2 21.0918V5.6377C2 5.16692 2.35789 4.77985 2.81641 4.7334L2.90918 4.72852H21.0908ZM2.90918 21.0918H21.0908V5.6377H2.90918V21.0918Z" fill="#FF4D4D"/>
<path d="M13.5156 2.2998V5.63672C13.5154 5.97286 13.2434 6.24497 12.9072 6.24512H11.0889C10.7526 6.24512 10.4797 5.97295 10.4795 5.63672V2.2998H13.5156Z" stroke="#FF4D4D" stroke-width="0.6"/>
<defs>
<clipPath id="clip0_7899_7777">
<rect width="16.3636" height="16.3636" fill="white" transform="translate(3.82031 3.82031)"/>
</clipPath>
</defs>
</svg>
