<svg width="24" height="24" viewBox="0 0 24 24" fill="none" xmlns="http://www.w3.org/2000/svg">
<g clip-path="url(#clip0_7899_7797)">
<path d="M4.6084 10.002H19.4014C19.5799 10.002 19.7371 10.1203 19.7861 10.292L22.5283 19.8916C22.6013 20.147 22.4101 20.4011 22.1445 20.4014H1.86523C1.5995 20.4013 1.40746 20.1471 1.48047 19.8916L4.22363 10.292C4.2727 10.1203 4.42981 10.002 4.6084 10.002Z" stroke="#FF4D4D" stroke-width="0.8"/>
<path d="M14.58 14.9776C14.46 14.9776 14.34 14.9375 14.25 14.8475C14.04 14.6675 14.03 14.3475 14.21 14.1375C15.48 12.7276 16 11.5575 15.74 10.7676C15.6 10.3576 15.28 10.1076 14.91 9.82755C14.47 9.48755 13.97 9.10756 13.74 8.40756C13.36 7.22755 13.92 5.83756 15.45 4.15756C15.64 3.94756 15.95 3.93756 16.16 4.12755C16.36 4.31755 16.38 4.62755 16.19 4.83755C14.96 6.19755 14.44 7.32755 14.69 8.10754C14.82 8.51754 15.14 8.76754 15.52 9.04755C15.96 9.38755 16.46 9.76754 16.69 10.4675C17.09 11.6575 16.52 13.0775 14.96 14.8175C14.86 14.9276 14.72 14.9776 14.58 14.9776Z" fill="#FF4D4D"/>
<path d="M11.369 14.9776C11.249 14.9776 11.129 14.9375 11.039 14.8475C10.829 14.6675 10.819 14.3475 10.999 14.1375C12.269 12.7276 12.789 11.5575 12.529 10.7676C12.389 10.3576 12.069 10.1076 11.699 9.82755C11.259 9.48755 10.759 9.10756 10.529 8.40756C10.149 7.23756 10.709 5.83756 12.239 4.15756C12.429 3.94756 12.739 3.93756 12.949 4.12755C13.149 4.31755 13.169 4.62755 12.979 4.83755C11.749 6.19755 11.229 7.32755 11.479 8.10754C11.609 8.51754 11.929 8.76754 12.309 9.04755C12.749 9.38755 13.249 9.76754 13.479 10.4675C13.879 11.6575 13.309 13.0775 11.749 14.8175C11.639 14.9276 11.499 14.9776 11.369 14.9776Z" fill="#FF4D4D"/>
<path d="M8.15028 14.9776C8.03028 14.9776 7.91028 14.9375 7.82028 14.8475C7.61028 14.6675 7.60028 14.3475 7.78028 14.1375C9.05028 12.7276 9.57028 11.5575 9.31028 10.7676C9.17028 10.3576 8.85028 10.1076 8.48028 9.82755C8.04028 9.48755 7.54028 9.10756 7.31028 8.40756C6.93028 7.22755 7.49028 5.83756 9.02028 4.15756C9.21028 3.94756 9.52028 3.93756 9.73028 4.12755C9.93028 4.31755 9.95028 4.62755 9.76028 4.83755C8.53028 6.19755 8.01028 7.32755 8.26028 8.10754C8.39028 8.51754 8.71028 8.76754 9.09028 9.04755C9.53028 9.38755 10.0303 9.76754 10.2603 10.4675C10.6503 11.6575 10.0903 13.0775 8.53028 14.8175C8.42028 14.9276 8.29028 14.9776 8.15028 14.9776Z" fill="#FF4D4D"/>
</g>
<defs>
<clipPath id="clip0_7899_7797">
<rect width="24" height="24" fill="white"/>
</clipPath>
</defs>
</svg>
