<svg width="24" height="24" viewBox="0 0 24 24" fill="none" xmlns="http://www.w3.org/2000/svg">
<g clip-path="url(#clip0_6807_11589)">
<path d="M7.3192 21.9905C7.2292 21.9905 7.1492 21.9705 7.0692 21.9205C6.8292 21.7805 6.7492 21.4705 6.8892 21.2405C7.8192 19.6605 7.6492 19.0905 7.3292 18.7005C6.2892 17.4505 7.1892 15.4605 7.2192 15.3805C7.3292 15.1305 7.6292 15.0205 7.8792 15.1305C8.1292 15.2405 8.2392 15.5405 8.1292 15.7905C7.9392 16.2105 7.5692 17.4305 8.0892 18.0605C9.0292 19.1905 8.4392 20.5605 7.7392 21.7505C7.6492 21.9005 7.4892 21.9905 7.3192 21.9905Z" fill="#999999"/>
<path d="M11.6083 21.9905C11.5183 21.9905 11.4383 21.9705 11.3583 21.9205C11.1183 21.7805 11.0383 21.4705 11.1783 21.2405C12.1083 19.6605 11.9383 19.0905 11.6183 18.7005C10.5783 17.4605 11.4783 15.4605 11.5083 15.3805C11.6183 15.1305 11.9183 15.0205 12.1683 15.1305C12.4183 15.2405 12.5283 15.5405 12.4183 15.7905C12.2283 16.2105 11.8583 17.4305 12.3783 18.0605C13.3183 19.1905 12.7283 20.5605 12.0283 21.7505C11.9483 21.9005 11.7783 21.9905 11.6083 21.9905Z" fill="#999999"/>
<path d="M15.9051 21.9905C15.8151 21.9905 15.7351 21.9705 15.6551 21.9205C15.4151 21.7805 15.3351 21.4705 15.4751 21.2405C16.4051 19.6605 16.2351 19.0905 15.9151 18.7005C14.8751 17.4505 15.7751 15.4605 15.8051 15.3805C15.9151 15.1305 16.2151 15.0205 16.4651 15.1305C16.7151 15.2405 16.8251 15.5405 16.7151 15.7905C16.5251 16.2105 16.1551 17.4305 16.6751 18.0605C17.6151 19.1905 17.0251 20.5605 16.3251 21.7505C16.2451 21.9005 16.0751 21.9905 15.9051 21.9905Z" fill="#999999"/>
<path d="M9.37576 12.357C9.1098 11.8251 9.4966 11.1992 10.0913 11.1992H13.9024C14.4972 11.1992 14.884 11.8251 14.618 12.357L13.818 13.957C13.6825 14.228 13.4055 14.3992 13.1024 14.3992H10.8913C10.5883 14.3992 10.3113 14.228 10.1758 13.957L9.37576 12.357Z" fill="#C4C4C4"/>
<path d="M6.64694 8.19325C6.52072 7.68833 6.9026 7.19922 7.42306 7.19922H16.5738C17.0943 7.19922 17.4762 7.68833 17.3499 8.19325L16.9499 9.79325C16.8609 10.1494 16.5409 10.3992 16.1738 10.3992H7.82306C7.45596 10.3992 7.13598 10.1494 7.04694 9.79325L6.64694 8.19325Z" fill="#C4C4C4"/>
<path d="M3.33357 1.71392C3.26472 1.23197 3.63869 0.800781 4.12553 0.800781H19.8807C20.3676 0.800781 20.7415 1.23197 20.6727 1.71392L20.1012 5.71392C20.0449 6.10804 19.7074 6.40078 19.3093 6.40078H4.69696C4.29884 6.40078 3.9613 6.10804 3.905 5.71392L3.33357 1.71392Z" fill="#C4C4C4"/>
</g>
<defs>
<clipPath id="clip0_6807_11589">
<rect width="24" height="24" fill="white"/>
</clipPath>
</defs>
</svg>
