<svg width="24" height="24" viewBox="0 0 24 24" fill="none" xmlns="http://www.w3.org/2000/svg">
<g clip-path="url(#clip0_6807_11603)">
<path d="M6.61566 12.7589C6.68257 12.5247 6.8966 12.3633 7.14013 12.3633H17.2263C17.4699 12.3633 17.6839 12.5247 17.7508 12.7589L19.6209 19.3043C19.7205 19.6528 19.4589 19.9996 19.0965 19.9996H5.27C4.90761 19.9996 4.64598 19.6528 4.74553 19.3043L6.61566 12.7589Z" fill="#C4C4C4"/>
<path d="M13.9402 16.033C13.8584 16.033 13.7765 16.0057 13.7152 15.9444C13.572 15.8216 13.5652 15.6034 13.6879 15.4603C14.5538 14.4989 14.9084 13.7012 14.7311 13.1625C14.6356 12.883 14.4174 12.7125 14.1652 12.5216C13.8652 12.2898 13.5243 12.0307 13.3674 11.5534C13.1084 10.7489 13.4902 9.80118 14.5334 8.65572C14.6629 8.51254 14.8743 8.50572 15.0174 8.63526C15.1538 8.76481 15.1674 8.97617 15.0379 9.11935C14.1993 10.0466 13.8447 10.8171 14.0152 11.3489C14.1038 11.6284 14.322 11.7989 14.5811 11.9898C14.8811 12.2216 15.222 12.4807 15.3788 12.958C15.6515 13.7693 15.2629 14.7375 14.1993 15.9239C14.1311 15.9989 14.0356 16.033 13.9402 16.033Z" fill="#999999"/>
<path d="M11.7527 16.033C11.6709 16.033 11.589 16.0057 11.5277 15.9444C11.3845 15.8216 11.3777 15.6034 11.5004 15.4603C12.3663 14.4989 12.7209 13.7012 12.5436 13.1625C12.4481 12.883 12.2299 12.7125 11.9777 12.5216C11.6777 12.2898 11.3368 12.0307 11.1799 11.5534C10.9209 10.7557 11.3027 9.80118 12.3459 8.65572C12.4754 8.51254 12.6868 8.50572 12.8299 8.63526C12.9663 8.76481 12.98 8.97617 12.8504 9.11935C12.0118 10.0466 11.6572 10.8171 11.8277 11.3489C11.9163 11.6284 12.1345 11.7989 12.3936 11.9898C12.6936 12.2216 13.0345 12.4807 13.1913 12.958C13.464 13.7693 13.0754 14.7375 12.0118 15.9239C11.9368 15.9989 11.8413 16.033 11.7527 16.033Z" fill="#999999"/>
<path d="M9.55736 16.033C9.47554 16.033 9.39373 16.0057 9.33236 15.9444C9.18918 15.8216 9.18236 15.6034 9.30509 15.4603C10.171 14.4989 10.5255 13.7012 10.3483 13.1625C10.2528 12.883 10.0346 12.7125 9.78236 12.5216C9.48236 12.2898 9.14146 12.0307 8.98464 11.5534C8.72555 10.7489 9.10736 9.80118 10.1505 8.65572C10.2801 8.51254 10.4915 8.50572 10.6346 8.63526C10.771 8.76481 10.7846 8.97617 10.6551 9.11935C9.81645 10.0466 9.46191 10.8171 9.63236 11.3489C9.721 11.6284 9.93918 11.7989 10.1983 11.9898C10.4983 12.2216 10.8392 12.4807 10.996 12.958C11.2619 13.7693 10.8801 14.7375 9.81645 15.9239C9.74145 15.9989 9.65282 16.033 9.55736 16.033Z" fill="#999999"/>
</g>
<rect x="2.63423" y="2.63814" width="19.0909" height="19.0909" rx="0.454545" stroke="#C4C4C4" stroke-width="0.909091"/>
<path d="M21.2705 4.91016C21.7723 4.91037 22.1796 5.31748 22.1797 5.81934V21.2734C22.1797 21.7754 21.7724 22.1824 21.2705 22.1826H3.08887L2.99609 22.1777C2.53756 22.1313 2.17969 21.7442 2.17969 21.2734V5.81934C2.17979 5.34865 2.53764 4.96149 2.99609 4.91504L3.08887 4.91016H21.2705ZM3.08887 21.2734H21.2705V5.81934H3.08887V21.2734Z" fill="#C4C4C4"/>
<path d="M10.3594 2.18359H13.9957V5.81996C13.9957 6.32203 13.5887 6.72905 13.0866 6.72905H11.2685C10.7664 6.72905 10.3594 6.32203 10.3594 5.81996V2.18359Z" fill="#C4C4C4"/>
<defs>
<clipPath id="clip0_6807_11603">
<rect width="16.3636" height="16.3636" fill="white" transform="translate(4 4)"/>
</clipPath>
</defs>
</svg>
