<svg width="120" height="120" viewBox="0 0 120 120" fill="none" xmlns="http://www.w3.org/2000/svg">
<rect width="120" height="120" fill="#C4C4C4"/>
<g clip-path="url(#clip0_7542_9275)">
<path d="M89.8393 33V54.6478C89.1056 54.4263 88.3526 54.2508 87.5835 54.1258V35.3032H24.2558V61.9215L42.5245 47.3917L57.2055 62.3811H69.4523C67.6294 65.2666 66.5724 68.7039 66.5724 72.3923C66.5724 75.2087 67.189 77.8783 68.2911 80.2681C68.4716 80.6596 68.666 81.0435 68.8722 81.4197C69.0881 81.8134 69.3169 82.1973 69.5586 82.5713H22V33H89.8393Z" fill="white"/>
<path d="M84.6963 57.7852C85.6865 57.7852 86.6536 57.8878 87.5869 58.083C88.3634 58.2453 89.1178 58.4726 89.8428 58.7588C95.2019 60.8689 99.0038 66.1774 99.0039 72.3916C99.0039 80.4594 92.598 87 84.6963 87C80.6728 86.9999 77.0358 85.303 74.4375 82.5713C74.0884 82.2061 73.7586 81.8204 73.4492 81.4189C73.1646 81.0494 72.8958 80.6646 72.6455 80.2676C71.219 77.9951 70.3906 75.2914 70.3906 72.3916C70.3907 68.5169 71.8688 64.9944 74.2803 62.3809C76.8894 59.5513 80.5909 57.7853 84.6963 57.7852ZM84.6963 78.0049C83.9532 78.0051 83.3526 78.6182 83.3525 79.377C83.3525 80.1358 83.9521 80.7488 84.6963 80.749C85.4396 80.749 86.04 80.1359 86.04 79.377C86.04 78.618 85.4396 78.0049 84.6963 78.0049ZM84.625 64.0342C83.857 64.0342 83.3765 65.0645 83.4248 65.9463L84.2412 76.4854H84.9609L85.873 65.9463C85.945 65.0394 85.4412 64.0344 84.625 64.0342Z" fill="white"/>
</g>
<defs>
<clipPath id="clip0_7542_9275">
<rect width="77" height="54" fill="white" transform="translate(22 33)"/>
</clipPath>
</defs>
</svg>
