<svg width="24" height="24" viewBox="0 0 24 24" fill="none" xmlns="http://www.w3.org/2000/svg">
<g clip-path="url(#clip0_7899_7789)">
<path d="M7.3192 21.9866C7.2292 21.9866 7.1492 21.9666 7.0692 21.9166C6.8292 21.7766 6.7492 21.4666 6.8892 21.2366C7.8192 19.6566 7.6492 19.0866 7.3292 18.6966C6.2892 17.4466 7.1892 15.4566 7.2192 15.3766C7.3292 15.1266 7.6292 15.0166 7.8792 15.1266C8.1292 15.2366 8.2392 15.5366 8.1292 15.7866C7.9392 16.2066 7.5692 17.4266 8.0892 18.0566C9.0292 19.1866 8.4392 20.5566 7.7392 21.7466C7.6492 21.8966 7.4892 21.9866 7.3192 21.9866Z" fill="#FF4D4D"/>
<path d="M11.6161 21.9866C11.5261 21.9866 11.4461 21.9666 11.3661 21.9166C11.1261 21.7766 11.0461 21.4666 11.1861 21.2366C12.1161 19.6566 11.9461 19.0866 11.6261 18.6966C10.5861 17.4566 11.4861 15.4566 11.5161 15.3766C11.6261 15.1266 11.9261 15.0166 12.1761 15.1266C12.4261 15.2366 12.5361 15.5366 12.4261 15.7866C12.2361 16.2066 11.8661 17.4266 12.3861 18.0566C13.3261 19.1866 12.7361 20.5566 12.0361 21.7466C11.9561 21.8966 11.7861 21.9866 11.6161 21.9866Z" fill="#FF4D4D"/>
<path d="M15.9051 21.9866C15.8151 21.9866 15.7351 21.9666 15.6551 21.9166C15.4151 21.7766 15.3351 21.4666 15.4751 21.2366C16.4051 19.6566 16.2351 19.0866 15.9151 18.6966C14.8751 17.4466 15.7751 15.4566 15.8051 15.3766C15.9151 15.1266 16.2151 15.0166 16.4651 15.1266C16.7151 15.2366 16.8251 15.5366 16.7151 15.7866C16.5251 16.2066 16.1551 17.4266 16.6751 18.0566C17.6151 19.1866 17.0251 20.5566 16.3251 21.7466C16.2451 21.8966 16.0751 21.9866 15.9051 21.9866Z" fill="#FF4D4D"/>
<path d="M10.0908 11.6016H13.9023C14.1997 11.6016 14.3926 11.9138 14.2598 12.1797L13.46 13.7803C13.3922 13.9156 13.2539 14.0009 13.1025 14.001H10.8916C10.7401 14.001 10.601 13.9158 10.5332 13.7803L9.7334 12.1797C9.60083 11.9139 9.79387 11.6019 10.0908 11.6016Z" stroke="#FF4D4D" stroke-width="0.8"/>
<path d="M7.42285 7.60352H16.5742C16.8342 7.60377 17.025 7.84826 16.9619 8.10059L16.5615 9.7002C16.517 9.87819 16.3573 10.0029 16.1738 10.0029H7.82324C7.6397 10.0029 7.47909 9.87826 7.43457 9.7002L7.03516 8.10059C6.97206 7.84819 7.16273 7.60365 7.42285 7.60352Z" stroke="#FF4D4D" stroke-width="0.8"/>
<path d="M4.11816 1.19922H19.873C20.1164 1.1993 20.3029 1.41438 20.2686 1.65527L19.6973 5.65527C19.6691 5.85224 19.5007 5.99889 19.3018 5.99902H4.68945C4.49039 5.99902 4.32112 5.85233 4.29297 5.65527L3.72168 1.65527C3.68734 1.41435 3.87479 1.19922 4.11816 1.19922Z" stroke="#FF4D4D" stroke-width="0.8"/>
</g>
<defs>
<clipPath id="clip0_7899_7789">
<rect width="24" height="24" fill="white"/>
</clipPath>
</defs>
</svg>
