<?xml version="1.0" encoding="utf-8"?>
<!-- Generator: Adobe Illustrator 28.0.0, SVG Export Plug-In . SVG Version: 6.00 Build 0)  -->
<svg version="1.1" id="图层_1" xmlns="http://www.w3.org/2000/svg" xmlns:xlink="http://www.w3.org/1999/xlink" x="0px" y="0px"
	 viewBox="0 0 200 200" style="enable-background:new 0 0 200 200;" xml:space="preserve">
<style type="text/css">
	.st0{fill:#FFFFFF;stroke:#070203;stroke-width:0.8504;stroke-miterlimit:10;}
	.st1{opacity:0.3;fill:#ACACAC;enable-background:new    ;}
	.st2{fill:none;stroke:#070203;stroke-width:0.2835;stroke-linecap:round;stroke-linejoin:round;stroke-miterlimit:10;}
</style>
<path class="st0" d="M169.9,79.9C169.9,79.9,169.9,79.9,169.9,79.9C169.9,79.9,169.9,79.8,169.9,79.9
	C169.9,79.8,169.9,79.8,169.9,79.9c-0.1-0.1-0.1-0.1-0.1-0.1l0,0c0,0,0,0,0,0c0,0,0,0,0,0l-0.1,0l-0.6-0.2l0.2-2v-0.4c0,0,0,0,0,0
	l-0.1-0.3c0,0,0,0,0-0.1l-0.1-0.1c0,0,0,0-0.1,0l-2.3-0.3c-0.1-1.6-0.3-3.3-0.5-4.5c-0.1-0.6-0.2-1-0.5-1.4v0c0,0,0,0,0,0v0
	c-0.7-0.8-1.6-0.8-1.8-0.8c-14.4-3.4-28.8-6.8-43.1-10.2c-14.4-3.4-28.8-6.8-43.1-10.2c0,0-0.1,0-0.1,0C71.3,52.4,65,55.5,59,58.5
	c0,0,0,0,0,0L32,86v0c0,0,0,0,0,0c0,0,0,0,0,0c0,0,0,0,0,0l1.3,19.9l0.1,2l-0.6,0.7l-0.4,0.5c0,0-0.1,0.1-0.1,0.1l0,0l0,0
	c0,0,0,0,0,0l0,0c0,0,0,0,0,0.1h0l0,2.8l-2.1,4.5c0,0,0,0,0,0c0,0,0,0,0,0.1l0.3,18.2l0,0c0,0,0,0.1,0,0.1l0,0c0,0,0,0,0,0
	l91.2,32.8c0,0,0,0,0,0h0.1c0,0,0,0,0,0l0,0c0,0,0,0,0,0c0,0,0,0,0,0l43.4-37.2c0,0,0,0,0,0l0,0l0,0v0c0,0,0,0,0,0c0,0,0,0,0-0.1
	L169.9,79.9L169.9,79.9z"/>
<path class="st1" d="M169.9,79.9C169.9,79.9,169.9,79.9,169.9,79.9C169.9,79.9,169.9,79.9,169.9,79.9
	C169.9,79.8,169.9,79.8,169.9,79.9L169.9,79.9c-0.1-0.1-0.1-0.1-0.1-0.1l0,0c0,0,0,0,0,0c0,0,0,0,0,0l-0.6-0.1c0,0,0,0,0,0
	c0,0,0,0,0,0l-1,0.1c0,0,0,0,0,0l-0.1,0c0,0,0,0,0,0c0,0,0,0,0,0l-0.3,0.2l-8-2.1l0,0c0,0,0,0,0,0c0,0,0,0,0,0c-0.1,0-0.2,0-0.2,0.1
	l0,0.1l-73.2-19V59c0,0,0,0,0,0c0,0,0,0,0-0.1c0,0,0,0,0,0c0,0,0,0,0,0l-6.8-1.8l-0.4-0.4c0,0-0.1,0-0.2,0c0,0,0,0,0,0
	c0,0-0.1,0-0.1,0.1l-46.3,52.5c0,0,0,0,0,0.1l0,0c0,0,0,0,0,0l0,0l0,2.8l-2.1,4.5c0,0,0,0,0,0c0,0,0,0,0,0.1l0.3,18.2l0,0
	c0,0,0,0.1,0.1,0.1l0,0c0,0,0,0,0,0l91.2,32.8c0,0,0,0,0.1,0h0c0,0,0,0,0,0l0,0c0,0,0,0,0,0c0,0,0,0,0,0l43.4-37.2c0,0,0,0,0-0.1
	c0,0,0,0,0-0.1c0,0,0,0,0-0.1L169.9,79.9L169.9,79.9z M79.8,84.3c-9.1,5.4-18.2,10.8-27.2,16.2c-1.7-0.5-3.4-0.9-5.1-1.4
	c-0.6,0.4-1.2,0.7-1.9,1.1c4.2-4.8,8.4-9.7,12.6-14.5c0,0.1,0.1,0.2,0.1,0.3c0.3,0,0.5,0.1,0.8,0.1c0.3-0.3,0.6-0.6,0.9-0.9
	c0.1-0.5,0.1-1,0.2-1.6c6.4-7.4,12.9-14.9,19.3-22.3c27.9,7.3,55.7,14.7,83.6,22c-2.7,3.7-5.4,7.4-8,11.1c-2.4-0.7-4.7-1.4-7.1-2.1
	c0.1-0.7,0.1-1.5,0.2-2.2c-0.1,0-0.3-0.1-0.4-0.1c-0.9,0.6-1.7,1.2-2.6,1.8c-0.3,4.1-0.6,8.3-0.9,12.4c0,0.1,0,0.3,0.1,0.6
	c0.1,0.2,0.3,0.3,0.4,0.4c0.7,0.2,1.3,0.4,2,0.6c-0.7,1-2.6,3.6-3.3,4.6c-0.4,0.6-2.1,2.8-2.5,3.4c-1-0.4-2-0.7-3.1-1.1
	c0.2-0.2,0.4-0.5,0.6-0.7c0-0.7,0-1.5,0-2.2c-0.9-0.3-1.9-0.5-2.8-0.8c-0.2,1-0.3,2.1-0.5,3.1c-1.8-0.5-3.6-1.1-5.4-1.6
	c0-0.3,0-0.6,0-0.9c-3,2.2-6,4.4-9,6.6c-1,1.6-2.1,3.1-3.1,4.7c-0.8-0.3-1.6-0.5-2.5-0.8c1.1-1.6,2.2-3.1,3.3-4.7
	c1.8-1.3,3.7-2.7,5.5-4c0.8-0.7,1.7-1.3,2.5-2c-3.2-1-6.4-1.9-9.6-2.9c0.2-0.2,0.3-0.4,0.5-0.6c0-0.8,0-1.6,0-2.4
	c-0.9-0.2-1.9-0.5-2.8-0.7c-0.1,0.8-0.1,1.5-0.2,2.3c-0.1,0.2-0.1,0.4-0.2,0.6c-2-0.6-4-1.2-5.9-1.8c0-0.3,0-0.6,0-0.9
	c-3.1,2.1-6.2,4.2-9.3,6.3c-1,1.5-2,2.9-3,4.4c-0.8-0.2-1.7-0.4-2.5-0.6c1.2-1.6,2.4-3.2,3.7-4.8c2.7-1.8,5.3-3.7,8-5.5
	c-2.9-0.9-5.8-1.7-8.6-2.6c0.2-0.3,0.4-0.5,0.5-0.8c0-0.7,0-1.5,0-2.2c-0.9-0.2-1.7-0.4-2.6-0.6c0,0.7-0.1,1.5-0.1,2.2
	c0,0.2-0.1,0.5-0.1,0.7c-2.4-0.7-4.7-1.5-7.1-2.2c0-0.1,0-0.1,0-0.2c0.2-0.1,0.4-0.3,0.6-0.4c-3.2,2-6.4,4-9.5,6.1
	c-1.1,1.5-2.1,3-3.2,4.4c-0.7-0.2-1.4-0.5-2.1-0.7c1.1-1.5,2.1-2.9,3.2-4.4c2.9-1.8,5.8-3.6,8.7-5.5c-2.5-0.8-5.1-1.5-7.6-2.3
	c0.1-0.3,0.2-0.6,0.3-0.8c-0.3-0.1-0.6-0.3-0.9-0.4c0-0.7,0.1-1.3,0.1-2c0.3-0.2,0.6-0.4,0.9-0.6c0.1,0,0.1,0,0.2-0.1
	c0-0.1,0.1-0.3,0.3-0.6c0.1-0.1,0.2-0.2,0.3-0.2c0.1,0,0.3,0,0.4-0.1c0-0.1,0.1-0.4,0.5-0.6c0.4-0.2,0.9-0.1,0.9,0
	c0-1.2,0.1-2.5,0.1-3.7c0.9,0.3,1.8,0.5,2.8,0.8c0.2,0.3,0.3,0.7,0.5,1c3.3,1,6.6,1.9,9.9,2.9c1.1-0.7,2.3-1.4,3.4-2.1
	c0.1-4,0.3-8,0.4-12.1c-0.1,0-0.2,0-0.2-0.1c-0.9,0.5-1.8,1-2.7,1.5c-2.7-0.7-5.4-1.3-8.1-2c0-0.8,0-1.6,0-2.5c-1,0.5-2,1-3,1.6
	c-0.2,3.5-0.3,7-0.5,10.5C81.7,85,80.8,84.6,79.8,84.3z"/>
<image style="overflow:visible;" width="634" height="489" xlink:href="C5756A61.jpg"  transform="matrix(1 0 0 1 -7894 -7770.1104)">
</image>
<image style="overflow:visible;" width="634" height="489" xlink:href="C5756A63.jpg"  transform="matrix(1 0 0 1 -1102.421 775.8289)">
</image>
<g>
	<polyline class="st2" points="86.2,75.5 86.3,73.3 85.9,73.2 83.1,74.9 82.9,86.7 82.9,87 83,87.2 83.2,87.4 83.3,87.5 83.5,87.6 
		93.3,90.4 93.5,90.5 93.7,90.4 	"/>
	<polyline class="st2" points="83.9,75.8 84.6,76 84.4,86.4 	"/>
	<polyline class="st2" points="59.5,84.6 59.6,84.7 59.7,84.8 59.7,85 59.7,85.2 59.6,85.5 59.5,85.7 59.4,85.8 59.2,85.9 
		59.1,85.9 	"/>
	<polyline class="st2" points="168.8,79.9 169,77.6 169,77.4 169,77.2 168.9,76.9 168.8,76.8 168.7,76.8 166.3,76.4 	"/>
	<polyline class="st2" points="86,59 79.1,57.2 79.1,57.2 	"/>
	<polyline class="st2" points="159.6,78.1 167.8,80.2 167.8,80.2 167.8,80.2 167.8,80.2 	"/>
	<line class="st2" x1="166.4" y1="82.2" x2="165.3" y2="81.9"/>
	<polyline class="st2" points="147.9,92.6 148,90.3 147.6,90.2 145.1,92 144.2,104.4 144.2,104.7 144.3,105 144.5,105.2 
		144.7,105.3 144.9,105.4 146.7,105.9 	"/>
	<line class="st2" x1="95.3" y1="117.7" x2="95.3" y2="117.9"/>
	<polyline class="st2" points="95.3,117.9 95.4,118.1 95.5,118.2 95.8,118.3 96,118.3 96.3,118.3 96.6,118.3 96.9,118.2 97,118.1 
		97.1,118 97.1,117.9 	"/>
	<polyline class="st2" points="129.6,121.3 129.6,121.3 130.2,120.2 130.8,119.1 130.9,119 	"/>
	<polyline class="st2" points="90.3,106.5 90.3,106.6 89.7,107.5 87.8,110.5 	"/>
	<polyline class="st2" points="136.6,108.6 136.7,108.4 136.9,108 137.1,107.7 137.2,107.6 137.4,107.6 138.3,107.8 138.5,107.9 	
		"/>
	<polygon class="st2" points="75.3,111 75.3,110.9 75.3,110.8 75.1,110.6 74.9,110.6 74.6,110.5 74.2,110.5 73.9,110.6 73.6,110.7 
		73.6,110.7 73.5,110.9 73.5,110.9 73.5,111.1 73.6,111.2 73.8,111.3 74.1,111.4 74.3,111.4 74.6,111.4 74.9,111.3 75.1,111.3 
		75.3,111.2 	"/>
	<polygon class="st2" points="54.5,104.4 54.5,104.2 54.4,104.1 54.2,104 54,103.9 53.6,103.9 53.3,103.9 53,104 52.9,104.1 
		52.8,104.2 52.7,104.4 52.8,104.5 52.9,104.6 53.1,104.7 53.4,104.8 53.6,104.8 53.9,104.8 54.2,104.7 54.4,104.6 54.5,104.5 
		54.5,104.4 	"/>
	<polyline class="st2" points="116.1,101.5 116,101.7 115.7,102 115.6,102.4 	"/>
	<polyline class="st2" points="96.9,96.6 96.9,96.8 96.9,96.8 	"/>
	<polygon class="st2" points="119.9,125.3 119.9,125.1 119.9,125 119.8,124.9 119.6,124.7 119.3,124.6 119,124.6 118.6,124.6 
		118.3,124.7 118.1,124.8 118,125 118,125.1 118.1,125.3 118.3,125.4 118.5,125.5 118.8,125.6 119.1,125.6 119.4,125.6 119.6,125.5 
		119.8,125.4 	"/>
	<line class="st2" x1="97" y1="97.5" x2="97.1" y2="97.6"/>
	<polyline class="st2" points="135.9,109.1 136.5,108.6 137.6,108.9 138.7,108.1 	"/>
	<polyline class="st2" points="97.4,96 97.3,95.9 97.3,95.8 97.1,95.7 96.3,95.5 96.1,95.5 95.9,95.6 95.9,95.6 95.6,96 95.5,96.4 
		95.5,96.4 	"/>
	<polyline class="st2" points="35.8,110 35.8,108.1 35.8,108 35.8,108 36.1,107.7 36.1,107.7 36.1,107.7 36.2,107.7 36.2,107.7 
		124.9,136.7 125,136.8 125,136.8 125,136.8 124.9,139 	"/>
	<line class="st2" x1="86.3" y1="73.3" x2="83.7" y2="74.8"/>
	<line class="st2" x1="90.9" y1="89" x2="90.2" y2="88.8"/>
	<line class="st2" x1="90.2" y1="88.8" x2="90.6" y2="77.7"/>
	<line class="st2" x1="88.3" y1="77.1" x2="88" y2="88.2"/>
	<line class="st2" x1="86.1" y1="76.5" x2="85.9" y2="87.5"/>
	<polyline class="st2" points="93.7,90.4 93.9,90.3 93.9,90.1 94,89.9 94.4,78 97.1,76.3 	"/>
	<line class="st2" x1="86.9" y1="87.9" x2="87.2" y2="76.8"/>
	<line class="st2" x1="87.6" y1="88.1" x2="86.9" y2="87.9"/>
	<line class="st2" x1="83.1" y1="74.9" x2="94.4" y2="78"/>
	<path class="st2" d="M83.7,85.8L84,86l0.3,0.2c0,0.1,0.1,0.1,0.1,0.2"/>
	<line class="st2" x1="84.8" y1="87.2" x2="85" y2="76.2"/>
	<line class="st2" x1="83.9" y1="75.8" x2="83.7" y2="85.8"/>
	<line class="st2" x1="89.8" y1="88.7" x2="89.1" y2="88.5"/>
	<line class="st2" x1="89.1" y1="88.5" x2="89.5" y2="77.4"/>
	<polyline class="st2" points="93.2,88.5 93,88.5 92.7,88.6 	"/>
	<line class="st2" x1="92.8" y1="78.3" x2="92.5" y2="88.7"/>
	<line class="st2" x1="92.1" y1="89.3" x2="91.4" y2="89.1"/>
	<line class="st2" x1="91.7" y1="78" x2="91.4" y2="89.1"/>
	<polyline class="st2" points="58.9,85 58.9,85.2 58.8,85.4 58.9,85.6 58.9,85.8 59,85.9 59.1,85.9 	"/>
	<polyline class="st2" points="59.5,84.6 59.4,84.5 59.3,84.5 59.2,84.6 59,84.8 58.9,85 	"/>
	<polyline class="st2" points="59.3,84.9 59.4,85 59.4,85.3 59.2,85.5 	"/>
	<polyline class="st2" points="168.2,77.2 168.2,77.4 168,77.7 167.9,78 167.9,78.4 	"/>
	<line class="st2" x1="167.7" y1="80.2" x2="167.9" y2="78.4"/>
	<line class="st2" x1="85.9" y1="59" x2="79" y2="57.2"/>
	<polyline class="st2" points="78.8,57.3 78.8,57.3 78.8,57.3 	"/>
	<line class="st2" x1="79.1" y1="57.2" x2="79" y2="57.2"/>
	<polyline class="st2" points="78.8,57.3 167.5,80.4 167.5,80.4 167.5,80.4 167.5,80.4 	"/>
	<line class="st2" x1="159" y1="78" x2="155.1" y2="76.9"/>
	<line class="st2" x1="159.4" y1="78.1" x2="159.6" y2="78.1"/>
	<line class="st2" x1="167.6" y1="80.2" x2="167.8" y2="80.2"/>
	<line class="st2" x1="165" y1="81.9" x2="165.3" y2="81.9"/>
	<line class="st2" x1="167.5" y1="80.7" x2="167.5" y2="80.4"/>
	<line class="st2" x1="164.4" y1="81.5" x2="164.2" y2="81.8"/>
	<polyline class="st2" points="164.1,82 164.1,81.8 164.1,81.8 164.2,81.8 164.2,81.8 	"/>
	<line class="st2" x1="79.1" y1="59.6" x2="164.1" y2="81.8"/>
	<polyline class="st2" points="79.1,59.6 79.1,59.6 79.1,59.5 	"/>
	<polyline class="st2" points="165.1,83.1 165.1,83.2 125,138.7 125,138.8 124.9,138.8 124.9,138.8 	"/>
	<polyline class="st2" points="125,136.8 125,136.7 125.1,136.7 125.1,136.7 125.1,136.7 125,138.7 	"/>
	<polyline class="st2" points="124.6,136.6 124.6,136.6 124.6,136.5 124.6,136.5 	"/>
	<polyline class="st2" points="125,136.7 125,136.7 125,136.6 125,136.6 125.1,136.6 125.1,136.6 125.1,136.6 125.1,136.7 	"/>
	<polyline class="st2" points="124.6,136.5 124.6,136.4 124.6,136.5 125,136.6 	"/>
	<line class="st2" x1="125.1" y1="136.7" x2="165" y2="81.7"/>
	<polyline class="st2" points="59.3,84.5 59.5,84.4 59.6,84.4 59.7,84.5 59.8,84.7 59.8,85 	"/>
	<polyline class="st2" points="59.8,85 59.8,85.3 59.7,85.6 59.5,85.8 59.4,86 59.2,86.1 59,86 58.9,86 58.9,85.8 	"/>
	<line class="st2" x1="40.7" y1="103.2" x2="79.2" y2="59.3"/>
	<polyline class="st2" points="36.7,107.9 36.7,107.7 39,105.2 	"/>
	<path class="st2" d="M58.7,85.6l0,0.2l0.1,0.2l0.1,0.2c0.1,0,0.1,0.1,0.2,0.1"/>
	<line class="st2" x1="58.7" y1="85.6" x2="58.7" y2="85"/>
	<polyline class="st2" points="34.6,109.7 34.7,109.6 34.9,109.5 35.2,109.5 35.4,109.5 35.5,109.6 35.6,109.8 	"/>
	<polyline class="st2" points="36.6,107.8 36.6,107.8 36.6,107.7 36.6,107.7 36.6,107.7 36.6,107.7 36.7,107.7 36.7,107.7 	"/>
	<polyline class="st2" points="36.6,107.8 36.6,107.8 36.7,107.8 36.7,107.7 	"/>
	<polyline class="st2" points="36.2,107.6 36.2,107.6 36.2,107.6 36.6,107.8 	"/>
	<line class="st2" x1="36.2" y1="107.6" x2="36.2" y2="107.7"/>
	<polyline class="st2" points="36.2,107.6 36.2,107.6 36.3,107.6 36.3,107.5 36.6,107.7 	"/>
	<polyline class="st2" points="36.3,107.5 36.2,107.5 36.2,107.6 	"/>
	<polyline class="st2" points="79.2,59.2 79.2,59.2 79.2,59.3 	"/>
	<line class="st2" x1="148" y1="90.3" x2="145.7" y2="92"/>
	<line class="st2" x1="148.4" y1="93.7" x2="147.6" y2="104.7"/>
	<line class="st2" x1="145.1" y1="92" x2="154.9" y2="94.7"/>
	<path class="st2" d="M145.2,103.5l0.3,0.2l0.3,0.3c0,0.1,0.1,0.1,0.1,0.2"/>
	<line class="st2" x1="146.3" y1="105" x2="147.2" y2="93.4"/>
	<line class="st2" x1="145.9" y1="93" x2="145.2" y2="103.5"/>
	<polyline class="st2" points="96.9,117.9 96.9,117.8 96.9,117.7 96.7,117.6 96.5,117.5 96.2,117.5 96,117.5 95.7,117.5 95.5,117.6 
		95.4,117.7 	"/>
	<polyline class="st2" points="95.4,117.7 95.4,117.8 95.5,117.9 95.7,118 95.9,118.1 96.2,118.2 96.4,118.1 96.6,118.1 96.8,118 
		96.9,117.9 	"/>
	<polyline class="st2" points="97.1,117.9 97.1,118 96.9,118.1 96.6,118.2 96.3,118.2 95.9,118.2 95.6,118.1 95.4,118 95.3,117.9 
		95.3,117.7 	"/>
	<line class="st2" x1="94.8" y1="107.2" x2="95" y2="106.8"/>
	<polyline class="st2" points="95.9,107.8 95.6,107.7 95.5,107.7 95.5,107.7 95.4,107.8 	"/>
	<line class="st2" x1="90.5" y1="105.4" x2="90.3" y2="105.8"/>
	<line class="st2" x1="92.6" y1="112.2" x2="92.6" y2="112.3"/>
	<line class="st2" x1="129.6" y1="118.2" x2="129.8" y2="118.2"/>
	<path class="st2" d="M88.9,105.8l-0.6,1c-0.2,0.3-0.4,0.6-0.6,1"/>
	<line class="st2" x1="93.5" y1="107.5" x2="93.2" y2="107.4"/>
	<line class="st2" x1="90.4" y1="111.6" x2="90.4" y2="111.5"/>
	<line class="st2" x1="132" y1="119.3" x2="131.6" y2="119.2"/>
	<polyline class="st2" points="92.1,107 92,107 92,107.1 92,107.1 	"/>
	<line class="st2" x1="92.1" y1="107" x2="92.4" y2="107.2"/>
	<polyline class="st2" points="92,107.1 91.3,108.2 90.7,109.2 90,110.2 89.3,111.2 	"/>
	<line class="st2" x1="134.3" y1="120" x2="134" y2="119.9"/>
	<line class="st2" x1="131.2" y1="124.4" x2="131.2" y2="124.3"/>
	<polyline class="st2" points="88.4,105.5 88.3,105.5 88.3,105.5 	"/>
	<line class="st2" x1="88.3" y1="105.5" x2="88" y2="105.4"/>
	<line class="st2" x1="91.5" y1="111.9" x2="91.5" y2="111.9"/>
	<line class="st2" x1="91.4" y1="106.8" x2="91" y2="106.7"/>
	<polyline class="st2" points="91,106.7 91,106.7 90.9,106.7 90.9,106.8 	"/>
	<line class="st2" x1="88.2" y1="110.9" x2="88.2" y2="110.9"/>
	<polyline class="st2" points="88.2,110.9 88.9,109.9 89.6,108.9 90.2,107.9 90.9,106.8 	"/>
	<line class="st2" x1="132.8" y1="119.6" x2="133.2" y2="119.7"/>
	<polyline class="st2" points="132.8,119.6 132.7,119.6 132.7,119.6 132.7,119.6 	"/>
	<line class="st2" x1="130" y1="124" x2="130" y2="124"/>
	<polyline class="st2" points="130,124 130.7,122.9 131.4,121.9 132,120.8 132.7,119.6 	"/>
	<line class="st2" x1="130.8" y1="119" x2="130.4" y2="118.8"/>
	<polyline class="st2" points="130.4,118.8 130.4,118.8 130.3,118.9 130.3,118.9 	"/>
	<polyline class="st2" points="134,119.9 133.9,119.9 133.9,120 133.8,120 	"/>
	<polyline class="st2" points="133.8,120 133.2,121.1 132.6,122.2 131.9,123.3 131.2,124.3 	"/>
	<polyline class="st2" points="92.5,107.2 92.5,107.2 92.4,107.2 	"/>
	<polyline class="st2" points="130.3,118.9 130.2,119 129.6,120.2 	"/>
	<path class="st2" d="M131.5,119.3L131.5,119.3L131.5,119.3c0.1-0.1,0.1-0.1,0.1-0.1"/>
	<path class="st2" d="M94.1,107.8l-0.6,1.1l-0.7,1l-0.7,1c-0.2,0.3-0.5,0.6-0.7,1"/>
	<polyline class="st2" points="131.5,119.3 130.9,120.4 130.2,121.5 129.5,122.6 129.5,122.6 	"/>
	<polyline class="st2" points="94.7,107.9 94.6,107.8 94.6,107.8 	"/>
	<polyline class="st2" points="94.6,107.8 94.3,107.7 94.2,107.7 94.2,107.7 94.1,107.8 	"/>
	<polyline class="st2" points="93.2,107.4 93.1,107.4 93.1,107.4 93.1,107.4 	"/>
	<polyline class="st2" points="93.1,107.4 92.4,108.5 91.8,109.6 91.1,110.6 90.4,111.5 	"/>
	<polyline class="st2" points="89.9,106.4 89.9,106.4 89.8,106.4 89.8,106.4 	"/>
	<line class="st2" x1="90.3" y1="106.5" x2="89.9" y2="106.4"/>
	<polyline class="st2" points="90.3,106.5 90.3,106.5 90.3,106.5 	"/>
	<polyline class="st2" points="135.6,120.5 135.6,120.4 135.5,120.4 	"/>
	<line class="st2" x1="135.5" y1="120.4" x2="135.1" y2="120.3"/>
	<path class="st2" d="M135,120.4L135,120.4L135,120.4c0.1-0.1,0.1-0.1,0.1-0.1"/>
	<polyline class="st2" points="132.4,124.8 133.1,123.7 133.7,122.6 134.4,121.5 135,120.4 	"/>
	<path class="st2" d="M87.8,109.6l0.7-1l0.7-1c0.2-0.4,0.4-0.7,0.6-1.1"/>
	<polyline class="st2" points="129.8,118.2 129.9,118.2 129.9,118.3 	"/>
	<polyline class="st2" points="92.6,112.2 93.3,111.2 94,110.1 94.8,108.9 95.4,107.8 	"/>
	<polyline class="st2" points="89.4,105.8 89.4,105.8 89.4,105.8 	"/>
	<line class="st2" x1="89.4" y1="105.8" x2="89" y2="105.7"/>
	<polyline class="st2" points="132.2,116.6 136.9,118 137.1,117.8 	"/>
	<polyline class="st2" points="136.9,118 136.9,118.2 132.2,116.8 	"/>
	<polyline class="st2" points="136.9,118.2 136.7,118.4 132.1,116.9 	"/>
	<polyline class="st2" points="136.7,118.4 136.5,118.8 131.9,117.3 	"/>
	<polyline class="st2" points="91.4,104.1 95.7,105.4 95.9,105.3 	"/>
	<polyline class="st2" points="91.4,104.4 95.7,105.7 95.7,105.4 	"/>
	<polyline class="st2" points="88,105.4 87.9,105.4 87.9,105.4 87.9,105.4 	"/>
	<line class="st2" x1="87.9" y1="105.4" x2="87.7" y2="105.6"/>
	<polyline class="st2" points="91.2,104.5 95.5,105.8 95.7,105.7 	"/>
	<polyline class="st2" points="95.5,105.8 95.3,106.2 95.3,106.7 	"/>
	<line class="st2" x1="91" y1="104.9" x2="95.3" y2="106.2"/>
	<line class="st2" x1="93.7" y1="112.6" x2="93.7" y2="112.6"/>
	<line class="st2" x1="96.6" y1="108" x2="97" y2="108.1"/>
	<polyline class="st2" points="96.6,108 96.6,108 96.6,108.1 96.5,108.1 	"/>
	<polyline class="st2" points="96.5,108.1 95.8,109.3 95.1,110.4 94.4,111.5 93.7,112.6 	"/>
	<line class="st2" x1="131.1" y1="118.3" x2="131.3" y2="117.9"/>
	<line class="st2" x1="136" y1="119.8" x2="136.2" y2="119.4"/>
	<polyline class="st2" points="124.2,136.5 123.7,131 39.5,103.9 	"/>
	<line class="st2" x1="131.1" y1="125.3" x2="123.7" y2="131"/>
	<line class="st2" x1="90.8" y1="105.5" x2="91" y2="105.5"/>
	<line class="st2" x1="138.6" y1="108.2" x2="138.7" y2="108.1"/>
	<polyline class="st2" points="136.6,108.6 136.6,108.5 136.3,108.4 	"/>
	<line class="st2" x1="136.7" y1="108.5" x2="136.6" y2="108.5"/>
	<polyline class="st2" points="136.9,107.2 136.9,107.3 137.1,107.3 	"/>
	<polyline class="st2" points="137.2,107.6 137.2,107.6 136.9,107.3 	"/>
	<polyline class="st2" points="137.4,106.5 137.2,106.6 136.9,106.8 136.8,107 136.5,107.5 136.2,108 136,108.7 136,109 	"/>
	<path class="st2" d="M138.3,107.8l-0.1,0l-0.1,0.1l-0.1,0.1l-0.1,0.2l-0.1,0.2l-0.1,0.2c0,0.1,0,0.1-0.1,0.2"/>
	<path class="st2" d="M75.1,111L75.1,111l0.1-0.2l-0.1-0.1l-0.2-0.1l-0.3-0.1l-0.2,0l-0.2,0l-0.2,0.1c-0.1,0-0.1,0.1-0.2,0.1"/>
	<polyline class="st2" points="73.8,110.8 73.7,110.8 73.7,110.9 73.8,111.1 74,111.2 74.2,111.2 74.5,111.2 74.7,111.2 74.9,111.1 
		75.1,111 	"/>
	<line class="st2" x1="75.3" y1="110.9" x2="75.3" y2="111.1"/>
	<polyline class="st2" points="73.5,110.9 73.6,111 73.7,111.2 74,111.2 74.3,111.3 74.6,111.3 75,111.2 75.2,111.1 75.3,111.1 	"/>
	<path class="st2" d="M54.2,104.5l-0.2,0.1l-0.3,0l-0.2,0l-0.2,0l-0.2-0.1l-0.1-0.1l0-0.1l0.1-0.1l0.1,0c0,0,0.4-0.2,0.9-0.1
		C54.4,104.1,54.5,104.3,54.2,104.5z"/>
	<polyline class="st2" points="54.5,104.2 54.5,104.4 54.4,104.5 	"/>
	<polyline class="st2" points="52.8,104.2 52.7,104.4 52.8,104.5 53,104.6 53.3,104.7 53.6,104.7 54,104.7 54.3,104.6 54.4,104.5 	
		"/>
	<path class="st2" d="M116.1,101.5c0.1,0,0.1-0.1,0.2-0.1"/>
	<line class="st2" x1="116.6" y1="102.6" x2="116.7" y2="102.3"/>
	<polyline class="st2" points="117.6,101.9 117.4,101.7 117.2,101.7 117,101.9 116.7,102.3 	"/>
	<polyline class="st2" points="115.7,102 115.7,102 115.9,101.7 	"/>
	<polyline class="st2" points="116.5,101.2 116.5,101 116.7,101.1 116.7,101 116.5,100.8 	"/>
	<polyline class="st2" points="116.2,100.8 116.4,100.9 116.5,101 	"/>
	<line class="st2" x1="116.2" y1="101.2" x2="116.4" y2="100.9"/>
	<line class="st2" x1="115.7" y1="102" x2="115.4" y2="101.8"/>
	<polyline class="st2" points="116.5,100.4 116.3,100.4 116.1,100.5 115.9,100.7 115.6,101 115.5,101.2 115.3,101.4 115.1,101.9 
		115,102.5 114.9,102.7 114.9,102.8 	"/>
	<line class="st2" x1="118" y1="125" x2="118" y2="125"/>
	<polyline class="st2" points="119.7,125 119.7,125 119.6,124.9 119.4,124.7 119.1,124.7 118.8,124.7 118.6,124.7 118.4,124.8 
		118.2,124.9 118.2,125 	"/>
	<polyline class="st2" points="118.2,125 118.2,125.1 118.4,125.2 118.6,125.3 118.9,125.4 119.2,125.4 119.4,125.4 119.6,125.3 
		119.7,125.2 119.7,125 	"/>
	<polyline class="st2" points="119.9,125.1 119.9,125.3 119.6,125.4 119.3,125.5 119,125.5 118.7,125.4 118.4,125.4 118.1,125.2 
		118,125 	"/>
	<polyline class="st2" points="118.4,115.6 120.7,116.3 129.7,109.7 	"/>
	<polyline class="st2" points="96.7,109 98.9,109.6 108.2,103.3 	"/>
	<polygon class="st2" points="117,105.8 117,106.5 116.7,106.7 	"/>
	<line class="st2" x1="117" y1="105.8" x2="114.6" y2="105.1"/>
	<polyline class="st2" points="138,116.1 132.9,114.6 132.7,116.5 	"/>
	<polyline class="st2" points="129.6,117.3 131.3,117.9 131.3,118.4 	"/>
	<line class="st2" x1="108.2" y1="110.8" x2="120.1" y2="114.4"/>
	<line class="st2" x1="95.3" y1="106.8" x2="98.4" y2="107.8"/>
	<polyline class="st2" points="90.5,105.8 90.5,105.4 87.9,104.5 87.7,104.5 	"/>
	<line class="st2" x1="95.8" y1="114.2" x2="98.9" y2="109.6"/>
	<polyline class="st2" points="92,104.1 92.1,102.2 91.3,103.8 90.5,105.4 	"/>
	<line class="st2" x1="138.4" y1="109.8" x2="138.4" y2="109.8"/>
	<line class="st2" x1="86.9" y1="97.8" x2="94.1" y2="99.9"/>
	<polyline class="st2" points="77.6,92 77.6,94.7 77.7,94.6 	"/>
	<path class="st2" d="M77.5,94.7l-0.2-0.1L77,94.8c2.5,0.8,5.1,1.5,7.6,2.3"/>
	<line class="st2" x1="117.6" y1="121.1" x2="120.7" y2="116.3"/>
	<line class="st2" x1="96.9" y1="96.7" x2="96.7" y2="96.8"/>
	<polyline class="st2" points="74.9,107.7 78.1,103.2 76,102.6 	"/>
	<line class="st2" x1="78.1" y1="103.2" x2="87.6" y2="97.2"/>
	<line class="st2" x1="117.1" y1="102.6" x2="116.9" y2="102.8"/>
	<line class="st2" x1="135.3" y1="112" x2="135.3" y2="112"/>
	<path class="st2" d="M135.7,109.1C135.6,109.1,135.6,109.1,135.7,109.1"/>
	<path class="st2" d="M117.3,103.8l-0.1,2.7l0.1-0.1c0,0,0,0,0,0"/>
	<path class="st2" d="M117.2,103.7L117.2,103.7L117.2,103.7c0.1,0.1,0.1,0.1,0.1,0.2"/>
	<path class="st2" d="M114.6,102.9c0.9,0.3,1.7,0.5,2.6,0.8"/>
	<polyline class="st2" points="96.9,97.7 94.5,96.9 94.4,96.9 	"/>
	<path class="st2" d="M97.1,97.8L97.1,97.8L97,97.7c0,0,0,0,0,0"/>
	<polyline class="st2" points="140.9,114 137.8,113 138.1,112.8 138.3,112.9 	"/>
	<polyline class="st2" points="135.6,111.4 138.1,112.1 138.1,112.8 	"/>
	<line class="st2" x1="126.6" y1="109.7" x2="116.7" y2="106.7"/>
	<line class="st2" x1="135.2" y1="112.3" x2="129.7" y2="110.6"/>
	<polyline class="st2" points="105.2,103.3 96.4,100.6 96.8,99.8 94.4,99.1 	"/>
	<line class="st2" x1="114.2" y1="106" x2="108.2" y2="104.2"/>
	<polyline class="st2" points="77.3,94.6 77.3,94 77,94.8 	"/>
	<line class="st2" x1="138.8" y1="109.5" x2="138.4" y2="109.8"/>
	<line class="st2" x1="77.8" y1="94.3" x2="79" y2="93.6"/>
	<polyline class="st2" points="77.6,91.8 77.5,91.8 77.9,91.6 	"/>
	<polyline class="st2" points="77.6,92 77.6,92 77.5,91.9 77.5,91.9 	"/>
	<polyline class="st2" points="138.3,112.9 138.3,112.9 138.4,112.9 138.4,112.9 138.5,110.1 	"/>
	<polyline class="st2" points="141.6,107.7 141.6,107.4 141.3,107.7 	"/>
	<line class="st2" x1="138.5" y1="112.4" x2="139.6" y2="111.7"/>
	<line class="st2" x1="138" y1="109" x2="138.2" y2="108.9"/>
	<line class="st2" x1="135.7" y1="109.1" x2="138.4" y2="109.9"/>
	<polyline class="st2" points="138.4,109.9 138.4,110 138.5,110 138.5,110.1 	"/>
	<line class="st2" x1="139.1" y1="106.7" x2="141.6" y2="107.4"/>
	<polyline class="st2" points="80.7,89.9 81,89.7 81,90 	"/>
	<polyline class="st2" points="81,89.7 80,89.4 79.7,89.6 	"/>
	<polyline class="st2" points="77.3,91.1 76.5,91.6 77.5,91.9 	"/>
	<path class="st2" d="M117.2,106.5c-0.1,0-0.1,0-0.2-0.1"/>
	<line class="st2" x1="117.3" y1="103.6" x2="117.3" y2="103.6"/>
	<line class="st2" x1="117.7" y1="103.3" x2="117.3" y2="103.6"/>
	<polyline class="st2" points="120.3,101.5 120.5,101.3 120.5,101.6 	"/>
	<line class="st2" x1="117.4" y1="106.2" x2="118.5" y2="105.4"/>
	<line class="st2" x1="118.1" y1="100.6" x2="120.5" y2="101.3"/>
	<polyline class="st2" points="131.3,117.9 132.1,116.2 132.9,114.6 	"/>
	<line class="st2" x1="117.5" y1="101.8" x2="117.7" y2="101.9"/>
	<path class="st2" d="M136.8,119.5c-0.1,0-0.2-0.1-0.4-0.1"/>
	<polyline class="st2" points="96.8,99.8 96.7,100.4 96.4,100.6 	"/>
	<polyline class="st2" points="97.1,97.8 97,100.5 97,100.5 97,100.5 96.9,100.5 96.7,100.4 	"/>
	<line class="st2" x1="97.2" y1="100.1" x2="98.3" y2="99.4"/>
	<polyline class="st2" points="100.1,95.6 100.4,95.4 100.4,95.7 	"/>
	<line class="st2" x1="97" y1="97.6" x2="97.4" y2="97.3"/>
	<line class="st2" x1="98" y1="94.7" x2="100.4" y2="95.4"/>
	<line class="st2" x1="97.3" y1="95.9" x2="97.5" y2="95.9"/>
	<polyline class="st2" points="82.9,86.5 80.1,85.7 80,89.4 	"/>
	<line class="st2" x1="144.2" y1="104.2" x2="94.5" y2="89.9"/>
	<line class="st2" x1="80.1" y1="85.7" x2="54.3" y2="101.2"/>
	<polyline class="st2" points="67.3,105.3 67.4,103.4 67.6,103.5 67.8,103.7 67.9,103.9 68.1,104.3 68.2,104.8 68.3,105.5 
		68.3,105.6 	"/>
	<path class="st2" d="M67.6,103.2l-0.1,0.1l0,0l0,0c0,0,0,0,0,0"/>
	<polyline class="st2" points="67.6,103.2 67.6,103.2 67.8,103.3 67.9,103.5 68.1,103.7 68.2,103.9 68.3,104.3 68.5,104.7 
		68.6,105.4 68.6,105.7 	"/>
	<polyline class="st2" points="69.4,106 70.1,105.2 70.5,104.6 70.9,104.1 71.5,103.1 72.5,101.7 73.4,100.1 73.8,99.4 74.1,98.7 
		74.7,97.5 75.2,96.5 75.8,95.1 76.4,93.7 77.3,94 	"/>
	<polyline class="st2" points="76.5,91.6 76.4,91.6 76.4,91.7 76.4,91.7 76.4,93.7 	"/>
	<polyline class="st2" points="97.1,95.7 97,95.7 96.8,95.9 96.6,96 96.5,96.2 96.4,96.4 96.3,96.6 96.3,96.7 	"/>
	<polyline class="st2" points="95.9,95.7 95.9,95.6 96.1,95.4 	"/>
	<polyline class="st2" points="94.8,96.8 94.8,96.4 95,95.9 95.1,95.6 95.2,95.4 95.5,95 95.8,94.7 95.9,94.6 96.1,94.5 96.3,94.5 	
		"/>
	<polyline class="st2" points="95.9,95.6 95.5,95.4 95.5,95.3 	"/>
	<line class="st2" x1="95.5" y1="95.4" x2="95.8" y2="95.2"/>
	<line class="st2" x1="77.7" y1="90.5" x2="77.9" y2="90.4"/>
	<line class="st2" x1="169.8" y1="80" x2="168.5" y2="80.1"/>
	<polyline class="st2" points="78.7,56.8 78.7,56.8 78.7,56.8 78.6,56.8 32.4,109.3 32.4,109.4 32.3,109.4 	"/>
	<line class="st2" x1="168.5" y1="80.1" x2="125.3" y2="140.1"/>
	<line class="st2" x1="125.3" y1="140.1" x2="125.1" y2="143.1"/>
	<polyline class="st2" points="121.9,167.8 123,148.2 125.1,143.3 125.1,143.2 125.1,143.1 	"/>
	<path class="st2" d="M125.1,143.3C125.1,143.3,125.1,143.3,125.1,143.3L125.1,143.3l-0.1-0.1c-14.5-4.8-29-9.7-43.5-14.5l-1.2-0.4
		l-0.9-0.3"/>
	<path class="st2" d="M32.4,112.3L32.4,112.3L32.4,112.3c11.4,3.8,22.8,7.6,34.1,11.4"/>
	<line class="st2" x1="32.4" y1="109.3" x2="32.4" y2="109.3"/>
	<path class="st2" d="M124.6,137.2c0,0,0-0.1,0-0.1"/>
	<line class="st2" x1="124.6" y1="137.2" x2="35.8" y2="108.1"/>
	<path class="st2" d="M68.8,120.9c-11-3.6-22-7.2-32.9-10.8"/>
	<path class="st2" d="M80.3,124.7l13.4,4.4c0.3,0.1,0.5,0.2,0.8,0.3l29.9,9.8l0.1,0l0-0.2l0.1-1.6v0l0-0.3"/>
	<line class="st2" x1="165.3" y1="130.6" x2="165.3" y2="130.5"/>
	<line class="st2" x1="33.1" y1="109.2" x2="79.1" y2="57"/>
	<path class="st2" d="M124.9,136.8c-0.1,0.1-0.2,0.2-0.2,0.3"/>
	<line class="st2" x1="79.8" y1="84.3" x2="80.3" y2="61.6"/>
	<path class="st2" d="M122.8,148.2L122.8,148.2l0.1,0c0,0,0,0,0,0"/>
	<line class="st2" x1="122.8" y1="148.2" x2="30.3" y2="116.8"/>
	<polyline class="st2" points="30.3,116.8 30.3,116.8 30.2,116.8 	"/>
	<polyline class="st2" points="35.8,108.1 35.8,108.1 35.8,108.1 	"/>
	<polyline class="st2" points="124.5,139.3 124.6,139.3 124.6,139.3 124.7,139.2 	"/>
	<polyline class="st2" points="85.4,87.4 85.7,76.3 85,76.2 	"/>
	<polyline class="st2" points="89.5,77.4 90.2,77.6 89.8,88.7 	"/>
	<line class="st2" x1="92.5" y1="88.7" x2="92.5" y2="88.7"/>
	<polyline class="st2" points="90.6,77.7 91.3,77.9 90.9,89 	"/>
	<polyline class="st2" points="96,88.9 93.7,90.4 96.5,88.6 96.3,88.7 	"/>
	<polyline class="st2" points="87.6,88.1 87.9,77 87.2,76.8 	"/>
	<polyline class="st2" points="86.5,87.7 86.8,76.7 86.1,76.5 	"/>
	<polyline class="st2" points="88.7,88.4 89.1,77.3 88.3,77.1 	"/>
	<line class="st2" x1="92.7" y1="88.6" x2="92.5" y2="88.7"/>
	<polyline class="st2" points="92.8,78.3 93.5,78.5 93.2,88.5 	"/>
	<polyline class="st2" points="91.7,78 92.4,78.2 92.1,89.3 	"/>
	<line class="st2" x1="108.2" y1="113.2" x2="108.2" y2="113.2"/>
	<line class="st2" x1="108.2" y1="113.2" x2="108.2" y2="113.2"/>
	<polyline class="st2" points="108.2,115.3 108.2,115.3 108.2,115.3 	"/>
	<line class="st2" x1="108.2" y1="112.8" x2="108.2" y2="112.8"/>
	<line class="st2" x1="108.2" y1="112.7" x2="108.2" y2="112.8"/>
	<polyline class="st2" points="59.3,84.9 59.1,85.1 59.1,85.5 59.2,85.5 	"/>
	<polyline class="st2" points="78.8,57.3 78.8,57.4 78.8,57.4 	"/>
	<polyline class="st2" points="79,57.2 78.9,57.2 78.9,57.2 78.8,57.3 	"/>
	<polyline class="st2" points="79.4,59.2 79.3,59.2 79.3,59.2 	"/>
	<polyline class="st2" points="79.3,59.2 79.3,59.2 79.1,59.5 79.1,59.5 79.1,59.5 79.1,59.5 79.1,59.5 79.5,61.4 79.5,61.4 
		163,83.4 	"/>
	<polyline class="st2" points="79.4,59.2 164.3,81.4 164.4,81.4 164.4,81.5 164.4,81.6 	"/>
	<line class="st2" x1="125" y1="138.8" x2="124.6" y2="139.4"/>
	<polyline class="st2" points="124.6,136.6 124.6,136.5 124.6,136.5 124.6,136.5 164.4,81.5 164.5,81.5 164.5,81.5 164.5,81.5 
		164.9,81.6 165,81.6 165,81.6 165.1,83.1 	"/>
	<polyline class="st2" points="58.9,85.8 58.8,85.5 58.9,85.2 59,84.9 59.1,84.7 59.3,84.5 	"/>
	<polyline class="st2" points="35.6,109.8 35.6,109.9 35.6,110 	"/>
	<line class="st2" x1="45.2" y1="100.6" x2="58.7" y2="85"/>
	<polyline class="st2" points="58.2,85.6 58.3,85.8 58.4,86 58.5,86 59.1,86.2 59.3,86.2 59.5,86 59.6,85.8 59.7,85.6 59.9,85.3 
		59.9,84.9 59.9,83.7 79.5,61.3 	"/>
	<polyline class="st2" points="36.2,107.7 36.2,107.6 36.2,107.6 36.2,107.6 78.8,59.1 78.8,59.1 78.8,59.1 78.9,59.1 79.2,59.2 
		79.2,59.2 79.2,59.2 79.2,59.2 79.2,59.3 	"/>
	<polyline class="st2" points="147.1,105.3 148,93.6 147.2,93.4 	"/>
	<line class="st2" x1="155" y1="94.5" x2="145.7" y2="92"/>
	<polyline class="st2" points="152.2,94.8 153,95 152.8,97.6 	"/>
	<polyline class="st2" points="153.5,95.1 154.3,95.4 154.2,95.6 	"/>
	<polyline class="st2" points="149.9,101.5 150.5,94.3 149.7,94.1 	"/>
	<polyline class="st2" points="145.9,93 146.7,93.3 145.9,104.2 	"/>
	<polyline class="st2" points="148.5,103.5 149.2,94 148.4,93.7 	"/>
	<polyline class="st2" points="151.4,99.5 151.7,94.7 150.9,94.4 	"/>
	<line class="st2" x1="97.1" y1="117.9" x2="97.1" y2="117.7"/>
	<polyline class="st2" points="97.1,117.7 97,117.6 96.7,117.5 96.5,117.4 96.1,117.4 95.7,117.4 95.5,117.5 95.3,117.7 95.3,117.7 
			"/>
	<polyline class="st2" points="88.2,110.9 88.2,110.9 88.2,111 88.6,111.1 88.6,111.1 88.7,111.1 88.7,111 89.4,110.1 90.1,109.1 
		90.7,108 91.4,106.9 91.4,106.9 	"/>
	<polyline class="st2" points="133.2,119.7 133.2,119.8 132.6,120.9 131.9,122 131.3,123.1 130.6,124.1 130.6,124.2 130.5,124.2 
		130.5,124.2 130.1,124 130.1,124 130,124 	"/>
	<polyline class="st2" points="134.4,120.1 134.4,120.2 133.7,121.3 133.1,122.4 132.4,123.5 131.8,124.5 131.7,124.5 131.7,124.5 
		131.6,124.5 131.3,124.4 131.2,124.4 131.2,124.4 	"/>
	<polyline class="st2" points="89.3,111.3 89.3,111.3 89.3,111.3 89.7,111.4 89.7,111.4 89.8,111.4 89.8,111.4 90.5,110.4 
		91.2,109.4 91.8,108.3 92.5,107.3 92.5,107.2 	"/>
	<polyline class="st2" points="94.7,107.9 94.6,107.9 94,109 93.3,110.1 92.7,111.1 92,112 91.9,112.1 91.9,112.1 91.9,112.1 
		91.5,112 91.5,112 91.5,111.9 	"/>
	<polyline class="st2" points="129.5,123.6 130.1,122.7 130.7,121.7 131.4,120.6 132,119.4 132,119.4 	"/>
	<polyline class="st2" points="90.4,111.6 90.4,111.6 90.4,111.6 90.8,111.7 90.8,111.7 90.9,111.7 90.9,111.7 91.6,110.7 
		92.3,109.7 92.9,108.7 93.6,107.6 93.6,107.5 	"/>
	<polyline class="st2" points="135.6,120.5 135.6,120.5 134.9,121.7 134.3,122.8 133.6,123.8 133,124.9 132.9,124.9 132.9,124.9 
		132.8,124.9 132.4,124.8 	"/>
	<polyline class="st2" points="129.6,118.9 129.9,118.3 129.9,118.3 	"/>
	<polyline class="st2" points="92.6,112.3 92.6,112.3 92.6,112.3 93,112.4 93,112.4 93,112.4 93.1,112.4 93.8,111.3 94.5,110.2 
		95.2,109.1 95.9,107.9 95.9,107.9 	"/>
	<polyline class="st2" points="89.4,105.8 89.4,105.9 88.8,106.9 87.8,108.7 	"/>
	<polyline class="st2" points="131.8,118.1 131.9,117.3 132.1,116.9 132.2,116.8 132.2,116.6 132.5,116.4 137.1,117.8 137.1,118.1 	
		"/>
	<polyline class="st2" points="88.4,105.5 88.3,105.6 87.8,106.6 	"/>
	<polyline class="st2" points="91,105.6 91,104.9 91.2,104.5 91.4,104.4 91.4,104.1 91.6,104 95.9,105.3 95.9,105.5 	"/>
	<polyline class="st2" points="96.2,109.7 96.3,109.4 97,108.2 97,108.2 	"/>
	<polyline class="st2" points="93.7,112.6 93.7,112.6 93.7,112.7 94,112.7 	"/>
	<path class="st2" d="M90.3,105.8l0.2,0.1l0.2-0.4l4.3,1.3c0,0.1,0,0.3,0,0.4"/>
	<polyline class="st2" points="94.8,107.2 95,107.2 95.2,106.9 	"/>
	<path class="st2" d="M131.1,118.3l0.3,0.1l0.2-0.4l4.7,1.4c0,0.1,0,0.3,0,0.4"/>
	<polyline class="st2" points="136,119.8 136.3,119.9 136.5,119.5 136.8,119.6 	"/>
	<line class="st2" x1="120.4" y1="135.2" x2="120.4" y2="135.3"/>
	<line class="st2" x1="127.1" y1="133" x2="127.1" y2="133"/>
	<polyline class="st2" points="126.9,133.3 126.9,133.3 126.9,133.3 	"/>
	<polyline class="st2" points="127.1,133 127.1,133 127.1,133 	"/>
	<line class="st2" x1="127.1" y1="133" x2="127.1" y2="133"/>
	<line class="st2" x1="128.1" y1="131.6" x2="128.1" y2="131.6"/>
	<polyline class="st2" points="127.1,133 127.1,133 127.1,133 	"/>
	<polyline class="st2" points="126.9,133.3 126.9,133.2 127,133.2 	"/>
	<line class="st2" x1="128.1" y1="131.6" x2="128.1" y2="131.6"/>
	<line class="st2" x1="128.1" y1="131.6" x2="128.1" y2="131.6"/>
	<line class="st2" x1="95.2" y1="127" x2="95.2" y2="127"/>
	<line class="st2" x1="76.9" y1="121" x2="76.9" y2="121"/>
	<line class="st2" x1="73.9" y1="120.1" x2="73.9" y2="120"/>
	<polyline class="st2" points="37.7,108.2 39.5,103.9 47.6,99.1 131.1,125.3 131.2,126 131.4,127 	"/>
	<line class="st2" x1="75.7" y1="120.6" x2="75.7" y2="120.6"/>
	<line class="st2" x1="73.1" y1="119.8" x2="73.4" y2="119.9"/>
	<polyline class="st2" points="90.8,105.5 90.8,105.5 91,105.3 	"/>
	<path class="st2" d="M138.7,108.1l0.1-0.1l0.1,0c0.1,0,0.3,0.1,0.4,0.1"/>
	<polyline class="st2" points="138.1,109 138.2,108.8 138.4,108.4 138.6,108.2 	"/>
	<polyline class="st2" points="142,112.4 139.1,111.5 139,111.5 138.9,111.4 138.8,111.1 138.7,110.7 138.7,110.4 138.7,110 
		138.8,109.4 138.9,109.2 139,108.9 139.2,108.4 139.5,108 139.6,107.8 139.7,107.6 140,107.4 140.2,107.4 140.4,107.4 144.8,108.7 
			"/>
	<polyline class="st2" points="131.6,118 131.6,118 131.8,117.8 	"/>
	<polyline class="st2" points="117.1,102.8 117.1,102.7 117.3,102.3 117.5,102 	"/>
	<polyline class="st2" points="118.2,101.9 117.9,101.8 117.8,101.8 117.7,101.9 117.6,102 117.5,102 	"/>
	<polyline class="st2" points="137.4,107.6 137.4,107.5 137.1,107.3 137.1,107 	"/>
	<polyline class="st2" points="137.5,107 137.3,107 137.2,107 137,107.1 136.8,107.3 136.6,107.7 136.3,108.2 136.3,108.4 
		136.2,108.8 136.2,108.9 	"/>
	<polyline class="st2" points="138.6,108.1 138.5,108 138.5,107.9 	"/>
	<polyline class="st2" points="117.6,101.9 117.5,101.9 117.5,101.8 117.4,101.7 116.5,101.4 116.3,101.4 	"/>
	<polyline class="st2" points="116.4,100.8 116.1,100.9 115.8,101.1 115.7,101.3 115.5,101.6 115.3,101.9 115.2,102.4 115.2,102.6 	
		"/>
	<polyline class="st2" points="115.9,101.7 115.9,101.7 115.6,101.5 	"/>
	<polyline class="st2" points="116.5,100.4 116.8,100.5 116.9,100.7 116.9,100.8 117,101 117,101.3 	"/>
	<line class="st2" x1="116.5" y1="101.4" x2="116.2" y2="101.2"/>
	<line class="st2" x1="116.5" y1="100.4" x2="98.9" y2="95.2"/>
	<polyline class="st2" points="97.7,99.2 97.5,99 97.4,98.9 97.3,98.5 97.3,98.1 97.3,97.8 97.4,97.2 97.6,96.6 97.9,96 98.2,95.6 
		98.5,95.3 98.9,95.2 	"/>
	<line class="st2" x1="97.7" y1="99.2" x2="114.4" y2="104.2"/>
	<line class="st2" x1="114.4" y1="104.2" x2="101.5" y2="100.3"/>
	<line class="st2" x1="97.3" y1="96" x2="97.2" y2="96.2"/>
	<polyline class="st2" points="97.5,95.9 97.6,95.9 97.7,95.9 97.9,95.9 	"/>
	<line class="st2" x1="97.2" y1="96.2" x2="96.9" y2="96.6"/>
	<line class="st2" x1="97.5" y1="95.9" x2="97.3" y2="96"/>
	<line class="st2" x1="94.4" y1="126.8" x2="94.4" y2="126.8"/>
	<line class="st2" x1="94.8" y1="126.9" x2="95.1" y2="127"/>
	<line class="st2" x1="96.2" y1="127.3" x2="96.2" y2="127.3"/>
	<line class="st2" x1="90.9" y1="125.6" x2="90.9" y2="125.6"/>
	<line class="st2" x1="75.3" y1="120.5" x2="75.3" y2="120.5"/>
	<line class="st2" x1="118.5" y1="105.4" x2="118.5" y2="105.4"/>
	<line class="st2" x1="52.1" y1="115.5" x2="52.1" y2="115.5"/>
	<line class="st2" x1="49.9" y1="114.7" x2="49.9" y2="114.7"/>
	<line class="st2" x1="50.3" y1="114.9" x2="50.3" y2="114.9"/>
	<line class="st2" x1="50.1" y1="114.8" x2="50.1" y2="114.8"/>
	<line class="st2" x1="51.6" y1="115.3" x2="51.6" y2="115.3"/>
	<line class="st2" x1="50.2" y1="114.8" x2="50.2" y2="114.8"/>
	<line class="st2" x1="51.3" y1="115.2" x2="51.3" y2="115.2"/>
	<line class="st2" x1="50.2" y1="114.8" x2="50.2" y2="114.8"/>
	<line class="st2" x1="52.4" y1="113" x2="52.4" y2="113"/>
	<line class="st2" x1="51.6" y1="115.3" x2="51.6" y2="115.3"/>
	<line class="st2" x1="52.5" y1="113" x2="52.5" y2="113"/>
	<polyline class="st2" points="51.3,115.2 51.3,115.2 51.3,115.2 	"/>
	<line class="st2" x1="53.4" y1="115.9" x2="53.4" y2="115.9"/>
	<line class="st2" x1="52.8" y1="113.1" x2="52.8" y2="113.2"/>
	<line class="st2" x1="53.2" y1="113.2" x2="53.1" y2="113.3"/>
	<line class="st2" x1="51.1" y1="115.1" x2="51.1" y2="115.1"/>
	<polyline class="st2" points="49.5,114.6 49.5,114.6 56.3,116.8 	"/>
	<line class="st2" x1="52.1" y1="115.4" x2="52.1" y2="115.4"/>
	<line class="st2" x1="51.3" y1="115.2" x2="51.3" y2="115.2"/>
	<line class="st2" x1="52.1" y1="115.5" x2="52.2" y2="115.5"/>
	<line class="st2" x1="52.6" y1="115.6" x2="52.6" y2="115.6"/>
	<line class="st2" x1="52.4" y1="113" x2="52.7" y2="113.1"/>
	<line class="st2" x1="54.5" y1="113.7" x2="54.5" y2="113.7"/>
	<line class="st2" x1="50.1" y1="114.8" x2="50.1" y2="114.8"/>
	<line class="st2" x1="49.7" y1="114.6" x2="49.6" y2="114.6"/>
	<line class="st2" x1="49.8" y1="114.7" x2="49.9" y2="114.7"/>
	<line class="st2" x1="51" y1="115.1" x2="51" y2="115.1"/>
	<line class="st2" x1="51.6" y1="115.3" x2="51.6" y2="115.3"/>
	<line class="st2" x1="51.4" y1="115.2" x2="51.4" y2="115.2"/>
	<polyline class="st2" points="129.5,124.8 129.7,109.7 127.5,109.1 118.4,115.6 115.2,120.3 	"/>
	<line class="st2" x1="94.1" y1="99.9" x2="94.4" y2="99.1"/>
	<line class="st2" x1="114.5" y1="103" x2="114.3" y2="105.7"/>
	<line class="st2" x1="138.4" y1="109.8" x2="138.5" y2="109.8"/>
	<path class="st2" d="M72.6,107l3.3-4.4l9.6-6l2.1,0.6c0.1,4.9,0.2,9.7,0.2,14.6"/>
	<line class="st2" x1="135.2" y1="112.3" x2="135.6" y2="111.4"/>
	<line class="st2" x1="114.2" y1="106" x2="114.6" y2="105.1"/>
	<line class="st2" x1="97.2" y1="97.6" x2="97.1" y2="97.6"/>
	<path class="st2" d="M97.2,97.6L97.2,97.6l0,2.7c0,0,0,0,0,0l-0.1,0.1"/>
	<path class="st2" d="M114.8,102.8L114.8,102.8L114.8,102.8l-0.2,0.1l0,0l0,0c0,0,0,0,0,0"/>
	<line class="st2" x1="114.8" y1="102.8" x2="114.8" y2="102.8"/>
	<line class="st2" x1="117.5" y1="103.6" x2="117.4" y2="103.6"/>
	<polyline class="st2" points="117.5,103.6 117.5,103.7 117.4,106.4 	"/>
	<line class="st2" x1="138.6" y1="109.9" x2="138.5" y2="109.8"/>
	<polyline class="st2" points="108.2,118.1 108.2,103.3 106,102.7 96.7,109 94,112.7 93.4,113.5 	"/>
	<polyline class="st2" points="138.5,112.7 138.6,110 138.6,109.9 	"/>
	<line class="st2" x1="138" y1="109" x2="138.9" y2="109.3"/>
	<line class="st2" x1="137.8" y1="107.7" x2="139.1" y2="106.7"/>
	<line class="st2" x1="77.3" y1="91.1" x2="78" y2="91.3"/>
	<polyline class="st2" points="135.3,112 135.5,109.2 135.5,109.2 135.5,109.2 135.6,109.1 135.7,109.1 135.7,109 135.8,109 	"/>
	<line class="st2" x1="117.3" y1="103.6" x2="117.4" y2="103.6"/>
	<line class="st2" x1="116.9" y1="102.8" x2="117.7" y2="103"/>
	<path class="st2" d="M117.5,102c-0.3,0.2-0.6,0.4-0.9,0.6l-1-0.3c-0.2,0.2-0.5,0.3-0.7,0.5"/>
	<line class="st2" x1="118.1" y1="100.6" x2="116.8" y2="101.5"/>
	<line class="st2" x1="97.5" y1="97" x2="96.7" y2="96.8"/>
	<polyline class="st2" points="96.8,103.7 96.1,105.3 95.3,106.8 	"/>
	<polyline class="st2" points="94.3,97 94.3,97 94.4,96.9 94.5,96.9 94.5,96.8 94.6,96.8 94.6,96.8 94.7,96.9 	"/>
	<polyline class="st2" points="97.2,96.1 96.4,96.7 95.4,96.4 94.7,96.9 	"/>
	<line class="st2" x1="98" y1="94.7" x2="96.7" y2="95.6"/>
	<polyline class="st2" points="94.2,99.7 94.3,97 94.4,97 	"/>
	<polyline class="st2" points="77.8,94.6 77.7,91.9 77.7,91.9 77.7,91.8 77.6,91.8 77.6,91.8 	"/>
	<polyline class="st2" points="82.9,85.2 79.8,84.3 52.4,100.6 	"/>
	<line class="st2" x1="144.3" y1="102.8" x2="96" y2="88.9"/>
	<line class="st2" x1="117.5" y1="134.3" x2="117.9" y2="134.4"/>
	<polyline class="st2" points="96.4,94.9 96.2,94.9 96,94.9 95.8,95 95.6,95.2 95.4,95.6 95.1,96.1 95.1,96.3 95,96.6 	"/>
	<polyline class="st2" points="79.4,89.5 79.7,89.6 94.3,93.9 96.5,94.5 96.7,94.7 96.8,94.9 96.9,95.3 96.9,95.4 	"/>
	<polyline class="st2" points="96.1,95.5 96.1,95.4 95.8,95.2 95.8,95.1 	"/>
	<polyline class="st2" points="94.3,98.2 78.3,93.4 78,93.2 77.9,92.9 77.9,92.5 77.8,92.2 77.9,91.7 78,91.3 78.1,91 78.3,90.4 
		78.7,89.9 79,89.6 79.4,89.5 	"/>
	<line class="st2" x1="78.1" y1="90.8" x2="78.1" y2="90.8"/>
	<path class="st2" d="M77.9,90.4l0.1-0.1l0.1-0.1l0.1,0c0.1,0,0.1,0,0.2,0.1"/>
	<polyline class="st2" points="77.6,90.7 77.5,90.9 77.5,91.1 	"/>
	<line class="st2" x1="78.1" y1="90.8" x2="78.1" y2="90.8"/>
	<polyline class="st2" points="121.8,167.8 121.9,167.8 165.3,130.6 	"/>
	<polyline class="st2" points="169.1,79.8 168.1,79.9 168,79.9 	"/>
	<line class="st2" x1="79.7" y1="109.2" x2="79.7" y2="109.2"/>
	<polyline class="st2" points="169.8,79.9 169.7,79.9 169.7,79.9 	"/>
	<line class="st2" x1="168.8" y1="79.7" x2="169.7" y2="79.9"/>
	<line class="st2" x1="78.7" y1="56.8" x2="78.7" y2="56.8"/>
	<polyline class="st2" points="32.3,109.4 32.3,109.4 32.4,112.2 	"/>
	<line class="st2" x1="125" y1="139.5" x2="168" y2="80"/>
	<path class="st2" d="M68.8,120.9c-4.2-1.3-8.4-2.6-12.7-4.1c-0.2-0.1-0.4-0.2-0.7-0.2h0c-0.5-0.2-1.1-0.4-1.6-0.5
		c-0.1,0-0.2-0.1-0.3-0.1c0,0-0.1,0-0.2,0c0,0-0.1,0-0.2-0.1h0c-0.1,0-0.2-0.1-0.3-0.1h0c-0.2-0.1-0.5-0.2-0.7-0.2h0c0,0,0,0,0,0
		c-0.1,0-0.2-0.1-0.3-0.1l0,0c-0.1,0-0.1,0-0.2-0.1v0c0,0,0,0,0,0h0c0,0-0.1,0-0.1,0c0,0-0.1,0-0.1,0c0,0,0,0,0,0l0,0
		c0,0-0.1,0-0.1,0c0,0,0,0,0,0c-0.1,0-0.2-0.1-0.3-0.1c-0.1,0-0.2-0.1-0.3-0.1c-0.1,0-0.1,0-0.2,0c0,0,0,0,0,0c0,0-0.1,0-0.1,0h0h0
		v0c0,0,0,0-0.1,0l0,0c0,0-0.1,0-0.1,0h0c0,0-0.1,0-0.1,0c-0.1,0-0.1,0-0.2-0.1c0,0-0.1,0-0.1,0c0,0-0.1,0-0.1,0
		c-4.6-1.5-9.1-3-13.7-4.5c0,0-0.1,0-0.1,0h0c0,0,0,0,0,0c-0.2-0.1-0.5-0.1-0.7-0.2c-0.1,0-0.1,0-0.2-0.1c0,0-0.1,0-0.1,0
		c-0.1,0-0.2-0.1-0.3-0.1c-0.3-0.1-0.7-0.2-1-0.3"/>
	<path class="st2" d="M125,139.5L125,139.5c-0.1,0-0.1,0-0.2,0c-0.1,0-0.2-0.1-0.3-0.1c-0.1,0-0.2-0.1-0.3-0.1
		c-14.6-4.8-29.2-9.6-43.7-14.4c-0.1,0-0.2,0-0.3-0.1l-1-0.4"/>
	<polyline class="st2" points="32.4,112.2 32.4,112.3 32.4,112.3 30.2,116.7 30.2,116.7 30.2,116.8 30.5,135 30.5,135 30.6,135.1 
		121.8,167.8 121.8,167.8 121.8,167.8 	"/>
	<line class="st2" x1="79.1" y1="57.2" x2="79.1" y2="57.2"/>
	<polyline class="st2" points="164.4,81.5 164.4,81.5 164.4,81.5 	"/>
	<line class="st2" x1="124.9" y1="138.8" x2="125" y2="138.8"/>
	<line class="st2" x1="39.1" y1="104.8" x2="36.6" y2="107.7"/>
	<line class="st2" x1="35.7" y1="110" x2="35.8" y2="109.9"/>
	<line class="st2" x1="153.3" y1="96.8" x2="153.5" y2="95.1"/>
	<line class="st2" x1="149" y1="102.7" x2="149.7" y2="94.1"/>
	<line class="st2" x1="151.9" y1="98.8" x2="152.2" y2="94.8"/>
	<line class="st2" x1="136.5" y1="119.5" x2="136.5" y2="119.5"/>
	<line class="st2" x1="136.4" y1="108" x2="136.8" y2="108.1"/>
	<line class="st2" x1="137.4" y1="107.6" x2="137.4" y2="107.6"/>
	<line class="st2" x1="138.5" y1="108" x2="138.7" y2="108.1"/>
	<polyline class="st2" points="94.2,99.7 94.2,99.7 94.2,99.7 	"/>
	<polyline class="st2" points="96.7,95.5 96.7,95.4 96.6,95.1 96.4,94.9 	"/>
	<line class="st2" x1="165.3" y1="130.5" x2="165.3" y2="130.5"/>
	<line class="st2" x1="79.1" y1="57" x2="79.1" y2="57"/>
	<polyline class="st2" points="107.7,66.6 107.7,66.6 107.7,66.6 	"/>
	<line class="st2" x1="131.5" y1="118" x2="131.5" y2="118"/>
	<line class="st2" x1="35.6" y1="110" x2="35.6" y2="110"/>
	<line class="st2" x1="84.4" y1="86" x2="84.4" y2="86"/>
	<line class="st2" x1="92" y1="105.9" x2="92" y2="105.9"/>
	<line class="st2" x1="94" y1="109" x2="94" y2="109"/>
	<line class="st2" x1="108.2" y1="113.1" x2="108.2" y2="113.1"/>
	<line class="st2" x1="108.2" y1="114.8" x2="108.2" y2="114.8"/>
	<line class="st2" x1="108.2" y1="115.3" x2="108.2" y2="115.3"/>
	<line class="st2" x1="108.2" y1="114.6" x2="108.2" y2="114.6"/>
	<line class="st2" x1="108.2" y1="113" x2="108.2" y2="113"/>
	<line class="st2" x1="108.2" y1="114.8" x2="108.2" y2="114.8"/>
	<line class="st2" x1="108.2" y1="114.7" x2="108.2" y2="114.7"/>
	<line class="st2" x1="108.2" y1="113.3" x2="108.2" y2="113.3"/>
	<line class="st2" x1="108.2" y1="112.8" x2="108.2" y2="112.8"/>
	<line class="st2" x1="108.2" y1="113.1" x2="108.2" y2="113.1"/>
	<line class="st2" x1="108.2" y1="112.9" x2="108.2" y2="112.9"/>
	<line class="st2" x1="108.2" y1="113.4" x2="108.2" y2="113.4"/>
	<line class="st2" x1="108.2" y1="113.1" x2="108.2" y2="113.1"/>
	<line class="st2" x1="162" y1="78.7" x2="162" y2="78.7"/>
	<line class="st2" x1="80.7" y1="59.6" x2="80.7" y2="59.6"/>
	<line class="st2" x1="85.9" y1="59" x2="85.9" y2="59"/>
	<line class="st2" x1="166.9" y1="81.5" x2="166.9" y2="81.5"/>
	<path class="st2" d="M78.7,59.1c0-0.6,0-1.1,0-1.7"/>
	<line class="st2" x1="161.2" y1="80.6" x2="161.2" y2="80.6"/>
	<line class="st2" x1="145.2" y1="111.6" x2="145.2" y2="111.6"/>
	<line class="st2" x1="146.8" y1="109.3" x2="146.8" y2="109.3"/>
	<line class="st2" x1="36.2" y1="107.7" x2="36.2" y2="107.7"/>
	<line class="st2" x1="35.8" y1="108.1" x2="34.5" y2="109.6"/>
	<line class="st2" x1="147.3" y1="102.4" x2="147.3" y2="102.4"/>
	<line class="st2" x1="150.4" y1="104.4" x2="150.4" y2="104.4"/>
	<path class="st2" d="M137.2,118C137.2,117.9,137.1,117.9,137.2,118"/>
	<line class="st2" x1="130.9" y1="119" x2="130.9" y2="119"/>
	<line class="st2" x1="118.8" y1="115.3" x2="118.8" y2="115.3"/>
	<polyline class="st2" points="118.8,134.7 118.8,134.7 118.8,134.7 	"/>
	<polyline class="st2" points="121,135.4 121,135.4 121,135.4 	"/>
	<line class="st2" x1="123.8" y1="132.6" x2="123.8" y2="132.6"/>
	<line class="st2" x1="123.9" y1="132.9" x2="123.9" y2="132.9"/>
	<line class="st2" x1="117.4" y1="134.3" x2="117.4" y2="134.3"/>
	<line class="st2" x1="127.8" y1="132.1" x2="127.8" y2="132.1"/>
	<line class="st2" x1="128.1" y1="131.6" x2="128.1" y2="131.6"/>
	<line class="st2" x1="128" y1="131.7" x2="128" y2="131.7"/>
	<line class="st2" x1="127.8" y1="132" x2="127.8" y2="132"/>
	<line class="st2" x1="128.1" y1="131.6" x2="128.1" y2="131.6"/>
	<line class="st2" x1="127.7" y1="132.1" x2="127.7" y2="132.1"/>
	<line class="st2" x1="127.2" y1="132.9" x2="127.2" y2="132.9"/>
	<line class="st2" x1="124.1" y1="134.8" x2="124.1" y2="134.8"/>
	<line class="st2" x1="128.2" y1="131.4" x2="128.2" y2="131.4"/>
	<line class="st2" x1="96.2" y1="127.3" x2="96.2" y2="127.3"/>
	<line class="st2" x1="98.4" y1="128.1" x2="98.4" y2="128.1"/>
	<line class="st2" x1="98" y1="127.9" x2="98" y2="127.9"/>
	<line class="st2" x1="96.7" y1="122.3" x2="96.7" y2="122.3"/>
	<polyline class="st2" points="75.1,120.4 75.2,120.5 75.2,120.5 	"/>
	<line class="st2" x1="119.6" y1="125.4" x2="119.6" y2="125.4"/>
	<line class="st2" x1="75.7" y1="120.6" x2="75.7" y2="120.6"/>
	<line class="st2" x1="73.5" y1="119.9" x2="73.5" y2="119.9"/>
	<line class="st2" x1="73.5" y1="119.9" x2="73.5" y2="119.9"/>
	<line class="st2" x1="72.7" y1="119.6" x2="72.7" y2="119.6"/>
	<line class="st2" x1="72.6" y1="119.6" x2="72.6" y2="119.6"/>
	<line class="st2" x1="73.8" y1="120" x2="73.8" y2="120"/>
	<line class="st2" x1="73.9" y1="120" x2="73.9" y2="120"/>
	<line class="st2" x1="73.3" y1="119.8" x2="73.3" y2="119.8"/>
	<line class="st2" x1="72.9" y1="119.7" x2="72.9" y2="119.7"/>
	<line class="st2" x1="73.7" y1="120" x2="73.7" y2="120"/>
	<line class="st2" x1="75.4" y1="120.5" x2="75.4" y2="120.5"/>
	<line class="st2" x1="73.4" y1="119.9" x2="73.4" y2="119.9"/>
	<line class="st2" x1="75.6" y1="120.6" x2="75.6" y2="120.6"/>
	<line class="st2" x1="73.4" y1="119.9" x2="73.4" y2="119.9"/>
	<line class="st2" x1="73.4" y1="119.9" x2="73.4" y2="119.9"/>
	<line class="st2" x1="76" y1="120.7" x2="76" y2="120.7"/>
	<line class="st2" x1="75.8" y1="120.7" x2="75.8" y2="120.7"/>
	<line class="st2" x1="69.2" y1="118.5" x2="69.2" y2="118.5"/>
	<line class="st2" x1="72.1" y1="114.4" x2="72.1" y2="114.4"/>
	<line class="st2" x1="94" y1="109" x2="94" y2="109"/>
	<line class="st2" x1="143.7" y1="110.2" x2="143.7" y2="110.2"/>
	<line class="st2" x1="145.8" y1="110.8" x2="145.8" y2="110.8"/>
	<line class="st2" x1="145.4" y1="111.3" x2="145.4" y2="111.3"/>
	<line class="st2" x1="145.6" y1="111" x2="145.6" y2="111"/>
	<line class="st2" x1="136.8" y1="108.1" x2="136.4" y2="108"/>
	<line class="st2" x1="136.3" y1="108.3" x2="136.7" y2="108.4"/>
	<line class="st2" x1="135.5" y1="110" x2="135.5" y2="110"/>
	<line class="st2" x1="135.5" y1="109.9" x2="135.5" y2="109.9"/>
	<line class="st2" x1="136.5" y1="107.8" x2="136.9" y2="107.9"/>
	<line class="st2" x1="138.6" y1="108.2" x2="138.6" y2="108.1"/>
	<line class="st2" x1="130" y1="125" x2="130" y2="125"/>
	<line class="st2" x1="129.2" y1="124.7" x2="129.2" y2="124.7"/>
	<line class="st2" x1="129.9" y1="124.9" x2="129.9" y2="124.9"/>
	<line class="st2" x1="114.4" y1="103.7" x2="114.4" y2="103.7"/>
	<line class="st2" x1="114.4" y1="103.7" x2="114.4" y2="103.7"/>
	<line class="st2" x1="116.4" y1="100.8" x2="116.5" y2="100.8"/>
	<line class="st2" x1="115.3" y1="102.1" x2="115.7" y2="102.2"/>
	<line class="st2" x1="114.5" y1="103.4" x2="114.5" y2="103.4"/>
	<line class="st2" x1="95.1" y1="127" x2="95.1" y2="127"/>
	<line class="st2" x1="95.1" y1="127" x2="95.1" y2="127"/>
	<line class="st2" x1="94.3" y1="126.7" x2="94.3" y2="126.7"/>
	<line class="st2" x1="94.3" y1="126.7" x2="94.3" y2="126.7"/>
	<line class="st2" x1="94.2" y1="126.7" x2="94.2" y2="126.7"/>
	<line class="st2" x1="95" y1="126.9" x2="95" y2="127"/>
	<line class="st2" x1="95.2" y1="127" x2="95.2" y2="127"/>
	<line class="st2" x1="95.4" y1="127.1" x2="95.4" y2="127.1"/>
	<line class="st2" x1="97.1" y1="127.6" x2="97.1" y2="127.6"/>
	<line class="st2" x1="94.9" y1="126.9" x2="94.9" y2="126.9"/>
	<line class="st2" x1="94.4" y1="126.8" x2="94.4" y2="126.8"/>
	<line class="st2" x1="95.1" y1="127" x2="95.1" y2="127"/>
	<line class="st2" x1="95" y1="126.9" x2="95" y2="127"/>
	<line class="st2" x1="96.9" y1="127.6" x2="96.9" y2="127.6"/>
	<line class="st2" x1="95" y1="126.9" x2="95" y2="126.9"/>
	<line class="st2" x1="94.9" y1="126.9" x2="94.9" y2="126.9"/>
	<line class="st2" x1="98.1" y1="128" x2="98.1" y2="128"/>
	<line class="st2" x1="96.1" y1="127.3" x2="96.1" y2="127.3"/>
	<line class="st2" x1="91" y1="125.6" x2="91" y2="125.6"/>
	<line class="st2" x1="90.9" y1="125.6" x2="90.9" y2="125.6"/>
	<line class="st2" x1="114.3" y1="105.3" x2="114.3" y2="105.3"/>
	<line class="st2" x1="126.9" y1="109.4" x2="126.9" y2="109.5"/>
	<line class="st2" x1="98.4" y1="107.8" x2="98.4" y2="107.8"/>
	<line class="st2" x1="126.4" y1="109.8" x2="126.4" y2="109.8"/>
	<line class="st2" x1="129.6" y1="117.3" x2="129.6" y2="117.3"/>
	<line class="st2" x1="135.4" y1="111.1" x2="135.4" y2="111.1"/>
	<line class="st2" x1="53.9" y1="116" x2="53.9" y2="116"/>
	<line class="st2" x1="52.9" y1="113.2" x2="52.9" y2="113.1"/>
	<line class="st2" x1="52.8" y1="113.1" x2="52.8" y2="113.1"/>
	<line class="st2" x1="52.4" y1="115.6" x2="52.4" y2="115.6"/>
	<line class="st2" x1="52" y1="115.4" x2="52" y2="115.4"/>
	<line class="st2" x1="50.5" y1="114.9" x2="50.5" y2="114.9"/>
	<line class="st2" x1="52.7" y1="115.7" x2="52.7" y2="115.7"/>
	<line class="st2" x1="50.8" y1="115" x2="50.8" y2="115"/>
	<line class="st2" x1="52" y1="112.8" x2="52" y2="112.9"/>
	<line class="st2" x1="53.3" y1="113.3" x2="53.3" y2="113.3"/>
	<line class="st2" x1="53.6" y1="113.4" x2="53.6" y2="113.4"/>
	<line class="st2" x1="53.2" y1="115.8" x2="53.2" y2="115.8"/>
	<line class="st2" x1="54.9" y1="116.4" x2="54.9" y2="116.4"/>
	<line class="st2" x1="52.1" y1="115.4" x2="52.1" y2="115.5"/>
	<line class="st2" x1="51.9" y1="115.4" x2="51.9" y2="115.4"/>
	<line class="st2" x1="52.9" y1="115.7" x2="52.9" y2="115.7"/>
	<line class="st2" x1="53.1" y1="113.2" x2="53.1" y2="113.2"/>
	<line class="st2" x1="52.6" y1="113.1" x2="52.6" y2="113.1"/>
	<line class="st2" x1="52.4" y1="113" x2="52.4" y2="113"/>
	<line class="st2" x1="53.5" y1="115.9" x2="53.5" y2="115.9"/>
	<polyline class="st2" points="51.8,115.4 51.9,115.4 51.9,115.4 	"/>
	<line class="st2" x1="54.3" y1="113.6" x2="54.3" y2="113.6"/>
	<line class="st2" x1="55.1" y1="113.9" x2="55.1" y2="113.9"/>
	<line class="st2" x1="52.7" y1="113.1" x2="52.7" y2="113.1"/>
	<line class="st2" x1="52.8" y1="113.1" x2="52.8" y2="113.1"/>
	<line class="st2" x1="52.7" y1="113.1" x2="52.7" y2="113.1"/>
	<line class="st2" x1="53.5" y1="115.9" x2="53.5" y2="115.9"/>
	<line class="st2" x1="55.5" y1="116.6" x2="55.4" y2="116.6"/>
	<line class="st2" x1="49.8" y1="112.1" x2="49.8" y2="112.1"/>
	<line class="st2" x1="49.1" y1="111.9" x2="49.1" y2="111.9"/>
	<line class="st2" x1="49.1" y1="111.9" x2="49.1" y2="111.9"/>
	<line class="st2" x1="49.4" y1="114.6" x2="49.4" y2="114.5"/>
	<line class="st2" x1="50.3" y1="112.3" x2="50.3" y2="112.3"/>
	<line class="st2" x1="56.1" y1="116.8" x2="56.1" y2="116.8"/>
	<line class="st2" x1="53.5" y1="115.9" x2="53.5" y2="115.9"/>
	<line class="st2" x1="50.4" y1="114.9" x2="50.4" y2="114.9"/>
	<line class="st2" x1="53.6" y1="104.7" x2="53.6" y2="104.7"/>
	<line class="st2" x1="53.2" y1="104.6" x2="53.2" y2="104.6"/>
	<line class="st2" x1="124.6" y1="139.4" x2="124.6" y2="139.4"/>
	<line class="st2" x1="135.6" y1="111.4" x2="135.6" y2="111.4"/>
	<line class="st2" x1="138.7" y1="109.8" x2="138.7" y2="109.8"/>
	<line class="st2" x1="117.1" y1="117.5" x2="117.1" y2="117.5"/>
	<line class="st2" x1="138.5" y1="108" x2="138.5" y2="108"/>
	<line class="st2" x1="135.9" y1="109.1" x2="135.8" y2="109"/>
	<line class="st2" x1="78.3" y1="93.4" x2="78.3" y2="93.4"/>
	<polyline class="st2" points="136.5,119.4 137.3,117.8 138,116.1 	"/>
	<line class="st2" x1="108.2" y1="117.8" x2="115.3" y2="120.1"/>
	<line class="st2" x1="97.2" y1="97.9" x2="97.2" y2="97.9"/>
	<line class="st2" x1="94.2" y1="99.6" x2="94.2" y2="99.6"/>
	<line class="st2" x1="90.9" y1="125.6" x2="90.9" y2="125.6"/>
	<line class="st2" x1="129" y1="124.7" x2="129" y2="124.7"/>
	<polyline class="st2" points="96.5,88.6 96.7,88.4 96.7,88.2 97.1,76.3 96.8,76.2 94.2,77.7 83.7,74.8 	"/>
	<line class="st2" x1="92.5" y1="88.7" x2="92.5" y2="88.7"/>
	<line class="st2" x1="95.2" y1="89.5" x2="95.2" y2="89.5"/>
	<line class="st2" x1="54.5" y1="113.7" x2="54.5" y2="113.7"/>
	<line class="st2" x1="55.1" y1="108.9" x2="55.1" y2="108.9"/>
	<line class="st2" x1="117.1" y1="134.2" x2="117.1" y2="134.2"/>
	<line class="st2" x1="119.5" y1="134.9" x2="119.5" y2="135"/>
	<line class="st2" x1="117" y1="134.1" x2="117" y2="134.1"/>
	<line class="st2" x1="117.6" y1="134.3" x2="117.6" y2="134.3"/>
	<line class="st2" x1="117.3" y1="134.3" x2="117.3" y2="134.3"/>
	<line class="st2" x1="114.1" y1="133.2" x2="114.1" y2="133.2"/>
	<line class="st2" x1="117.1" y1="134.2" x2="117.1" y2="134.2"/>
	<line class="st2" x1="120.7" y1="135.4" x2="120.7" y2="135.4"/>
	<line class="st2" x1="97" y1="96.4" x2="97" y2="96.4"/>
	<line class="st2" x1="95.6" y1="96" x2="95.2" y2="95.9"/>
	<line class="st2" x1="95.3" y1="95.8" x2="95.7" y2="95.9"/>
	<line class="st2" x1="95" y1="96.4" x2="95.3" y2="96.5"/>
	<line class="st2" x1="98.3" y1="99.4" x2="98.3" y2="99.4"/>
	<line class="st2" x1="101.5" y1="100.3" x2="101.5" y2="100.3"/>
	<line class="st2" x1="97.4" y1="98.7" x2="97.4" y2="98.7"/>
	<line class="st2" x1="97.2" y1="99.5" x2="97.2" y2="99.5"/>
	<polyline class="st2" points="100.2,99.9 100.2,99.9 100.2,99.9 	"/>
	<line class="st2" x1="118.8" y1="115.3" x2="118.8" y2="115.3"/>
	<line class="st2" x1="119.9" y1="97.2" x2="119.9" y2="97.2"/>
	<line class="st2" x1="165.3" y1="130.6" x2="165.3" y2="130.6"/>
	<line class="st2" x1="79.2" y1="56.8" x2="78.7" y2="56.8"/>
	<line class="st2" x1="97.4" y1="98.7" x2="97.4" y2="98.7"/>
	<line class="st2" x1="90.3" y1="92.7" x2="90.3" y2="92.7"/>
	<line class="st2" x1="91.5" y1="89.9" x2="91.5" y2="90"/>
	<line class="st2" x1="91.4" y1="93" x2="91.4" y2="93"/>
	<line class="st2" x1="91.3" y1="97.3" x2="91.3" y2="97.3"/>
	<line class="st2" x1="91.1" y1="104.8" x2="91.1" y2="104.8"/>
	<line class="st2" x1="105.6" y1="101.5" x2="105.6" y2="101.6"/>
	<line class="st2" x1="104.6" y1="101.2" x2="104.6" y2="101.2"/>
	<line class="st2" x1="58.1" y1="85.8" x2="58.3" y2="85.8"/>
	<line class="st2" x1="145.3" y1="111.4" x2="145.3" y2="111.4"/>
	<line class="st2" x1="145.6" y1="111" x2="145.6" y2="111"/>
	<line class="st2" x1="84.8" y1="87.2" x2="85.4" y2="87.4"/>
	<line class="st2" x1="86.5" y1="87.7" x2="85.9" y2="87.5"/>
	<line class="st2" x1="88.7" y1="88.4" x2="88" y2="88.2"/>
	<line class="st2" x1="167.8" y1="80.2" x2="167.8" y2="80.2"/>
	<polyline class="st2" points="124.6,136.5 124.6,136.5 124.6,136.5 124.6,136.6 	"/>
	<polyline class="st2" points="165,81.7 165,81.6 165,81.6 	"/>
	<line class="st2" x1="150.9" y1="94.4" x2="150.5" y2="100.8"/>
	<line class="st2" x1="146.3" y1="105" x2="147.1" y2="105.3"/>
	<line class="st2" x1="95.9" y1="105.5" x2="95.9" y2="105.5"/>
	<polyline class="st2" points="95.9,107.9 95.9,107.8 95.9,107.8 	"/>
	<polyline class="st2" points="132,119.4 132,119.3 132,119.3 	"/>
	<polyline class="st2" points="134.4,120.1 134.4,120.1 134.3,120 	"/>
	<polyline class="st2" points="91.4,106.8 91.4,106.8 91.4,106.9 	"/>
	<polyline class="st2" points="133.2,119.7 133.2,119.7 133.2,119.7 	"/>
	<polyline class="st2" points="130.9,119 130.8,119 130.8,119 	"/>
	<line class="st2" x1="89.3" y1="111.3" x2="89.3" y2="111.2"/>
	<polyline class="st2" points="93.6,107.5 93.6,107.5 93.5,107.5 	"/>
	<polyline class="st2" points="89,105.7 89,105.7 89,105.7 88.9,105.8 	"/>
	<path class="st2" d="M137.2,118C137.2,118,137.1,118.1,137.2,118"/>
	<line class="st2" x1="136.5" y1="118.8" x2="136.5" y2="119.5"/>
	<polyline class="st2" points="97,108.1 97,108.2 97,108.2 	"/>
	<line class="st2" x1="131.6" y1="118" x2="131.8" y2="118"/>
	<line class="st2" x1="137.4" y1="107.5" x2="137.2" y2="107.6"/>
	<polyline class="st2" points="137.5,107 137.6,107.1 137.7,107.2 137.8,107.5 137.8,107.7 	"/>
	<polyline class="st2" points="116.7,101.1 116.8,101.4 116.8,101.5 	"/>
	<line class="st2" x1="96.8" y1="103.7" x2="92.1" y2="102.2"/>
	<line class="st2" x1="114.6" y1="102.9" x2="114.6" y2="102.9"/>
	<line class="st2" x1="138.1" y1="112.1" x2="137.8" y2="113"/>
	<polyline class="st2" points="138.5,112.7 138.5,112.8 138.4,112.9 	"/>
	<polyline class="st2" points="135.3,112 135.3,112 135.3,112 	"/>
	<polyline class="st2" points="117.2,106.5 117.2,106.6 117.3,106.6 117.3,106.5 	"/>
	<polyline class="st2" points="114.3,105.7 114.3,105.7 114.3,105.7 	"/>
	<polyline class="st2" points="77.5,94.7 77.6,94.7 77.6,94.7 77.6,94.7 	"/>
	<line class="st2" x1="77.8" y1="94.6" x2="77.7" y2="94.6"/>
	<line class="st2" x1="125" y1="139.5" x2="125" y2="139.5"/>
	<line class="st2" x1="169.1" y1="79.8" x2="168.8" y2="79.7"/>
	<polyline class="st2" points="124.9,136.8 124.9,136.8 124.9,136.7 	"/>
	<line class="st2" x1="35.8" y1="110" x2="35.9" y2="110"/>
	<line class="st2" x1="129.9" y1="118.3" x2="129.9" y2="118.3"/>
	<polyline class="st2" points="135.4,110.4 118.1,105.3 117.9,105.2 117.8,105 117.6,104.7 117.6,104.5 117.6,104 117.6,103.6 
		117.6,103.4 117.7,103 117.9,102.5 118.1,102 118.2,101.9 118.4,101.6 118.7,101.3 119,101.2 119.1,101.2 119.2,101.2 137.6,106.6 
		137.8,106.7 137.9,106.9 138,107.3 138,107.5 	"/>
	<line class="st2" x1="116.5" y1="101.2" x2="116.4" y2="101.4"/>
	<line class="st2" x1="49.3" y1="114.5" x2="49.3" y2="114.5"/>
	<line class="st2" x1="114.8" y1="102.8" x2="114.8" y2="102.8"/>
	<polyline class="st2" points="135.8,109 135.8,109 135.8,109 	"/>
	<line class="st2" x1="77.6" y1="90.7" x2="77.7" y2="90.5"/>
	<polyline class="st2" points="168,79.9 168,80 168,80 	"/>
	<line class="st2" x1="168" y1="79.9" x2="168" y2="79.9"/>
	<polyline class="st2" points="169.8,79.9 169.8,80 165.3,130.5 165.3,130.5 	"/>
	<line class="st2" x1="75.9" y1="120.7" x2="75.9" y2="120.7"/>
	<line class="st2" x1="124.7" y1="139.2" x2="124.8" y2="139.1"/>
	<g>
		<path class="st2" d="M124.4,136.8L124.4,136.8l0.1-0.1c0,0,0,0,0,0l1-1.3l39.6-53.2l0.3-0.4l1.3-1.7c0,0,0,0,0-0.1
			c0-0.1,0-0.1,0-0.2c-0.1-1.2-0.4-5.6-0.7-7.8c-0.1-0.6-0.3-1-0.5-1.3c-0.7-0.8-1.7-0.7-1.7-0.7c-28.8-6.8-57.5-13.6-86.3-20.4
			c-6.1,3.1-12.3,6.1-18.4,9.2c-9,9.1-17.9,18.2-26.9,27.4l1.2,19.9l0,0.7l0.1,1.9l0,0.3l0,0.2l0,0.1c11.7,3.9,23.5,7.9,35.2,11.8"
			/>
		<polyline class="st2" points="32.1,86 123.2,111.8 146.6,82.2 165.4,70.6 		"/>
		<path class="st2" d="M59.1,58.7c29.2,7.8,58.4,15.7,87.6,23.5"/>
		<path class="st2" d="M123.2,111.8c0.4,8.1,0.8,16.2,1.3,24.3"/>
		<path class="st2" d="M166.7,78.7l1.3,0.2l0.5,0.1c0,0-0.2,0.3-0.6,0.8c0,0-0.1,0.1-0.1,0.1c0,0.1-0.1,0.1-0.1,0.2
			c-0.3,0.5-0.8,1.1-1.3,1.8c-4.1,5.5-13.2,17.8-21.9,29.5c-0.7,0.9-0.9,1.2-1,1.3c0,0.1-0.1,0.1-0.1,0.1
			c-0.3,0.4-5.3,6.7-18.2,22.9"/>
		<path class="st2" d="M67.9,121.4c-18.5-6.1-34.6-11.5-35-11.6c-0.4-0.1-0.5-0.2-0.5-0.4l0,0c0-0.1,0.2-0.3,0.2-0.3l0.3-0.4
			l0.6-0.7"/>
		<path class="st2" d="M168.4,79l0,0.6c0,0,0,0,0,0.1c-0.9,1.2-12.1,16.4-23.1,31.3c-0.1,0.2-0.3,0.4-0.5,0.6
			c-0.2,0.3-0.4,0.5-0.6,0.8c-0.6,0.8-2,2.7-2.1,2.8c0,0-13.3,18-17.2,21.6c-0.1,0.1-0.4,0.4-0.8,0.4c-0.3,0-0.6-0.1-0.8-0.3
			c-14.3-4.7-28.5-9.4-42.8-14"/>
		<polyline class="st2" points="67.1,121.9 32.4,110.3 32.3,109.4 32.3,109.4 32.3,109.4 		"/>
		<path class="st2" d="M69,120.7l-1.9,1.2c0,0-0.6,0.1-0.7,0.9s0.1,2.4,0.1,2.4s0.2,1.2,0.8,1.5c0.6,0.3,8.8,3.1,8.8,3.1
			s1.5,0.5,1.9-0.3c0.2-0.3,0.2-0.5,0.2-0.5l-0.1-3.1c0,0,0-0.5-0.2-0.9c0.5-0.2,1.4-0.6,1.4-0.6s0.2-0.4-0.7-0.7
			c-0.9-0.3-8.9-3-8.9-3S69.3,120.5,69,120.7z"/>
		<path class="st2" d="M78.3,128.7l0.8-0.4c0,0,0.3,0,0.3-0.5c0-0.5-0.1-1.8-0.1-1.8"/>
		<path class="st2" d="M67.5,121.7l10,3.1c0,0,0.4,0.1,0.4,0.2"/>
	</g>
</g>
</svg>
