<svg width="24" height="24" viewBox="0 0 24 24" fill="none" xmlns="http://www.w3.org/2000/svg">
<path d="M14.6057 18.4125H9.44723C9.05011 18.4125 8.71011 18.7389 8.71011 19.1197C8.71011 19.5005 9.05011 19.8269 9.44723 19.8269H14.6057C15.0028 19.8269 15.3428 19.5005 15.3428 19.1197C15.3428 18.6845 15.0028 18.4125 14.6057 18.4125ZM10.6386 22.1117C10.7515 22.7645 11.3186 23.1997 11.9986 23.1997C12.6786 23.1997 13.2457 22.7101 13.3586 22.1117C14.2657 22.0573 14.9471 21.3501 14.9471 20.4797H9.05011C9.05011 21.3501 9.78723 22.0573 10.6386 22.1117ZM11.9986 1.49414C8.14299 1.49414 4.96875 4.48614 4.96875 8.23974C4.96875 9.81734 5.53587 11.2317 6.44299 12.3741C7.23723 13.3533 8.03011 14.4413 8.71011 15.5837V17.8141H15.1157V15.6381C15.7957 14.5501 16.6471 13.3533 17.4413 12.3741C18.4042 11.2317 18.9142 9.81734 18.9142 8.23974C19.0284 4.54054 15.8542 1.49414 11.9986 1.49414ZM10.7515 4.54054C9.33435 4.54054 8.14299 5.62854 8.14299 6.98854C8.14299 7.20614 7.97299 7.36934 7.74723 7.36934C7.52011 7.36934 7.35011 7.20614 7.35011 6.98854C7.35011 5.19334 8.88011 3.72454 10.7515 3.72454C10.9786 3.72454 11.1486 3.88774 11.1486 4.10534C11.1486 4.37734 10.9786 4.54054 10.7515 4.54054Z" fill="#4479FB"/>
</svg>
