<svg width="24" height="24" viewBox="0 0 24 24" fill="none" xmlns="http://www.w3.org/2000/svg">
<path d="M8.11888 12.7418C7.85521 12.7805 7.60033 12.7998 7.35072 12.7998C4.21303 12.7998 2.39896 9.72891 4.31849 6.26602C5.59115 3.95977 7.65131 3 9.13842 3C10.5412 3 11.4306 3.85957 10.6466 5.26406C9.82572 6.73535 9.8433 8.2752 10.0578 9.43008C8.90287 9.82383 8.06967 10.9242 8.06967 12.2145C8.07142 12.3938 8.08724 12.5695 8.11888 12.7418ZM11.9878 9.4459C12.6734 7.69512 14.0568 6.75645 15.5369 6.75645C16.9343 6.75645 18.4126 7.59492 19.4744 9.36855C21.5222 12.8051 19.9929 16.2715 18.4214 16.2715C17.9802 16.2715 17.539 16.0025 17.1699 15.3697C16.3103 13.923 14.9744 13.1689 13.8722 12.7787C13.9074 12.5959 13.9267 12.4078 13.9267 12.2145C13.9267 10.9418 13.1163 9.85371 11.9878 9.4459ZM9.07513 14.4258C9.59017 14.8775 10.2634 15.1518 10.9999 15.1518C11.7206 15.1518 12.3816 14.8881 12.8931 14.4539C15.1624 17.3104 13.4644 20.9297 9.214 21H9.08744C4.07767 21 1.9226 16.0395 5.18685 15.992C6.86557 15.9709 8.18392 15.1887 9.07513 14.4258ZM8.96439 12.2145C8.96439 11.485 9.35287 10.81 9.98217 10.4461C10.6115 10.0822 11.3867 10.0805 12.016 10.4461C12.6453 10.8117 13.0337 11.485 13.0337 12.2145C13.0337 13.343 12.1232 14.257 10.9999 14.257C9.8767 14.257 8.96439 13.3412 8.96439 12.2145Z" fill="#C4C4C4"/>
</svg>
