<svg width="24" height="24" viewBox="0 0 24 24" fill="none" xmlns="http://www.w3.org/2000/svg">
<g clip-path="url(#clip0_6807_11597)">
<path d="M3.8311 10.1798C3.92922 9.83639 4.24313 9.59961 4.60032 9.59961H19.3934C19.7506 9.59961 20.0645 9.83639 20.1627 10.1798L22.9055 19.7798C23.0515 20.2909 22.6678 20.7996 22.1363 20.7996H1.85746C1.32595 20.7996 0.942225 20.2909 1.08824 19.7798L3.8311 10.1798Z" fill="#C4C4C4"/>
<path d="M14.58 14.9815C14.46 14.9815 14.34 14.9415 14.25 14.8515C14.04 14.6714 14.03 14.3515 14.21 14.1415C15.48 12.7315 16 11.5615 15.74 10.7715C15.6 10.3615 15.28 10.1115 14.91 9.83146C14.47 9.49146 13.97 9.11146 13.74 8.41146C13.36 7.23146 13.92 5.84147 15.45 4.16146C15.64 3.95146 15.95 3.94147 16.16 4.13146C16.36 4.32146 16.38 4.63146 16.19 4.84146C14.96 6.20145 14.44 7.33146 14.69 8.11145C14.82 8.52145 15.14 8.77145 15.52 9.05145C15.96 9.39146 16.46 9.77145 16.69 10.4714C17.09 11.6615 16.52 13.0814 14.96 14.8214C14.86 14.9315 14.72 14.9815 14.58 14.9815Z" fill="#999999"/>
<path d="M11.369 14.9815C11.249 14.9815 11.129 14.9415 11.039 14.8515C10.829 14.6714 10.819 14.3515 10.999 14.1415C12.269 12.7315 12.789 11.5615 12.529 10.7715C12.389 10.3615 12.069 10.1115 11.699 9.83146C11.259 9.49146 10.759 9.11146 10.529 8.41146C10.149 7.24147 10.709 5.84147 12.239 4.16146C12.429 3.95146 12.739 3.94147 12.949 4.13146C13.149 4.32146 13.169 4.63146 12.979 4.84146C11.749 6.20145 11.229 7.33146 11.479 8.11145C11.609 8.52145 11.929 8.77145 12.309 9.05145C12.749 9.39146 13.249 9.77145 13.479 10.4714C13.879 11.6615 13.309 13.0814 11.749 14.8214C11.639 14.9315 11.499 14.9815 11.369 14.9815Z" fill="#999999"/>
<path d="M8.15028 14.9815C8.03028 14.9815 7.91028 14.9415 7.82028 14.8515C7.61028 14.6714 7.60028 14.3515 7.78028 14.1415C9.05028 12.7315 9.57028 11.5615 9.31028 10.7715C9.17028 10.3615 8.85028 10.1115 8.48028 9.83146C8.04028 9.49146 7.54028 9.11146 7.31028 8.41146C6.93028 7.23146 7.49028 5.84147 9.02028 4.16146C9.21028 3.95146 9.52028 3.94147 9.73028 4.13146C9.93028 4.32146 9.95028 4.63146 9.76028 4.84146C8.53028 6.20145 8.01028 7.33146 8.26028 8.11145C8.39028 8.52145 8.71028 8.77145 9.09028 9.05145C9.53028 9.39146 10.0303 9.77145 10.2603 10.4714C10.6503 11.6615 10.0903 13.0814 8.53028 14.8214C8.42028 14.9315 8.29028 14.9815 8.15028 14.9815Z" fill="#999999"/>
</g>
<defs>
<clipPath id="clip0_6807_11597">
<rect width="24" height="24" fill="white"/>
</clipPath>
</defs>
</svg>
