<svg width="18" height="18" viewBox="0 0 18 18" fill="none" xmlns="http://www.w3.org/2000/svg">
<g clip-path="url(#clip0_5789_16561)">
<path d="M16.5222 6.81251C15.8976 6.57049 15.2244 6.48102 14.5583 6.55152C13.8923 6.62203 13.2526 6.85047 12.6924 7.21792H1.2017C0.882992 7.21792 0.577334 7.09118 0.351971 6.86557C0.126608 6.63997 7.4698e-09 6.33399 0 6.01493V1.20299C0 0.883935 0.126608 0.577951 0.351971 0.352347C0.577334 0.126743 0.882992 0 1.2017 0H15.6221C15.9409 0 16.2465 0.126743 16.4719 0.352347C16.6972 0.577951 16.8238 0.883935 16.8238 1.20299V6.01493C16.8244 6.30883 16.7171 6.59268 16.5222 6.81251ZM11.3669 8.42091L10.1652 9.6239H1.2017V14.4358H6.58293C6.52973 14.8354 6.53377 15.2404 6.59495 15.6388H1.2017C0.882992 15.6388 0.577334 15.5121 0.351971 15.2865C0.126608 15.0609 0 14.7549 0 14.4358V9.6239C0 9.46592 0.0310833 9.30949 0.0914745 9.16353C0.151866 9.01758 0.240382 8.88496 0.351971 8.77325C0.463559 8.66155 0.596034 8.57294 0.741832 8.51248C0.887629 8.45202 1.04389 8.42091 1.2017 8.42091H11.3681H11.3669ZM1.2017 1.20299V6.01493H15.6221V1.20299H1.2017ZM3.00426 2.40597H4.20596C4.36532 2.40597 4.51815 2.46935 4.63083 2.58215C4.74351 2.69495 4.80681 2.84794 4.80681 3.00747C4.80681 3.16699 4.74351 3.31998 4.63083 3.43279C4.51815 3.54559 4.36532 3.60896 4.20596 3.60896H3.00426C2.8449 3.60896 2.69207 3.54559 2.57939 3.43279C2.46671 3.31998 2.40341 3.16699 2.40341 3.00747C2.40341 2.84794 2.46671 2.69495 2.57939 2.58215C2.69207 2.46935 2.8449 2.40597 3.00426 2.40597ZM3.00426 10.8269H4.20596C4.36532 10.8269 4.51815 10.8903 4.63083 11.0031C4.74351 11.1159 4.80681 11.2688 4.80681 11.4284C4.80681 11.5879 4.74351 11.7409 4.63083 11.8537C4.51815 11.9665 4.36532 12.0299 4.20596 12.0299H3.00426C2.8449 12.0299 2.69207 11.9665 2.57939 11.8537C2.46671 11.7409 2.40341 11.5879 2.40341 11.4284C2.40341 11.2688 2.46671 11.1159 2.57939 11.0031C2.69207 10.8903 2.8449 10.8269 3.00426 10.8269ZM14.1368 15.853L12.863 17.1281C12.2989 17.6881 11.5361 18.0016 10.7416 18C9.94707 17.9984 9.18557 17.6818 8.62369 17.1194C8.06182 16.5571 7.74532 15.7949 7.74347 14.9995C7.74162 14.2042 8.05456 13.4405 8.61381 12.8756L9.88762 11.6004L10.7384 12.4509L9.46341 13.7261C9.12526 14.0644 8.93523 14.5234 8.93511 15.002C8.935 15.4806 9.12482 15.9397 9.46281 16.2782C9.80081 16.6167 10.2593 16.807 10.7374 16.8071C11.2155 16.8072 11.6741 16.6172 12.0122 16.2788L13.286 15.0037L14.1368 15.853ZM15.836 14.1519L14.9864 13.3014L16.2603 12.0263C16.5888 11.6861 16.7707 11.2304 16.7668 10.7572C16.7629 10.2841 16.5735 9.83141 16.2395 9.49669C15.9054 9.16196 15.4534 8.97197 14.9808 8.96764C14.5082 8.96331 14.0528 9.14498 13.7126 9.47352L12.4376 10.7487L11.588 9.89818L12.8618 8.62301C13.1403 8.3417 13.4716 8.11821 13.8366 7.9654C14.2016 7.81258 14.5931 7.73344 14.9887 7.73252C15.3844 7.7316 15.7763 7.80891 16.142 7.96002C16.5077 8.11113 16.84 8.33306 17.1198 8.61308C17.3996 8.89309 17.6214 9.22567 17.7724 9.59172C17.9235 9.95777 18.0008 10.3501 18 10.7461C17.9992 11.1422 17.9202 11.5342 17.7677 11.8996C17.6151 12.265 17.392 12.5967 17.1111 12.8756L15.8372 14.1519H15.836ZM14.5622 11.1745C14.6749 11.2873 14.7382 11.4403 14.7382 11.5998C14.7382 11.7593 14.6749 11.9123 14.5622 12.0251L12.0122 14.5778C11.8994 14.6906 11.7464 14.7539 11.587 14.7538C11.4276 14.7537 11.2747 14.6901 11.162 14.5772C11.0494 14.4642 10.9861 14.3111 10.9862 14.1515C10.9864 13.9919 11.0498 13.8389 11.1626 13.7261L13.7114 11.1757C13.7672 11.1197 13.8336 11.0753 13.9066 11.045C13.9796 11.0146 14.0578 10.999 14.1368 10.999C14.2159 10.999 14.2941 11.0146 14.3671 11.045C14.4401 11.0753 14.5064 11.1197 14.5622 11.1757V11.1745Z" fill="#4B4B4B"/>
</g>
<defs>
<clipPath id="clip0_5789_16561">
<rect width="18" height="18" fill="white"/>
</clipPath>
</defs>
</svg>
