<?xml version="1.0" encoding="utf-8"?>
<!-- Generator: Adobe Illustrator 25.0.0, SVG Export Plug-In . SVG Version: 6.00 Build 0)  -->
<svg version="1.1" id="图层_1" xmlns="http://www.w3.org/2000/svg" xmlns:xlink="http://www.w3.org/1999/xlink" x="0px" y="0px"
	 width="562px" height="238px" viewBox="0 0 562 238" enable-background="new 0 0 562 238" xml:space="preserve">
<rect x="1" y="0.5" fill="#4479FB" width="560" height="237"/>
<path fill="#FFFFFF" d="M236.5,154.5l1.6,1.8c0.5-0.6,0.9-1.3,1.2-1.9c0.2-0.7,0.4-1.4,0.4-2.2c0-0.9-0.1-1.7-0.4-2.4
	c-0.3-0.8-0.8-1.5-1.3-2c-0.6-0.6-1.3-1.1-2-1.4c-0.8-0.3-1.5-0.5-2.3-0.5c-0.8,0-1.6,0.2-2.4,0.5c-0.8,0.3-1.4,0.8-2,1.4
	c-0.6,0.6-1.1,1.3-1.4,2c-0.3,0.8-0.4,1.6-0.4,2.4c0,1.8,0.6,3.3,1.8,4.5c1.2,1.2,2.7,1.8,4.5,1.8c0.5,0,0.9,0,1.4-0.2
	c0.4-0.1,0.9-0.3,1.3-0.5l-3.1-3.3H236.5z M240,158.3l3.6,3.9h-3.3l-2.2-2.4c-0.8,0.4-1.5,0.7-2.3,0.9c-0.8,0.2-1.6,0.3-2.4,0.3
	c-1.2,0-2.3-0.2-3.4-0.7c-1.1-0.4-2.1-1.1-2.9-1.9c-0.9-0.8-1.5-1.8-2-2.9s-0.7-2.2-0.7-3.4s0.2-2.3,0.7-3.4c0.4-1.1,1.1-2,2-2.9
	c0.8-0.8,1.8-1.5,2.9-1.9c1.1-0.4,2.3-0.7,3.5-0.7c1.2,0,2.4,0.2,3.5,0.7c1.1,0.4,2.1,1.1,2.9,1.9c0.8,0.8,1.5,1.8,1.9,2.9
	c0.5,1.1,0.7,2.2,0.7,3.4c0,1.2-0.2,2.3-0.7,3.3C241.4,156.5,240.8,157.5,240,158.3L240,158.3z M245.8,160.6v-17h2.8v17H245.8z
	 M255.5,158.1h2.3c1.3,0,2.2-0.1,2.9-0.3c0.6-0.2,1.2-0.5,1.7-0.9c0.6-0.5,1.1-1.2,1.4-2c0.3-0.8,0.5-1.8,0.5-2.8s-0.2-2-0.5-2.8
	c-0.3-0.8-0.8-1.5-1.4-2c-0.5-0.4-1.1-0.7-1.7-0.9c-0.7-0.2-1.7-0.3-3.1-0.3h-1h-1V158.1z M252.7,160.6v-17h3.7
	c2.4,0,4.1,0.1,5.1,0.4c1,0.2,1.8,0.7,2.6,1.2c1,0.8,1.7,1.7,2.2,2.9s0.8,2.5,0.8,4s-0.2,2.8-0.8,4c-0.5,1.2-1.2,2.1-2.2,2.9
	c-0.8,0.6-1.6,1-2.5,1.2c-0.9,0.3-2.4,0.4-4.4,0.4h-0.8H252.7z M270.4,160.6v-17h2.8v17H270.4z"/>
<path fill="#FFFFFF" d="M282.7,160.6v-13h-3.8v-4h12.2v4h-3.8v13H282.7z M293.5,160.6v-17h10.4v3.7H298v2.9h5.6v3.6H298v2.9h5.9v3.8
	H293.5z M319.4,144.3v5c-0.6-0.7-1.3-1.2-1.9-1.5c-0.6-0.3-1.3-0.5-2-0.5c-1.3,0-2.4,0.4-3.2,1.4c-0.8,0.9-1.2,2.1-1.2,3.5
	c0,1.4,0.4,2.5,1.2,3.4c0.8,0.9,1.9,1.3,3.2,1.3c0.7,0,1.4-0.2,2-0.5c0.6-0.3,1.3-0.8,1.9-1.5v5.1c-0.8,0.4-1.5,0.6-2.2,0.8
	c-0.7,0.2-1.5,0.3-2.2,0.3c-0.9,0-1.8-0.1-2.6-0.3c-0.8-0.2-1.5-0.6-2.2-1c-1.3-0.8-2.2-1.9-2.9-3.2c-0.7-1.3-1-2.7-1-4.4
	c0-1.3,0.2-2.5,0.6-3.5c0.4-1.1,1.1-2,1.9-2.9c0.8-0.8,1.7-1.5,2.7-1.9c1-0.4,2.1-0.6,3.4-0.6c0.7,0,1.5,0.1,2.2,0.3
	C318,143.7,318.7,143.9,319.4,144.3L319.4,144.3z M322.2,160.6v-17h4.6v6.6h6.2v-6.6h4.6v17H333v-6.9h-6.2v6.9H322.2z"/>
<path fill-rule="evenodd" clip-rule="evenodd" fill="#FFFFFF" d="M247.2,112.8c6.5,13.4,21.8,21.3,37.1,20.3
	c-6-2.3-11.8-5.9-16.6-10.7c-2.9-2.9-5.1-5.9-6.7-8.9c-3.3-2.3-6.2-5.3-8.5-8.7c-4.2-6.5-5.2-13.6-3.6-20.1
	C243.5,92.7,242.5,103.1,247.2,112.8L247.2,112.8z M292.4,131.7c0.2-0.1,0.5-0.1,0.7-0.2l-1.8-0.3
	C291.7,131.3,292,131.5,292.4,131.7L292.4,131.7z M300.6,128.2c1.4-0.8,2.7-1.7,3.9-2.7c-3.2-1.4-6.3-3-9.3-4.7
	c-0.5,0.1-1.1,0.2-1.6,0.4l7.8,5.4L300.6,128.2z M306.3,123.9c7.2-6.8,10.6-16.3,8.9-26c0.8,9.6-6.1,18.1-16.7,21.8
	C301,121.3,303.6,122.7,306.3,123.9L306.3,123.9z"/>
<path fill="#FFFFFF" d="M306.3,123.9c-2.8-1.3-5.6-2.8-8.2-4.4c-2.5-1.5-4.8-3.1-6.9-4.8c6.3-5,8.6-13.3,4.9-21
	c-4.7-9.6-17.1-14.5-27.8-10.8c-11.7,4.1-15.2,15.9-9.5,25.4c-17.8-19.6,2.7-45.7,31.4-36.9c9.7,3,18.1,9.5,22.5,18.5
	C318.4,102.2,315.5,115.4,306.3,123.9z"/>
<path fill="#FFFFFF" d="M247.2,112.8c6.5,13.4,21.8,21.3,37,20.3c-6-2.3-11.8-5.9-16.6-10.7c-2.9-2.9-5.1-5.9-6.7-8.9
	c-3.3-2.3-6.3-5.3-8.5-8.7c-4.2-6.5-5.2-13.6-3.6-20.1C243.5,92.7,242.5,103.1,247.2,112.8L247.2,112.8z"/>
<path fill="#FFFFFF" d="M321.1,130.6c-10.4,2.2-25.1-1.5-36.1-9.9c-13-9.8-16.1-22.5-7.4-28.8c-2.9,7,2.6,17.4,15,26.4
	C301.3,124.6,311.7,128.9,321.1,130.6z"/>
<path fill="#FFFFFF" d="M303.7,132.9c-10.9,1.9-25.2-2.9-35-12.6c-12.2-12.1-13.1-27.1-2-33.5c4.4-2.6,10.1-3.4,16.1-2.7
	c-1.8,0.5-3.4,1.1-4.9,2c-11.1,6.5-9.9,21.8,2.6,34.1C287.1,126.7,295.5,131.2,303.7,132.9L303.7,132.9z"/>
</svg>
