<svg width="93" height="26" viewBox="0 0 93 26" fill="none" xmlns="http://www.w3.org/2000/svg">
<path d="M15.3128 20.7596V18.6694V15.2999C15.3128 14.9344 15.5068 14.5974 15.8263 14.4147L20.2992 11.8276L22.3474 10.6454V7.32727C22.3474 6.59626 21.9594 5.91664 21.3262 5.55114L12.1978 0.274131C11.5645 -0.091377 10.7829 -0.091377 10.1496 0.274131L1.02124 5.55114C0.387957 5.91664 0 6.59626 0 7.32727V17.8813C0 18.6123 0.387957 19.2919 1.02124 19.6574L10.1496 24.9344C10.7829 25.2999 11.5645 25.2999 12.1978 24.9344L15.3128 23.1354V20.7596ZM12.1921 10.8396C11.5588 11.2051 11.1708 11.8847 11.1708 12.6157V21.3821C11.1708 22.1703 10.3151 22.6614 9.63613 22.2674L2.55594 18.1782C2.23645 17.9955 2.04247 17.6585 2.04247 17.293V7.92693C2.04247 7.56142 2.23645 7.22447 2.55594 7.04172L10.6574 2.35866C10.9769 2.17591 11.3648 2.17591 11.6786 2.35866L17.7376 5.85953C18.4222 6.25359 18.4222 7.2416 17.7376 7.63566L12.1921 10.8396Z" fill="#5475FF"/>
<path d="M23.7469 9.83924L22.3549 10.6445V13.5286V13.8084V17.3036V18.4915C22.3549 18.8513 22.1609 19.1825 21.8414 19.3538L21.733 19.4167L21.5847 19.5023L20.301 20.2448L19.4737 20.7245L15.3203 23.1231V24.1397V24.6251V24.6423V24.7051C15.3374 25.4646 16.1419 25.9501 16.8208 25.6074L16.855 25.5903L17.6766 25.1163L24.7682 20.9986C25.082 20.8159 25.2759 20.4789 25.2759 20.1134V10.7302C25.2817 9.94203 24.4259 9.44517 23.7469 9.83924Z" fill="#5475FF"/>
<path d="M66.4018 11.0684H64.1543C63.8168 11.0684 63.5469 11.3386 63.5469 11.6764V20.1822C63.5469 20.52 63.8168 20.7902 64.1543 20.7902H66.4018C66.7392 20.7902 67.0092 20.52 67.0092 20.1822V11.6764C67.0024 11.3386 66.7325 11.0684 66.4018 11.0684Z" fill="#777777"/>
<path d="M66.4018 8.96777H64.1543C63.8168 8.96777 63.5469 8.69753 63.5469 8.35973V6.10999C63.5469 5.77219 63.8168 5.50195 64.1543 5.50195H66.4018C66.7392 5.50195 67.0092 5.77219 67.0092 6.10999V8.35973C67.0024 8.69753 66.7325 8.96777 66.4018 8.96777Z" fill="#777777"/>
<path d="M92.0424 11.0684H89.7949C89.4575 11.0684 89.1875 11.3386 89.1875 11.6764V20.1822C89.1875 20.52 89.4575 20.7902 89.7949 20.7902H92.0424C92.3798 20.7902 92.6498 20.52 92.6498 20.1822V11.6764C92.6498 11.3386 92.3798 11.0684 92.0424 11.0684Z" fill="#777777"/>
<path d="M92.0424 8.96777H89.7949C89.4575 8.96777 89.1875 8.69753 89.1875 8.35973V6.10999C89.1875 5.77219 89.4575 5.50195 89.7949 5.50195H92.0424C92.3798 5.50195 92.6498 5.77219 92.6498 6.10999V8.35973C92.6498 8.69753 92.3798 8.96777 92.0424 8.96777Z" fill="#777777"/>
<path d="M80.0021 5.50781H79.0774H77.6736H74.974H73.7591H71.0595C70.722 5.50781 70.4521 5.77805 70.4521 6.11585V8.35884C70.4521 8.69664 70.722 8.96688 71.0595 8.96688H73.7591V8.98039H77.6669H78.0853H79.0639H79.8333C81.1697 8.98039 82.2563 10.0681 82.2563 11.4058V13.1488V13.1623V14.9054C82.2563 16.2431 81.1697 17.3308 79.8333 17.3308H78.0853H76.4858H76.3305H74.515C74.1776 17.3308 73.9076 17.0606 73.9076 16.7228V14.9054V14.3784V14.223V13.7636C73.9076 13.4258 73.6376 13.1556 73.3002 13.1556H71.0527C70.7153 13.1556 70.4453 13.4258 70.4453 13.7636V14.223V20.1751C70.4453 20.5129 70.7153 20.7831 71.0527 20.7831H71.3092H73.9076H75.7434C75.8851 20.7966 76.0268 20.7966 76.1753 20.7966H79.9886C83.1471 20.7966 85.7118 18.2293 85.7118 15.0675V13.1691V13.1556V11.2572C85.7253 8.07509 83.1607 5.50781 80.0021 5.50781Z" fill="#777777"/>
<path d="M54.3479 5.50781H50.5279C47.3694 5.50781 44.8047 8.07509 44.8047 11.2369V11.9463V13.1488V14.8986V15.054C44.8047 18.2158 47.3694 20.7831 50.5279 20.7831H51.8305C52.168 20.7831 52.4379 20.5129 52.4379 20.1751V17.9253C52.4379 17.5875 52.168 17.3173 51.8305 17.3173H50.6832C49.3468 17.3173 48.2602 16.2296 48.2602 14.8919V13.1421V11.9395V11.3855C48.2602 10.0478 49.3468 8.96012 50.6832 8.96012H54.186C55.5223 8.96012 56.6089 10.0478 56.6089 11.3855V12.534C56.6089 12.8718 56.8789 13.1421 57.2163 13.1421H59.4638C59.8012 13.1421 60.0712 12.8718 60.0712 12.534V11.2774C60.0712 11.2639 60.0712 11.2504 60.0712 11.2301C60.0779 8.06833 57.5133 5.50781 54.3479 5.50781Z" fill="#777777"/>
<path d="M59.8929 18.1633L55.0606 13.326C54.9458 13.2112 54.7906 13.1504 54.6354 13.1504H51.4498C50.9099 13.1504 50.6399 13.8057 51.0246 14.1841L57.4497 20.6158C57.686 20.8522 58.0707 20.8522 58.3069 20.6158L59.8997 19.0213C60.1291 18.7781 60.1291 18.3998 59.8929 18.1633Z" fill="#777777"/>
</svg>
