<svg xmlns="http://www.w3.org/2000/svg" xmlns:xlink="http://www.w3.org/1999/xlink" fill="none" version="1.1" width="11.8100004196167" height="12" viewBox="0 0 11.8100004196167 12"><defs><clipPath id="master_svg0_2688_67072"><rect x="0" y="0" width="11.8100004196167" height="12" rx="0"/></clipPath></defs><g clip-path="url(#master_svg0_2688_67072)"><g><path d="M7.15,9.68L7.15,7.13C7.15,6.96,7.24,6.8,7.39,6.72L9.48,5.51L10.44,4.96L10.44,3.41C10.44,3.07,10.26,2.75,9.96,2.58L5.7,0.13C5.4,-0.04,5.04,-0.04,4.74,0.13L0.48,2.59C0.18,2.76,0,3.08,0,3.42L0,8.34C0,8.68,0.18,9,0.48,9.17L4.74,11.63C5.04,11.8,5.4,11.8,5.7,11.63L7.16,10.79L7.16,9.68L7.15,9.68ZM5.69,5.05C5.39,5.22,5.21,5.54,5.21,5.88L5.21,9.97C5.21,10.34,4.81,10.57,4.49,10.38L1.18,8.47C1.03,8.38,0.94,8.23,0.94,8.06L0.94,3.69C0.94,3.52,1.03,3.36,1.18,3.28L4.96,1.1C5.11,1.01,5.29,1.01,5.44,1.1L8.27,2.73C8.59,2.91,8.59,3.37,8.27,3.56L5.68,5.06L5.69,5.05Z" fill="#212322" fill-opacity="1" style="mix-blend-mode:passthrough"/></g><g><path d="M11.090000095367431,4.590000153192139L10.44000009536743,4.970000553192139L10.44000009536743,8.630001553192137C10.44000009536743,8.80000155319214,10.350000095367431,8.950001553192138,10.200000095367432,9.03000155319214L10.150000095367432,9.060001553192139L10.080000095367431,9.10000155319214L9.480000095367432,9.450001553192138L9.090000095367431,9.670001553192138L7.150000095367432,10.790001553192138L7.150000095367432,11.490001553192139L7.150000095367432,11.520001553192138C7.150000095367432,11.880001553192137,7.5300000953674315,12.10000155319214,7.850000095367432,11.94000155319214L7.870000095367431,11.94000155319214L8.250000095367431,11.71000155319214L11.560000095367432,9.790001553192138C11.71000009536743,9.700001553192138,11.800000095367432,9.55000155319214,11.800000095367432,9.380001553192137L11.800000095367432,4.999999553192139C11.800000095367432,4.630000553192139,11.400000095367432,4.400000553192139,11.080000095367431,4.590000153192139L11.090000095367431,4.590000153192139Z" fill="#212322" fill-opacity="1" style="mix-blend-mode:passthrough"/></g></g></svg>