<svg width="22" height="22" viewBox="0 0 22 22" fill="none" xmlns="http://www.w3.org/2000/svg">
<path d="M11.0881 1.70508C14.3266 1.70508 17.1893 3.48735 18.7351 6.17444L20.0784 5.84269C20.1507 5.82483 20.2263 5.82553 20.2982 5.84474C20.3701 5.86395 20.436 5.90103 20.4897 5.95255C20.5434 6.00406 20.5832 6.06833 20.6054 6.13937C20.6276 6.21041 20.6315 6.28591 20.6166 6.35885L19.7511 10.6262C19.7188 10.7848 19.6419 10.9309 19.5295 11.0473C19.417 11.1638 19.2737 11.2457 19.1163 11.2835C18.956 11.3221 18.7885 11.3179 18.6304 11.2714C18.4723 11.2249 18.3292 11.1376 18.2154 11.0183L15.1031 7.75158C15.0498 7.69561 15.0122 7.62664 14.994 7.55158C14.9758 7.47651 14.9776 7.39798 14.9993 7.32384C15.0209 7.2497 15.0617 7.18255 15.1175 7.12909C15.1732 7.07564 15.242 7.03777 15.317 7.01926L16.9343 6.61913C15.647 4.70671 13.4946 3.46971 11.0881 3.46971C7.17326 3.46971 3.99119 6.72412 3.99119 10.7488C3.99119 14.7735 7.17326 18.0279 11.0881 18.0279C12.6605 18.0287 14.1866 17.4962 15.4172 16.5174C15.5079 16.4438 15.6123 16.389 15.7244 16.3561C15.8365 16.3232 15.954 16.3128 16.07 16.3257C16.1861 16.3385 16.2985 16.3743 16.4007 16.4309C16.5029 16.4876 16.5928 16.5639 16.6652 16.6556C16.7376 16.7472 16.7911 16.8523 16.8226 16.9648C16.8541 17.0773 16.8629 17.1949 16.8486 17.3108C16.8343 17.4267 16.7971 17.5387 16.7392 17.6401C16.6813 17.7415 16.6038 17.8305 16.5112 17.9017C14.9693 19.1268 13.0579 19.7933 11.0885 19.7925C6.18948 19.7925 2.22656 15.7392 2.22656 10.7488C2.22656 5.75843 6.18948 1.70508 11.0881 1.70508Z" fill="white"/>
</svg>
