<svg width="52" height="52" viewBox="0 0 52 52" fill="none" xmlns="http://www.w3.org/2000/svg">
<path d="M11 26.5C11 24.8333 11.5833 24 12.75 24H37.25C38.4167 24 39 24.8333 39 26.5C39 28.1667 38.4167 29 37.25 29H12.75C11.5833 29 11 28.1667 11 26.5Z" fill="white"/>
<path d="M39.0955 26.3775L28.7756 16.0576C28.577 15.8657 28.4185 15.6362 28.3095 15.3824C28.2005 15.1286 28.1431 14.8557 28.1407 14.5795C28.1383 14.3033 28.1909 14.0294 28.2955 13.7738C28.4001 13.5182 28.5545 13.286 28.7498 13.0907C28.9451 12.8954 29.1774 12.7409 29.433 12.6363C29.6886 12.5318 29.9625 12.4791 30.2387 12.4815C30.5149 12.4839 30.7878 12.5413 31.0416 12.6503C31.2954 12.7593 31.5249 12.9178 31.7167 13.1164L43.4833 24.883C43.682 25.0751 43.8404 25.3048 43.9492 25.5588C44.0581 25.8128 44.1153 26.086 44.1174 26.3623C44.1195 26.6386 44.0666 26.9126 43.9616 27.1682C43.8567 27.4239 43.7019 27.656 43.5062 27.8512L31.7386 39.6156C31.3486 40.0058 30.8195 40.225 30.2679 40.2251C29.7162 40.2252 29.1871 40.0062 28.7969 39.6162C28.4068 39.2262 28.1875 38.6971 28.1875 38.1455C28.1874 37.5938 28.4064 37.0647 28.7964 36.6745L39.0945 26.3764L39.0955 26.3775Z" fill="white"/>
</svg>
