<svg xmlns="http://www.w3.org/2000/svg" xmlns:xlink="http://www.w3.org/1999/xlink" fill="none" version="1.1" width="36" height="36" viewBox="0 0 36 36"><defs><clipPath id="master_svg0_106_14559"><rect x="0" y="0" width="36" height="36" rx="0"/></clipPath></defs><g clip-path="url(#master_svg0_106_14559)"><g><path d="M18,0C14.44,0,10.96,1.06,8,3.03C5.04,5.01,2.73,7.82,1.37,11.11C0,14.4,-0.35,18.02,0.35,21.51C1.04,25,2.76,28.21,5.28,30.73C7.8,33.25,11,34.96,14.5,35.66C17.99,36.35,21.61,36,24.9,34.64C28.19,33.28,31,30.97,32.98,28.01C34.96,25.05,36.01,21.57,36.01,18.01C36.01,13.24,34.11,8.66,30.74,5.28C27.35,1.9,22.77,0,18,0Z" fill="#303AB2" fill-opacity="1" style="mix-blend-mode:passthrough"/></g><g><g><path d="M20.380001411437988,25.030000686645508L20.380001411437988,20.180000686645506C20.380001411437988,19.850000686645508,20.55000141143799,19.550000686645507,20.83000141143799,19.390000686645507L24.810001411437987,17.09000068664551L26.630001411437988,16.040000686645506L26.630001411437988,13.100000686645508C26.630001411437988,12.450000686645508,26.28000141143799,11.850000686645508,25.720001411437988,11.520000686645508L17.610001411437988,6.840000686645507C17.05000141143799,6.510000686645508,16.350001411437987,6.510000686645508,15.790001411437988,6.840000686645507L7.680001411437988,11.520000686645508C7.120001411437988,11.850000686645508,6.770001411437988,12.450000686645508,6.770001411437988,13.100000686645508L6.770001411437988,22.470000686645506C6.770001411437988,23.120000686645508,7.120001411437988,23.72000068664551,7.680001411437988,24.050000686645507L15.790001411437988,28.730000686645507C16.350001411437987,29.06000068664551,17.05000141143799,29.06000068664551,17.610001411437988,28.730000686645507L20.380001411437988,27.13000068664551L20.380001411437988,25.030000686645508ZM17.610001411437988,16.220000686645506C17.05000141143799,16.550000686645507,16.700001411437988,17.150000686645505,16.700001411437988,17.800000686645507L16.700001411437988,25.590000686645507C16.700001411437988,26.29000068664551,15.940001411437988,26.730000686645507,15.340001411437989,26.38000068664551L9.050001411437988,22.750000686645507C8.770001411437988,22.59000068664551,8.600001411437988,22.290000686645506,8.600001411437988,21.960000686645508L8.600001411437988,13.640000686645507C8.600001411437988,13.310000686645509,8.770001411437988,13.010000686645508,9.050001411437988,12.850000686645508L16.25000141143799,8.690000686645508C16.530001411437986,8.530000686645508,16.880001411437988,8.530000686645508,17.16000141143799,8.690000686645508L22.540001411437988,11.800000686645507C23.150001411437987,12.150000686645509,23.150001411437987,13.030000686645508,22.540001411437988,13.380000686645507L17.610001411437988,16.230000686645507L17.610001411437988,16.220000686645506Z" fill="#FFFFFF" fill-opacity="1" style="mix-blend-mode:passthrough"/></g><g><path d="M27.870001068115236,15.32999974798584L26.630001068115234,16.03999874798584L26.630001068115234,23.010000747985842C26.630001068115234,23.330000747985842,26.460001068115233,23.62000074798584,26.180001068115235,23.780000747985838C26.180001068115235,23.780000747985838,26.080001068115234,23.84000074798584,26.080001068115234,23.84000074798584L25.950001068115235,23.92000074798584L24.810001068115234,24.580000747985842L24.070001068115236,25.010000747985842L20.380001068115234,27.139980747985838L20.380001068115234,28.46998074798584C20.380001068115234,28.46998074798584,20.380001068115234,28.47998074798584,20.380001068115234,28.47998074798584L20.380001068115234,28.53998074798584C20.400001568115233,29.21998074798584,21.110001068115235,29.64998074798584,21.710001068115233,29.33998074798584L21.740001068115234,29.319980747985838L22.470001068115234,28.89998074798584L28.770001068115235,25.23998074798584C29.050001068115236,25.080000747985842,29.220001068115234,24.780000747985838,29.220001068115234,24.45000074798584L29.220001068115234,16.10999674798584C29.220001068115234,15.40999674798584,28.460001068115233,14.96999674798584,27.860001068115235,15.31999674798584L27.870001068115236,15.32999974798584Z" fill="#FFFFFF" fill-opacity="1" style="mix-blend-mode:passthrough"/></g></g></g></svg>