<svg xmlns="http://www.w3.org/2000/svg" xmlns:xlink="http://www.w3.org/1999/xlink" fill="none" version="1.1" width="878.7000122070312" height="907.0999755859375" viewBox="0 0 878.7000122070312 907.0999755859375"><defs><clipPath id="master_svg0_2681_043626"><rect x="0" y="0" width="878.7000122070312" height="907.0999755859375" rx="0"/></clipPath></defs><g clip-path="url(#master_svg0_2681_043626)"><g></g><g><g><g><g><path d="M390.3000183105469,893.8L390.3000183105469,891.3L390.3000183105469,887.2C390.3000183105469,886.7,390.50001831054686,886.4,390.9000183105469,886.2L396.4000183105469,883.1L398.9000183105469,881.6L398.9000183105469,877.60004C398.9000183105469,876.70001,398.4000183105469,875.90002,397.6000183105469,875.40002L386.6000183105469,869C385.8000183105469,868.5,384.9000183105469,868.5,384.1000183105469,869L373.10000831054685,875.40002C372.3000183105469,875.90002,371.8000183105469,876.70001,371.8000183105469,877.60004L371.8000183105469,890.4C371.8000183105469,891.3,372.3000183105469,892.1,373.10000831054685,892.6L384.1000183105469,899.0001C384.9000183105469,899.5001,385.8000183105469,899.5001,386.6000183105469,899.0001L390.4000183105469,896.8L390.3000183105469,893.8ZM386.6000183105469,881.7C385.8000183105469,882.2,385.3000183105469,883,385.3000183105469,883.9L385.3000183105469,894.5C385.3000183105469,895.4,384.3000183105469,896.1,383.50001831054686,895.5L375.0000283105469,890.6C374.70003831054686,890.4,374.4000283105469,889.9,374.4000283105469,889.6L374.4000283105469,878.19995C374.4000283105469,877.69995,374.6000383105469,877.39996,375.0000283105469,877.19995L384.8000183105469,871.49994C385.1000183105469,871.29993,385.70001831054685,871.29993,386.1000183105469,871.49994L393.4000183105469,875.69995C394.20001831054685,876.19995,394.20001831054685,877.39996,393.4000183105469,877.89996L386.6000183105469,881.7Z" fill="#B4B4B4" fill-opacity="1" style="mix-blend-mode:passthrough"/></g></g><g><path d="M400.4999572753906,880.5999760859376L398.7999872753906,881.5999780859376L398.7999872753906,885.0999780859376L398.7999872753906,885.3999680859375L398.7999872753906,889.5999780859376L398.7999872753906,891.0999880859375C398.7999872753906,891.5999880859375,398.59997727539064,891.8999880859375,398.1999772753906,892.0999880859375L398.09997727539064,892.1999880859375L397.8999672753906,892.2998880859375L396.2999572753906,893.1999880859375L395.2999572753906,893.7998880859375L390.2999572753906,896.5998880859376L390.2999572753906,897.8998880859375L390.2999572753906,898.4998880859375L390.2999572753906,898.5998880859376C390.2999572753906,899.4998880859375,391.2999572753906,900.0998880859376,392.0999472753906,899.6997880859375L393.0999472753906,899.0998880859376L401.59995727539064,894.0998880859376C401.89995727539065,893.8998880859375,402.1999572753906,893.3998880859375,402.1999572753906,893.0998880859376L402.1999572753906,881.6998280859375C402.39995727539065,880.7000120859375,401.39995727539065,880.0999760859376,400.4999572753906,880.5999760859376Z" fill="#B4B4B4" fill-opacity="1" style="mix-blend-mode:passthrough"/></g></g><g><g><g><path d="M435.9999961035156,882.2999877929688L433.70001210351563,882.2999877929688C433.40002410351565,882.2999877929688,433.1000061035156,882.4999997929688,433.1000061035156,882.8999637929687L433.1000061035156,891.5999777929687C433.1000061035156,891.8999677929687,433.30001810351564,892.1999477929687,433.70001210351563,892.1999477929687L435.9999961035156,892.1999477929687C436.2999861035156,892.1999477929687,436.6000061035156,891.9999377929687,436.6000061035156,891.5999777929687L436.6000061035156,882.8999637929687C436.7000161035156,882.4999997929688,436.3999961035156,882.2999877929688,435.9999961035156,882.2999877929688Z" fill="#B4B4B4" fill-opacity="1" style="mix-blend-mode:passthrough"/></g><g><path d="M435.29999,880.2000089648437L434.39999,880.2000089648437C433.699982,880.2000089648437,433,879.6000389648437,433,878.7999889648438L433,877.8999589648438C433,877.1999509648438,433.600006,876.4999389648438,434.39999,876.4999389648438L435.29999,876.4999389648438C436,876.4999389648438,436.69998,877.0999149648437,436.69998,877.8999589648438L436.69998,878.7999889648438C436.70001,879.5999789648438,436.10001,880.2000089648437,435.29999,880.2000089648437Z" fill="#B4B4B4" fill-opacity="1" style="mix-blend-mode:passthrough"/></g></g><g><g><path d="M462.2999838964844,882.2999877929688L459.9999998964844,882.2999877929688C459.7000118964844,882.2999877929688,459.3999938964844,882.4999997929688,459.3999938964844,882.8999637929687L459.3999938964844,891.5999777929687C459.3999938964844,891.8999677929687,459.6000058964844,892.1999477929687,459.9999998964844,892.1999477929687L462.2999838964844,892.1999477929687C462.59997389648436,892.1999477929687,462.8999938964844,891.9999377929687,462.8999938964844,891.5999777929687L462.8999938964844,882.8999637929687C462.8999938964844,882.4999997929688,462.7000138964844,882.2999877929688,462.2999838964844,882.2999877929688Z" fill="#B4B4B4" fill-opacity="1" style="mix-blend-mode:passthrough"/></g><g><path d="M461.60000831054685,880.2000089648437L460.7000083105469,880.2000089648437C460.00000031054685,880.2000089648437,459.3000183105469,879.6000389648437,459.3000183105469,878.7999889648438L459.3000183105469,877.8999589648438C459.3000183105469,877.1999509648438,459.9000243105469,876.4999389648438,460.7000083105469,876.4999389648438L461.60000831054685,876.4999389648438C462.3000183105469,876.4999389648438,462.99999831054686,877.0999149648437,462.99999831054686,877.8999589648438L462.99999831054686,878.7999889648438C462.8999983105469,879.5999789648438,462.2999883105469,880.2000089648437,461.60000831054685,880.2000089648437Z" fill="#B4B4B4" fill-opacity="1" style="mix-blend-mode:passthrough"/></g></g><g><path d="M449.99999779296877,876.5999755859375L449.10000779296877,876.5999755859375L447.60000779296877,876.5999755859375L444.89999779296875,876.5999755859375L443.60000779296877,876.5999755859375L440.89999379296876,876.5999755859375C440.6000057929688,876.5999755859375,440.29998779296875,876.7999875859375,440.29998779296875,877.1999515859375L440.29998779296875,879.4999355859375C440.29998779296875,879.7999255859374,440.49999979296877,880.0999155859375,440.89999379296876,880.0999155859375L443.60000779296877,880.0999155859375L447.60000779296877,880.0999155859375L448.10000779296877,880.0999155859375L449.10000779296877,880.0999155859375L449.89999779296875,880.0999155859375C451.29998779296875,880.0999155859375,452.3999877929688,881.1998855859375,452.3999877929688,882.5999155859375L452.3999877929688,884.3999055859375L452.3999877929688,886.1998855859375C452.3999877929688,887.5998755859375,451.29998779296875,888.6998755859375,449.89999779296875,888.6998755859375L447.99999779296877,888.6998755859375L446.39999779296875,888.6998755859375L446.29998779296875,888.6998755859375L444.49999779296877,888.6998755859375C444.20000779296873,888.6998755859375,443.89999779296875,888.4998755859375,443.89999779296875,888.0998755859375L443.89999779296875,886.2999255859374L443.89999779296875,885.6999555859375L443.89999779296875,885.4999355859375L443.89999779296875,884.9999955859375C443.89999779296875,884.7000155859375,443.69997779296875,884.4000255859376,443.29998779296875,884.4000255859376L440.99999979296877,884.4000255859376C440.7000117929687,884.4000255859376,440.39999379296876,884.6000355859375,440.39999379296876,884.9999955859375L440.39999379296876,885.4999955859375L440.39999379296876,891.4999755859375C440.39999379296876,891.7999755859375,440.6000057929688,892.0999755859375,440.99999979296877,892.0999755859375L441.2000117929687,892.0999755859375L443.80001779296873,892.0999755859375L445.60000779296877,892.0999755859375C445.70000779296873,892.0999755859375,445.89999779296875,892.0999755859375,446.10000779296877,892.0999755859375L449.99999779296877,892.0999755859375C453.1999877929687,892.0999755859375,455.79998779296875,889.4999755859375,455.79998779296875,886.2999855859375L455.79998779296875,884.3999655859375L455.79998779296875,882.4999355859375C455.79998779296875,879.2000155859375,453.1999877929687,876.5999755859375,449.99999779296877,876.5999755859375Z" fill="#B4B4B4" fill-opacity="1" style="mix-blend-mode:passthrough"/></g><g><g><path d="M423.7000105175781,876.5999755859375L419.8000205175781,876.5999755859375C416.60001051757814,876.5999755859375,414.0000305175781,879.1999555859375,414.0000305175781,882.3999655859375L414.0000305175781,883.0999755859375L414.0000305175781,884.3999655859375L414.0000305175781,886.1999555859375L414.0000305175781,886.2999255859374C414.0000305175781,889.4999755859375,416.6000405175781,892.0998755859375,419.8000205175781,892.0998755859375L421.2000105175781,892.0998755859375C421.50000051757814,892.0998755859375,421.8000205175781,891.8998755859375,421.8000205175781,891.4999755859375L421.8000205175781,889.1999755859375C421.8000205175781,888.8999755859375,421.60001051757814,888.5999755859375,421.2000105175781,888.5999755859375L420.10001051757814,888.5999755859375C418.7000105175781,888.5999755859375,417.60001051757814,887.4999755859375,417.60001051757814,886.0999755859375L417.60001051757814,884.2999855859375L417.60001051757814,882.9999955859375L417.60001051757814,882.4000255859376C417.60001051757814,880.9999955859375,418.7000105175781,879.9000255859376,420.10001051757814,879.9000255859376L423.60001051757814,879.9000255859376C425.0000305175781,879.9000255859376,426.10003051757815,880.9999955859375,426.10003051757815,882.4000255859376L426.10003051757815,883.4999955859375C426.10003051757815,883.7999855859375,426.30003051757814,884.0999755859375,426.7000305175781,884.0999755859375L429.0000305175781,884.0999755859375C429.30003051757814,884.0999755859375,429.60003051757815,883.8999655859375,429.60003051757815,883.4999955859375L429.60003051757815,882.2000155859375C429.60003051757815,879.2000155859375,427.0000305175781,876.5999755859375,423.7000105175781,876.5999755859375Z" fill="#B4B4B4" fill-opacity="1" style="mix-blend-mode:passthrough"/></g><g><g><path d="M429.39999482421877,889.5000033789063L424.50000482421876,884.5999753789063C424.39999482421877,884.5000003789063,424.29998482421877,884.3999633789062,424.00000482421876,884.3999633789062L420.70001182421873,884.3999633789062C420.10000612421874,884.3999633789062,419.90002482421875,885.0999753789063,420.20001182421873,885.3999633789062L426.80001482421875,891.9999433789062C427.00003482421874,892.1999533789062,427.50003482421874,892.1999533789062,427.7000148242187,891.9999433789062L429.30001482421875,890.3999633789062C429.60000482421873,890.2000133789063,429.60000482421873,889.7000133789063,429.39999482421877,889.5000033789063Z" fill="#B4B4B4" fill-opacity="1" style="mix-blend-mode:passthrough"/></g></g></g></g><g><g><path d="M485.89999,892.7999633789062C484.39999,892.7999633789062,483.10001,892.4999633789063,482,891.7999633789062C480.89999,891.0999633789063,480,890.1999633789062,479.399994,888.9999633789063C478.799988,887.7999633789062,478.5,886.2999833789063,478.5,884.5999733789063C478.5,882.8999633789062,478.799988,881.5000033789063,479.399994,880.1999533789062C480,878.9999433789062,480.89999,877.9999433789062,482,877.3999633789062C483.10001,876.7999873789063,484.39999,876.3999633789062,485.89999,876.3999633789062C487.39999,876.3999633789062,488.7,876.6999513789062,489.8,877.3999633789062C490.9,878.0999733789063,491.8,878.9999433789062,492.3,880.1999533789062C492.9,881.3999633789062,493.2,882.8999633789062,493.2,884.5999733789063C493.2,886.2999833789063,492.9,887.6999633789062,492.3,888.9999633789063C491.7,890.1999633789062,490.9,891.1999633789062,489.7,891.7999633789062C488.7,892.4999633789063,487.39999,892.7999633789062,485.89999,892.7999633789062ZM485.89999,889.6999633789062C486.69998,889.6999633789062,487.39999,889.4999633789063,488,889.1000633789063C488.6,888.6999633789062,489.1,888.1000633789063,489.4,887.4000633789062C489.7,886.6999633789062,489.9,885.8000533789062,489.9,884.7000133789063C489.9,883.6000333789062,489.7,882.7000133789063,489.4,882.0000033789063C489.1,881.2000133789063,488.6,880.7000133789063,488,880.2999833789063C487.39999,879.8999633789062,486.70001,879.7000133789063,485.89999,879.7000133789063C485.10001,879.7000133789063,484.39999,879.9000233789062,483.79999,880.2999833789063C483.19998,880.7000133789063,482.69998,881.2999833789063,482.39999,882.0000033789063C482.10001,882.7999833789063,481.89999,883.7000133789063,481.89999,884.7000133789063C481.89999,885.7000133789063,482.10001,886.6000633789063,482.39999,887.4000633789062C482.69998,888.1999633789062,483.19998,888.6999633789062,483.79999,889.1000633789063C484.39999,889.4999633789063,485.10001,889.6999633789062,485.89999,889.6999633789062ZM490.8,894.6999633789062L485.39999,888.2999633789062L487.89999,886.2000133789063L493.4,892.6000633789063L490.8,894.6999633789062Z" fill="#B4B4B4" fill-opacity="1" style="mix-blend-mode:passthrough"/></g><g><path d="M501.29999,879.5999789648438C500.69998,879.5999789648438,500.19998,879.7999889648438,499.79999,880.0999789648438C499.39999,880.4999989648437,499,880.9999989648437,498.69998,881.6999489648438L496.0999756,879.8999589648438C496.499969,878.8999589648438,497.19998,878.0999789648438,498.09998,877.4999389648438C498.99997,876.8999629648438,500.09998,876.4999389648438,501.49997,876.4999389648438C502.59998,876.4999389648438,503.49997,876.6999509648438,504.29996,877.0999149648437C505.09995,877.4999389648438,505.69995,878.0999189648437,506.0999,878.7999289648437C506.4999,879.4999389648438,506.7,880.3998989648437,506.7,881.2999289648437C506.7,882.0999189648437,506.4999,882.9999389648438,506.0999,883.6999489648438C505.69995,884.4999389648438,505.09995,885.2999289648437,504.29996,886.0999789648438L499.69995,891.0000389648437L498.99994,889.4000389648437L507.0999,889.4000389648437L507.0999,892.5000389648437L496,892.5000389648437L496,890.2000389648438L501.5,884.4000289648437C502.10001,883.7000089648437,502.5,883.2000089648437,502.79999,882.8000489648438C503,882.4000289648437,503.19998,881.9000289648437,503.19998,881.4000289648437C503.19998,880.8000489648438,502.99997,880.4000289648437,502.69998,879.9999989648437C502.39999,879.7000089648437,501.89999,879.5999789648438,501.29999,879.5999789648438Z" fill="#B4B4B4" fill-opacity="1" style="mix-blend-mode:passthrough"/></g></g></g></g></svg>