<svg xmlns="http://www.w3.org/2000/svg" xmlns:xlink="http://www.w3.org/1999/xlink" fill="none" version="1.1" width="878.7000122070312" height="907.0999755859375" viewBox="0 0 878.7000122070312 907.0999755859375"><defs><clipPath id="master_svg0_141_15615"><rect x="0" y="0" width="878.7000122070312" height="907.0999755859375" rx="0"/></clipPath><clipPath id="master_svg1_141_16276"><rect x="363.5" y="868.6201171875" width="151.72000122070312" height="31.200000762939453" rx="0"/></clipPath></defs><g clip-path="url(#master_svg0_141_15615)"><g clip-path="url(#master_svg1_141_16276)"><g><g><g><path d="M382,893.7901171875L382,887.1901171875C382,886.6901171875,382.200001,886.3901171875,382.6,886.1901171875L388.1,883.0901161875L390.6,881.5901161875L390.6,877.5901164875C390.6,876.6901168875,390.1,875.8901166875,389.300001,875.3901166875L378.3,869.0001171875C377.5,868.5001171875,376.6,868.5001171875,375.8,869.0001171875L364.8,875.4001173875C363.99999994,875.9001173875,363.5,876.7001170875,363.5,877.6001176875L363.5,890.4001181875C363.5,891.3001171875,364,892.1001181875,364.8,892.6001181875L375.8,899.0001181875C376.6,899.5001181875,377.5,899.5001181875,378.3,899.0001181875L382.1,896.8001171875L382,893.8001171875L382,893.7901171875ZM378.3,881.6901171875C377.5,882.1901171875,377,882.9901171875,377,883.8901171875L377,894.4901161875C377,895.3901161875,376,896.0901161875,375.2,895.4901161875L366.6999998,890.5901161875C366.3999999,890.3901161875,366.0999999,889.8901161875,366.0999999,889.5901161875L366.0999999,878.1901168875C366.0999999,877.6901168875,366.3,877.3901166875,366.6999998,877.1901168875L376.5,871.4901170875C376.8,871.2901169875,377.4,871.2901169875,377.8,871.4901170875L385.1,875.6901168875C385.9,876.1901168875,385.9,877.3901166875,385.1,877.8901166875L378.3,881.6901171875Z" fill="#B4B4B4" fill-opacity="1" style="mix-blend-mode:passthrough"/></g><g><path d="M392.20000109265135,880.5901174532763L390.4999999926514,881.5901174832763L390.4999999926514,891.0901184832763C390.4999999926514,891.5901184832763,390.29999919265134,891.8901174832764,389.89999959265134,892.0901184832763L389.79999919265134,892.1901184832764L389.59999849265137,892.2901194832764L387.99999809265137,893.1901184832764L386.99999809265137,893.7901194832764L381.99999809265137,896.5901184832763L381.99999809265137,898.5901184832763C381.99999809265137,899.4901184832763,382.99999809265137,900.0901184832763,383.79999729265137,899.6901184832764L384.79999729265137,899.0901184832763L393.2999970926514,894.0901184832763C393.5999960926514,893.8901174832764,393.89999809265134,893.3901174832764,393.89999809265134,893.0901184832763L393.89999809265134,881.6901187832764C394.0999980926514,880.6901187932764,393.0999980926514,880.0901184032764,392.20000109265135,880.5901174532763Z" fill="#B4B4B4" fill-opacity="1" style="mix-blend-mode:passthrough"/></g></g><g><g><g><path d="M427.6999969370605,882.290117263794L425.39999770706055,882.290117263794C425.0999984770605,882.290117263794,424.79999923706055,882.490117073794,424.79999923706055,882.8901176437939L424.79999923706055,891.590118363794C424.79999923706055,891.890117663794,424.99999999706057,892.190118763794,425.39999770706055,892.190118763794L427.6999969370605,892.190118763794C428.00000003706054,892.190118763794,428.29999543706055,891.990118063794,428.29999543706055,891.590118363794L428.29999543706055,882.8901186037939C428.3999939370606,882.490118983794,428.09999843706055,882.2901182174683,427.6999969370605,882.290117263794Z" fill="#B4B4B4" fill-opacity="1" style="mix-blend-mode:passthrough"/></g><g><path d="M427.0000000482422,880.200117078778L426.09999844824216,880.200117078778C425.3999977082422,880.200117078778,424.6999969482422,879.6001167787781,424.6999969482422,878.800117478778L424.6999969482422,877.9001178787781C424.6999969482422,877.2001180687781,425.2999954182422,876.5001177787781,426.09999844824216,876.5001177787781L427.0000000482422,876.5001177787781C427.6999969482422,876.5001177787781,428.4000015482422,877.100117678778,428.4000015482422,877.9001178787781L428.4000015482422,878.800117478778C428.4000015482422,879.600117678778,427.80000304824216,880.200117078778,427.0000000482422,880.200117078778Z" fill="#B4B4B4" fill-opacity="1" style="mix-blend-mode:passthrough"/></g></g><g><g><path d="M453.99999997412107,882.290117263794L451.6999969441211,882.290117263794C451.3999938941211,882.290117263794,451.0999984741211,882.490117073794,451.0999984741211,882.8901176437939L451.0999984741211,891.590118363794C451.0999984741211,891.890117663794,451.2999954241211,892.190118763794,451.6999969441211,892.190118763794L453.99999997412107,892.190118763794C454.3000030741211,892.190118763794,454.5999984741211,891.990118063794,454.5999984741211,891.590118363794L454.5999984741211,882.8901186037939C454.5999984741211,882.490118983794,454.4000015741211,882.2901182174683,453.99999997412107,882.290117263794Z" fill="#B4B4B4" fill-opacity="1" style="mix-blend-mode:passthrough"/></g><g><path d="M453.3000031,880.200117078778L452.4000015,880.200117078778C451.70000458,880.200117078778,451,879.6001167787781,451,878.800117478778L451,877.9001178787781C451,877.2001180687781,451.59999847,876.5001177787781,452.4000015,876.5001177787781L453.3000031,876.5001177787781C454,876.5001177787781,454.7000046,877.100117678778,454.7000046,877.9001178787781L454.7000046,878.800117478778C454.6000061,879.600117678778,454.0000076,880.200117078778,453.3000031,880.200117078778Z" fill="#B4B4B4" fill-opacity="1" style="mix-blend-mode:passthrough"/></g></g><g><path d="M441.6999969,876.5901169776917L432.59999847,876.5901169776917C432.29999542,876.5901169776917,432,876.790117260343,432,877.190116880343L432,879.490117070343C432,879.790117270343,432.19999695,880.090117470343,432.59999847,880.090117470343L441.5999985,880.090117470343C443,880.090117470343,444.099998,881.190117870343,444.099998,882.590117470343L444.099998,886.190117370343C444.099998,887.590117070343,443,888.690117070343,441.5999985,888.690117070343L436.1999969,888.690117070343C435.8999939,888.690117070343,435.5999985,888.490117070343,435.5999985,888.090117070343L435.5999985,884.990116570343C435.5999985,884.690117370343,435.4000015,884.3901157703431,435,884.3901157703431L432.69999695,884.3901157703431C432.3999939,884.3901157703431,432.099998474,884.590115070343,432.099998474,884.990116570343L432.099998474,891.490117070343C432.099998474,891.7901160703431,432.29999542,892.090117070343,432.69999695,892.090117070343L441.6999969,892.090117070343C444.899994,892.090117070343,447.5,889.490117070343,447.5,886.290115870343L447.5,882.490115170343C447.5,879.190114970343,444.900002,876.590115070343,441.6999969,876.5901169776917Z" fill="#B4B4B4" fill-opacity="1" style="mix-blend-mode:passthrough"/></g><g><g><path d="M415.40000156293945,876.5901169776917L411.49999996293946,876.5901169776917C408.2999992629395,876.5901169776917,405.70000076293945,879.1901168776916,405.70000076293945,882.3901176776917L405.70000076293945,886.2901177776916C405.70000076293945,889.4901189776916,408.2999992629395,892.0901189776916,411.49999996293946,892.0901189776916L412.90000156293945,892.0901189776916C413.20000076293945,892.0901189776916,413.49999996293946,891.8901179776916,413.49999996293946,891.4901189776916L413.49999996293946,889.1901189776917C413.49999996293946,888.8901199776916,413.2999992629395,888.5901189776916,412.90000156293945,888.5901189776916L411.8000030629395,888.5901189776916C410.40000156293945,888.5901189776916,409.3000030629395,887.4901189776916,409.3000030629395,886.0901188776917L409.3000030629395,882.3901185776916C409.3000030629395,880.9901189776916,410.40000156293945,879.8901185776916,411.8000030629395,879.8901185776916L415.3000030629395,879.8901185776916C416.70000476293944,879.8901185776916,417.80000276293947,880.9901189776916,417.80000276293947,882.3901185776916L417.80000276293947,883.4901189776916C417.80000276293947,883.7901191776916,418.00000376293946,884.0901193776916,418.40000176293944,884.0901193776916L420.70000076293945,884.0901193776916C420.99999976293947,884.0901193776916,421.2999987629395,883.8901195776916,421.2999987629395,883.4901189776916L421.2999987629395,882.1901187776916C421.2999987629395,879.1901187776916,418.70000076293945,876.5901188850403,415.40000156293945,876.5901169776917Z" fill="#B4B4B4" fill-opacity="1" style="mix-blend-mode:passthrough"/></g><g><path d="M421.09999848427736,889.5001163204712L416.19999698427733,884.6001167304712C416.09999848427736,884.5001163484712,415.99999618427734,884.4001169204712,415.69999698427733,884.4001169204712L412.39999771427733,884.4001169204712C411.79999923727735,884.4001169204712,411.59999847427736,885.1001167304712,411.89999771427733,885.4001159704712L418.49999618427734,892.0001163204712C418.69999698427733,892.2001171204712,419.19999698427733,892.2001171204712,419.39999768427737,892.0001163204712L420.99999618427734,890.4001159204712C421.29999538427734,890.2001152204712,421.29999538427734,889.7001152204712,421.09999848427736,889.5001163204712Z" fill="#B4B4B4" fill-opacity="1" style="mix-blend-mode:passthrough"/></g></g></g><g><g><path d="M477.59999844824216,892.790116598938C476.09999844824216,892.790116598938,474.7999954482422,892.490116598938,473.6999969482422,891.790117598938C472.59999844824216,891.090116598938,471.6999969482422,890.190116598938,471.0999984782422,888.990117598938C470.4999999982422,887.790117598938,470.1999969482422,886.290117298938,470.1999969482422,884.590118398938C470.1999969482422,882.890119598938,470.4999999982422,881.490117998938,471.0999984782422,880.190118798938C471.6999969482422,878.990118998938,472.59999844824216,877.990118998938,473.6999969482422,877.390118598938C474.7999954482422,876.790118218938,476.09999844824216,876.390118598938,477.59999844824216,876.390118598938C479.09999844824216,876.390118598938,480.40000194824216,876.690118788938,481.4999999482422,877.390118598938C482.59999894824216,878.090118398938,483.4999999482422,878.990118998938,483.9999999482422,880.190118798938C484.59999894824216,881.390118598938,484.90000194824216,882.890118598938,484.90000194824216,884.590118398938C484.90000194824216,886.290119198938,484.59999894824216,887.6901185989379,483.9999999482422,888.990117598938C483.40000194824216,890.1901185989379,482.59999894824216,891.1901185989379,481.40000194824216,891.790117598938C480.40000194824216,892.490116598938,479.09999844824216,892.790116598938,477.59999844824216,892.790116598938ZM477.59999844824216,889.690116598938C478.4000015482422,889.690116598938,479.09999844824216,889.490116598938,479.6999969482422,889.090116598938C480.2999949482422,888.690116598938,480.7999949482422,888.090116598938,481.09999894824216,887.390115598938C481.40000194824216,886.690114598938,481.59999894824216,885.790115398938,481.59999894824216,884.690114998938C481.59999894824216,883.590114598938,481.40000194824216,882.690114998938,481.09999894824216,881.990115198938C480.7999949482422,881.190114998938,480.2999949482422,880.690114998938,479.6999969482422,880.290115398938C479.09999844824216,879.890115698938,478.39999384824216,879.690114998938,477.59999844824216,879.690114998938C476.80000304824216,879.690114998938,476.09999844824216,879.890114798938,475.5000000482422,880.290115398938C474.9000015482422,880.690114998938,474.4000015482422,881.290115398938,474.09999844824216,881.990115198938C473.7999954482422,882.790115398938,473.59999844824216,883.690114998938,473.59999844824216,884.690114998938C473.59999844824216,885.690114998938,473.7999954482422,886.590114598938,474.09999844824216,887.390115598938C474.4000015482422,888.190114598938,474.9000015482422,888.690114598938,475.5000000482422,889.090116598938C476.09999844824216,889.490116598938,476.80000304824216,889.690116598938,477.59999844824216,889.690116598938ZM482.4999999482422,894.690117598938L477.09999844824216,888.290117598938L479.59999844824216,886.190116898938L485.09999894824216,892.590115598938L482.4999999482422,894.690117598938Z" fill="#B4B4B4" fill-opacity="1" style="mix-blend-mode:passthrough"/></g><g><path d="M492.9999999776367,879.5901174267334C492.39999387763675,879.5901174267334,491.89999387763675,879.7901172267334,491.4999999776367,880.0901174267334C491.09999847763675,880.4901170267334,490.6999969776367,880.9901170267334,490.4000014776367,881.6901178267334L487.80000305163674,879.8901176267334C488.2000045776367,878.8901176267334,488.9000014776367,878.0901174267334,489.80000307763675,877.4901180267334C490.7000045776367,876.8901176467334,491.80000307763675,876.4901180267334,493.1999969776367,876.4901180267334C494.30000307763675,876.4901180267334,495.1999969776367,876.6901178367334,495.9999999776367,877.0901184067334C496.80000307763675,877.4901180267334,497.39999387763675,878.0901184267334,497.80000257763675,878.7901182267334C498.19999657763674,879.4901180267334,498.4000095776367,880.3901186267334,498.4000095776367,881.2901182267334C498.4000095776367,882.0901184267334,498.2000125776367,882.9901180267334,497.80000257763675,883.6901188267334C497.4000091776367,884.4901190267334,496.80000307763675,885.2901191267334,495.9999999776367,886.0901184267334L491.4000014776367,890.9901180267334L490.7000045776367,889.3901180267334L498.80000257763675,889.3901180267334L498.80000257763675,892.4901180267334L487.7000045776367,892.4901180267334L487.7000045776367,890.1901190267334L493.2000121776367,884.3901186267334C493.8000182776367,883.6901188267334,494.2000121776367,883.1901188267334,494.5000152776367,882.7901182267334C494.7000121776367,882.3901186267334,494.9000091776367,881.8901186267334,494.9000091776367,881.3901186267334C494.9000091776367,880.7901182267334,494.7000121776367,880.3901186267334,494.4000091776367,879.9901190267334C494.1000060776367,879.6901188267334,493.6000060776367,879.5901193267334,492.9999999776367,879.5901174267334Z" fill="#B4B4B4" fill-opacity="1" style="mix-blend-mode:passthrough"/></g></g></g><g><path d="M512.4600065449218,887.8701168905029C512.0600125449218,888.460116890503,511.58000184492187,888.9101178905029,511.0100097449219,889.2301178905029C510.4500122449219,889.550117890503,509.86001584492186,889.710116890503,509.2500152449219,889.710116890503C508.4100189449219,889.710116890503,507.6600189449219,889.5001178905029,507.03001404492187,889.0901168905029C506.40000914492185,888.680116890503,505.9100189449219,888.0901168905029,505.57000734492186,887.320115890503C505.2200012449219,886.5301148905029,505.0400085449219,885.590116490503,505.0400085449219,884.5101165905029C505.0400085449219,883.4301166905029,505.2200012449219,882.5501164905029,505.57000734492186,881.790116290503C505.91000364492186,881.0501164905029,506.40000914492185,880.4801158905029,507.0200042449219,880.090116490503C507.6399993449219,879.700116190503,508.3899993449219,879.500116390503,509.2500000449219,879.500116390503C509.86000064492185,879.500116390503,510.4700012449219,879.6601161905029,511.0399932449219,879.9701165905029C511.61999514492186,880.290116290503,512.0799865449219,880.7201165905029,512.4499965449219,881.290116290503L512.6900025449219,881.6601161905029L515.2200015449218,879.9201163905029L515.0200045449219,879.5801162905029C514.4600065449218,878.640116690503,513.6699985449219,877.8801164905029,512.6699985449219,877.320116040503C511.66999814492186,876.7601156205029,510.5299987449219,876.4801158905029,509.2799987449219,876.4801158905029C507.7899932449219,876.4801158905029,506.4700012449219,876.8101158105029,505.35000614492185,877.470115660503C504.2300109449219,878.1301154905029,503.3400116449219,879.0801152905029,502.7200012249219,880.300115590503C502.1100006149219,881.5101155905029,501.7900085449219,882.9201154905029,501.7900085449219,884.5101155905029C501.7900085449219,886.1001166905029,502.1000061049219,887.580115890503,502.71000671492186,888.800115890503C503.33000184492187,890.0401148905029,504.2200012449219,891.0101168905029,505.35000614492185,891.690114890503C506.4800109449219,892.3701148905029,507.8000030449219,892.710115890503,509.2700042449219,892.710115890503C510.5200042449219,892.710115890503,511.66000364492186,892.430114890503,512.6500095449219,891.8801158905029C513.6400145449219,891.330115890503,514.4400025449219,890.570115890503,515.0100095449219,889.6101148905029L515.2100065449218,889.2701148905029L512.6900025449219,887.4901138905029L512.4499965449219,887.8501148905029L512.4600065449218,887.8701168905029Z" fill="#B4B4B4" fill-opacity="1" style="mix-blend-mode:passthrough"/></g></g></g></svg>